<ttFont>
          <CharString index="0">
            214 312 rmoveto
            150 hlineto
            16 12 -2 -13 5 hvcurveto
            7 -16 5 -43 0 vvcurveto
            38 4 rlineto
            -5 31 -3 42 21 vvcurveto
            21 3 42 5 31 vhcurveto
            -38 4 rlineto
            0 -5 -44 -7 -15 vhcurveto
            -14 -5 -12 -1 -16 hhcurveto
            -150 243 220 hlineto
            13 -17 15 -67 4 -24 37 6 rcurveline
            4 57 0 49 -4 49 rrcurveto
            -4 -25 -36 -2 -21 hhcurveto
            -251 hlineto
            -94 callsubr
            return
          </CharString>
          <CharString index="1">
            406 352 rmoveto
            13 31 3 6 30 2 7 31 rcurveline
            -5 -42 -17 -1 -23 hhcurveto
            -22 -22 -4 callgsubr
            32 -5 13 -4 vhcurveto
            12 -4 7 -12 -7 -16 -94 -234 rcurveline
            -7 -30 rlineto
            -6 hlineto
            -5 25 -105 240 -7 16 7 12 13 4 rlinecurve
            12 4 32 5 0 vvcurveto
            2 29 rlineto
            -5 -46 -30 -2 -27 hhcurveto
            -27 -23 2 5 -46 4 callgsubr
            3 -5 15 -32 rlinecurve
            160 -354 -42 -92 rlineto
            -37 -17 -27 -21 -31 hhcurveto
            -19 -17 6 7 -15 hvcurveto
            -18 -9 4 -26 14 -48 14 -23 rlinecurve
            12 hlineto
            65 39 45 60 26 hvcurveto
            return
          </CharString>
          <CharString index="2">
            27 55 -14 callgsubr
            31 rlineto
            0 -53 -33 callsubr
            7 17 vvcurveto
            208 vlineto
            166 286 28 51 17 10 40 4 rlinecurve
            4 32 rlineto
            -5 -34 -39 -4 -32 hhcurveto
            -38 -41 4 5 -39 hvcurveto
            3 -32 13 -3 39 -7 17 -11 rlinecurve
            12 -9 4 -12 -12 -21 -131 -234 rcurveline
            -132 233 -14 26 9 18 20 7 rlinecurve
            19 3 callgsubr
            3 32 rlineto
            -5 -38 -60 -4 -43 hhcurveto
            -41 -35 3 6 -36 hvcurveto
            4 -32 38 -4 15 -10 24 -44 rlinecurve
            return
          </CharString>
          <CharString index="3">
            -26 -45 3 5 -52 callsubr
            -69 callgsubr
            -7 1 -6 -17 vvcurveto
            return
          </CharString>
          <CharString index="4">
            413 28 callsubr
            -121 -122 -76 -110 -122 -132 79 -84 121 39 51 11 73 79 vhcurveto
            -16 22 rlineto
            -23 -32 -44 -20 -44 hhcurveto
            -89 -50 55 108 -5 hvcurveto
            103 181 rmoveto
            69 20 -59 -62 hvcurveto
            -192 -24 rlineto
            70 27 75 76 vhcurveto
            return
          </CharString>
          <CharString index="5">
            514 56 rmoveto
            -16 -28 -44 -10 -47 hhcurveto
            -153 -94 146 153 174 83 117 149 54 59 -8 -18 33 hvcurveto
            18 -27 8 -44 7 -56 34 6 rcurveline
            13 49 8 60 5 52 rrcurveto
            15 -73 -64 -53 callgsubr
            85 83 16 19 50 hvcurveto
            191 vlineto
            17 1 7 -2 callsubr
            15 7 30 6 callgsubr
            -28 -46 -2 -36 hhcurveto
            -30 -51 3 5 -44 hvcurveto
            -7 -36 rlineto
            0 57 -8 19 -6 vhcurveto
            20 -6 2 -11 -18 vvcurveto
            return
          </CharString>
          <CharString index="6">
            rmoveto
            250 vlineto
            41 4 30 7 27 vhcurveto
            -15 18 rlineto
            -36 -71 -17 -16 -39 hvcurveto
            6 -18 callgsubr
            31 7 16 -3 vhcurveto
            -87 callsubr
            return
          </CharString>
          <CharString index="7">
            37 -4 21 -6 -17 vvcurveto
            -31 -38 -48 -22 -22 vhcurveto
            22 -18 rlineto
            35 30 69 77 46 vvcurveto
            38 -45 26 -32 2 vhcurveto
            -17 -11 -27 -30 -10 -16 rrcurveto
            endchar
          </CharString>
          <CharString index="8">
            rmoveto
            -14 -14 -70 -129 -7 -14 32 -19 rcurveline
            100 112 100 -112 32 19 -7 14 -70 129 -14 14 -73 callsubr
          </CharString>
          <CharString index="9">
            42 197 rmoveto
            -125 71 -88 138 124 85 98 137 125 -73 88 -137 -125 -83 -98 -137 vhcurveto
            89 22 rmoveto
            115 35 57 70 83 51 -68 -126 -116 -36 -56 -70 -83 -50 68 126 vhcurveto
            return
          </CharString>
          <CharString index="10">
            26 41 -2 -6 24 callgsubr
            -57 12 -6 7 -21 57 rlinecurve
            -215 573 -21 -12 -30 -11 -25 -6 rlinecurve
            -199 -544 -21 -57 -4 -7 -57 -12 rlinecurve
            7 -33 rlineto
            return
          </CharString>
          <CharString index="11">
            rmoveto
            6 -16 -50 10 -18 hhcurveto
            -16 -10 -98 -103 -10 -12 26 -27 rcurveline
            188 118 rlineto
            endchar
          </CharString>
          <CharString index="12">
            75 87 17 16 47 hvcurveto
            11 50 9 62 1 52 -34 5 rcurveline
            -107 -31 -47 -49 -108 hhcurveto
            -153 -94 146 153 174 83 117 149 54 58 -8 -18 33 hvcurveto
            18 -27 9 -54 7 -56 34 6 rcurveline
            13 49 9 70 5 52 rrcurveto
            15 -73 -65 17 -89 hhcurveto
            -213 -133 -154 -213 return
          </CharString>
          <CharString index="13">
            -26 -45 4 5 -52 callsubr
            19 -95 callgsubr
            return
          </CharString>
          <CharString index="14">
            rmoveto
            -17 2 -51 -4 -17 -4 -13 -14 -68 -125 -7 -14 32 -19 rcurveline
            151 162 rlineto
            endchar
          </CharString>
          <CharString index="15">
            191 568 rmoveto
            5 4 rlineto
            0 19 -41 17 -24 vhcurveto
            243 -329 rlineto
            80 -108 35 -84 0 vvcurveto
            75 15 rlineto
            0 -8 103 89 vvcurveto
            390 vlineto
            16 3 8 14 6 -44 callgsubr
            39 -68 callsubr
            -5 -41 -36 -4 -27 hhcurveto
            -85 callgsubr
            -5 -23 -36 -4 -21 hhcurveto
            -19 -43 -16 callsubr
            41 -5 18 -95 callgsubr
            return
          </CharString>
          <CharString index="16">
            -1 8 17 -1 16 hhcurveto
            15 18 1 1 8 hvcurveto
            17 13 78 101 7 13 -28 21 rcurveline
            -115 -90 -115 90 -28 -21 7 -13 78 -101 17 -13 rlinecurve
            endchar
          </CharString>
          <CharString index="17">
            192 hmoveto
            -106 callgsubr
            endchar
          </CharString>
          <CharString index="18">
            -1 8 17 -1 16 hhcurveto
            15 18 1 1 8 hvcurveto
            14 14 70 129 7 14 -32 19 rcurveline
            -100 -112 -100 112 -32 -19 7 -14 70 -129 14 -14 rlinecurve
            endchar
          </CharString>
          <CharString index="19">
            vlineto
            -17 -1 -7 -101 callgsubr
            return
          </CharString>
          <CharString index="20">
            -49 callsubr
            -275 vlineto
            -102 callgsubr
            return
          </CharString>
          <CharString index="21">
            347 284 rmoveto
            11 27 18 73 5 29 rrcurveto
            6 -16 -31 13 -24 hhcurveto
            -33 -25 -14 -39 -32 hvcurveto
            -33 -42 rlineto
            -4 20 -5 32 25 vvcurveto
            -16 18 -36 -4 -60 -18 -36 -16 rlinecurve
            5 -18 callgsubr
            40 8 15 -3 vhcurveto
            15 -3 2 -11 -19 vvcurveto
            -270 vlineto
            -102 callgsubr
            return
          </CharString>
          <CharString index="22">
            rmoveto
            29 22 23 26 26 22 -23 -29 -29 -22 -23 -26 -26 -22 23 29 vhcurveto
            -38 hmoveto
            -46 40 -39 46 46 40 39 46 46 -40 39 -46 -46 -40 -39 -46 vhcurveto
            return
          </CharString>
          <CharString index="23">
            rmoveto
            -106 callgsubr
            return
          </CharString>
          <CharString index="24">
            27 45 -3 -5 42 21 callsubr
            -42 5 -19 8 vhcurveto
            -15 7 -1 6 17 vvcurveto
            return
          </CharString>
          <CharString index="25">
            vvcurveto
            -57 38 -32 57 34 32 15 19 28 vhcurveto
            -15 30 rlineto
            -8 -18 -23 -6 -18 hhcurveto
            -32 -13 24 23 hvcurveto
            return
          </CharString>
          <CharString index="26">
            -83 50 65 -140 43 hhcurveto
            142 hlineto
            5 32 rlineto
            -27 -26 3 18 -28 hvcurveto
            -70 47 -57 198 -75 21 rrcurveto
            7 vlineto
            82 6 71 74 89 vvcurveto
            129 -113 40 -129 -77 -90 -12 7 -55 vhcurveto
            -7 -31 -45 callgsubr
            -16 vvcurveto
            return
          </CharString>
          <CharString index="27">
            191 -16 63 173 212 -45 45 hstemhm
            44 83 156 83 186 90 hintmask 11011100
            642 28 callsubr
            -118 -52 -43 -22 -35 -32 vhcurveto
            38 -21 -40 19 -63 hhcurveto
            -43 -80 -34 -15 -33 hvcurveto
            3 -24 14 -64 6 -19 41 10 rcurveline
            21 0 47 4 20 vhcurveto
            hintmask 10111100
            7 13 31 6 25 hhcurveto
            67 14 -46 -69 hvcurveto
            -45 vlineto
            -92 -10 rlineto
            -83 -8 -64 -27 -82 vvcurveto
            -69 43 -47 69 57 58 46 41 43 vhcurveto
            -55 33 56 -32 71 hhcurveto
            38 51 11 73 77 hvcurveto
            -16 22 rlineto
            -23 -31 -44 -20 -42 hhcurveto
            -86 -50 55 108 -5 hvcurveto
            100 181 rmoveto
            65 21 -59 -62 hvcurveto
            -186 -24 rlineto
            70 28 75 72 vhcurveto
            -275 -347 rmoveto
            -38 -26 31 37 45 32 19 47 8 hvcurveto
            77 14 rlineto
            -37 6 -34 12 -28 vhcurveto
            -28 -31 -45 -27 -34 hhcurveto
            return
          </CharString>
          <CharString index="28">
            -61 4 -15 11 17 vvcurveto
            16 20 16 22 17 vhcurveto
            0 16 -4 23 102 80 55 102 66 -40 36 0 vhcurveto
            32 -3 35 1 18 3 11 48 rcurveline
            -13 14 -33 -15 -58 -14 -33 -3 rlinecurve
            return
          </CharString>
          <CharString index="29">
            27 47 -4 -4 25 hvcurveto
            7 30 rlineto
            0 -21 4 -14 6 vhcurveto
            -13 5 -15 12 -16 17 -175 185 rcurveline
            126 109 14 13 14 9 14 4 rlinecurve
            12 3 24 3 0 vvcurveto
            3 30 rlineto
            -4 -25 -42 -2 -23 hhcurveto
            -24 -32 2 4 -27 hvcurveto
            3 -29 14 -1 16 -3 4 -5 rlinecurve
            4 -6 -5 -11 -9 -8 -144 -123 rcurveline
            return
          </CharString>
          <CharString index="30">
            -28 -49 -35 callsubr
            -7 -17 vvcurveto
            -512 vlineto
            -17 -1 -8 -98 callgsubr
            -32 rlineto
            return
          </CharString>
          <CharString index="31">
            198 12 -21 401 25 -1 -20 hstemhm
            hintmask 11000000
            -81 callgsubr
            hintmask 10100000
            -72 callgsubr
            hintmask 11000000
            -62 callgsubr
            return
          </CharString>
          <CharString index="32">
            262 -8 44 -15 -21 315 46 254 45 -32 callsubr
            89 388 101 hintmask 10111100
            55 361 rmoveto
            -9 -46 rlineto
            79 -246 9 callsubr
            45 42 -62 callsubr
            hintmask 10111100
            40 66 -8 81 hhcurveto
            -66 callgsubr
            -218 vlineto
            223 -325 rmoveto
            -74 -60 10 42 hvcurveto
            227 172 vlineto
            9 46 rlineto
            -181 245 hlineto
            4 16 33 5 47 hhcurveto
            198 94 -92 -198 -169 -85 -120 -169 hvcurveto
            endchar
          </CharString>
          <CharString index="33">
            -107 -72 callsubr
            364 68 -10 callsubr
            0 133 hintmask 10110000
            -86 callsubr
            hintmask 01110000
            5 41 47 -62 callsubr
            hintmask 10110000
            -61 callsubr
            hintmask 10101000
            29 13 -37 -45 hvcurveto
            return
          </CharString>
          <CharString index="34">
            rlinecurve
            -90 callgsubr
          </CharString>
          <CharString index="35">
            13 -21 29 -21 return
          </CharString>
          <CharString index="36">
            rmoveto
            -17 17 -30 -5 -66 -21 -29 -12 rlinecurve
            4 -24 rlineto
            40 hlineto
            21 7 -8 -21 hvcurveto
            -196 vlineto
            -13 -5 -6 -10 -5 vhcurveto
            -15 20 callsubr
            4 29 49 1 21 hhcurveto
            21 43 -1 -4 30 hvcurveto
            5 32 rlineto
            0 -36 5 -15 8 vhcurveto
            -10 5 -4 6 13 vvcurveto
            return
          </CharString>
          <CharString index="37">
            -20 hstemhm
            30 callsubr
            hintmask 01111100
            102 5 rmoveto
            35 -36 46 66 rlineto
            hintmask 10111100
            -33 53 66 -18 78 hhcurveto
            203 125 154 203 120 -46 92 -80 55 hvcurveto
            37 52 -34 37 -45 -65 rlineto
            22 -47 -56 12 -62 hhcurveto
            -203 -125 -154 -203 -105 34 -84 62 -56 hvcurveto
            464 241 rmoveto
            -46 callgsubr
            -69 -53 25 42 -39 vhcurveto
            307 441 rlineto
            49 -58 23 -86 -91 vvcurveto
            -459 40 rmoveto
            151 67 122 151 54 44 -16 -27 36 vhcurveto
            -303 -434 rlineto
            -33 56 -16 72 76 vvcurveto
            return
          </CharString>
          <CharString index="38">
            214 612 rmoveto
            4 15 33 3 17 hhcurveto
            98 45 -46 -98 -97 -56 -47 -97 hvcurveto
            -55 hlineto
            -89 -262 rmoveto
            -17 -1 -7 -101 callgsubr
            return
          </CharString>
          <CharString index="39">
            22 callsubr
            33 rlineto
            return
          </CharString>
          <CharString index="40">
            27 372 rmoveto
            58 -263 hlineto
            -102 51 -23 55 54 52 42 27 33 vhcurveto
            -15 23 rlineto
            -14 -21 -32 -17 -29 hhcurveto
            -40 -28 12 67 hvcurveto
            246 vlineto
            120 -4 8 53 -128 -9 rlineto
            110 vlineto
            -80 -37 rlineto
            -67 vlineto
            -63 -18 rlineto
            return
          </CharString>
          <CharString index="41">
            5 51 33 -62 callsubr
            329 hlineto
            8 28 15 107 1 31 -34 7 rcurveline
            -8 -28 -35 -79 -18 -18 rrcurveto
            -211 return
          </CharString>
          <CharString index="42">
            -6 -12 -3 -20 -14 vvcurveto
            -80 70 -40 104 114 140 76 109 59 -43 45 -86 7 vhcurveto
            -99 7 rlineto
            return
          </CharString>
          <CharString index="43">
            5 42 45 -62 callsubr
            return
          </CharString>
          <CharString index="44">
            348 36 rmoveto
            -74 -60 10 42 hvcurveto
            518 vlineto
            4 16 33 5 47 hhcurveto
            198 94 -92 -198 -169 -85 -120 -169 hvcurveto
            9 -44 rmoveto
            -66 callgsubr
            -510 -88 callsubr
            return
          </CharString>
          <CharString index="45">
            3 26 hhcurveto
            return
          </CharString>
          <CharString index="46">
            27 48 -4 -4 45 hvcurveto
            7 34 rlineto
            0 -56 5 -19 7 vhcurveto
            -17 7 -4 5 17 vvcurveto
            222 vlineto
            27 19 36 48 36 hhcurveto
            return
          </CharString>
          <CharString index="47">
            rmoveto
            250 hlineto
            11 61 rlineto
            -250 hlineto
            endchar
          </CharString>
          <CharString index="48">
            0 48 -35 -21 320 48 243 47 return
          </CharString>
          <CharString index="49">
            vlineto
            41 1 31 6 26 vhcurveto
            -14 18 return
          </CharString>
          <CharString index="50">
            0 vvcurveto
            7 return
          </CharString>
          <CharString index="51">
            -20 -32 callsubr
            89 return
          </CharString>
          <CharString index="52">
            -102 -80 -53 -102 -111 99 -32 0 hvcurveto
            145 -170 rmoveto
            67 -5 22 -27 -42 vvcurveto
            -60 -62 -41 -84 vhcurveto
            return
          </CharString>
          <CharString index="53">
            rmoveto
            39 hlineto
            10 46 rlineto
            -49 205 -63 hlineto
            -159 -214 22 -37 rlineto
            130 -45 hlineto
            -11 -4 -4 -7 -4 vhcurveto
            -11 -5 -32 -4 0 vvcurveto
            4 -32 rlineto
            return
          </CharString>
          <CharString index="54">
            26 93 3 72 vvcurveto
            41 -41 23 -63 -30 -36 -18 -13 -24 vhcurveto
            18 -35 rlineto
            16 22 29 9 19 hhcurveto
            26 12 -10 -23 -29 -62 -20 -14 -6 hvcurveto
            endchar
          </CharString>
          <CharString index="55">
            -42 -42 callgsubr
            rlineto
            0 40 -5 return
          </CharString>
          <CharString index="56">
            69 72 rmoveto
            -3 -6 -4 -16 -5 vvcurveto
            -29 21 -23 45 -12 vhcurveto
            -99 -75 rlineto
            return
          </CharString>
          <CharString index="57">
            249 hlineto
            5 16 16 70 16 vvcurveto
            -27 5 -5 -15 -26 -37 -11 -9 rlinecurve
            -121 hlineto
            -3 7 18 14 37 29 27 25 rlinecurve
            41 39 35 34 59 vvcurveto
            70 -55 27 -64 -40 -55 -20 -10 -26 vhcurveto
            3 -20 15 -57 10 -19 32 4 rcurveline
            -2 21 1 36 2 12 rrcurveto
            endchar
          </CharString>
          <CharString index="58">
            12 -2 5 -8 -22 vvcurveto
            return
          </CharString>
          <CharString index="59">
            rmoveto
            -42 4 -22 6 21 vvcurveto
            33 43 61 26 38 vhcurveto
            -23 19 rlineto
            -41 -40 -80 -100 -51 vvcurveto
            -45 47 -33 33 -3 vhcurveto
            22 15 return
          </CharString>
          <CharString index="60">
            5 46 49 3 28 hhcurveto
            return
          </CharString>
          <CharString index="61">
            -74 callgsubr
            -24 callsubr
            return
          </CharString>
          <CharString index="62">
            60 -53 24 -49 vhcurveto
            7 vlineto
            38 7 42 31 40 vvcurveto
            55 -52 24 -61 -39 -53 -18 -7 -25 vhcurveto
            2 -18 11 -55 10 -17 28 5 rcurveline
            -1 18 3 34 1 10 rrcurveto
            5 11 24 2 16 hhcurveto
            32 18 -20 -31 -35 -45 -28 -30 -6 hvcurveto
            return
          </CharString>
          <CharString index="63">
            vlineto
            -102 callgsubr
            hintmask 01111100
            -11 callsubr
            hintmask 10111100
            -27 callgsubr
            hintmask 01111100
            -46 callsubr
            return
          </CharString>
          <CharString index="64">
            -7 callsubr
            hintmask 10111100
            7 -29 rlineto
            hintmask 01111100
            5 51 return
          </CharString>
          <CharString index="65">
            261 -16 rmoveto
            124 90 102 138 124 -53 84 -114 -68 -77 -57 0 hvcurveto
            227 vlineto
            41 1 31 7 26 vhcurveto
            -15 18 -38 -3 -70 -18 -38 -17 rlinecurve
            6 -18 callgsubr
            25 6 17 22 3 -12 -22 vhcurveto
            return
          </CharString>
          <CharString index="66">
            582 -80 callgsubr
            return
          </CharString>
          <CharString index="67">
            267 -16 48 586 48 return
          </CharString>
          <CharString index="68">
            1 callgsubr
            hintmask 10111100
            30 58 -87 callgsubr
            return
          </CharString>
          <CharString index="69">
            6 42 61 2 27 hhcurveto
            return
          </CharString>
          <CharString index="70">
            5 -42 hvcurveto
            return
          </CharString>
          <CharString index="71">
            rmoveto
            47 4 48 -12 -61 vvcurveto
            -35 -32 -24 -43 -20 -15 3 4 -12 vhcurveto
            -4 11 0 35 1 21 -29 4 rcurveline
            -7 -19 -16 -62 -1 -20 rrcurveto
            -6 22 57 -12 33 hhcurveto
            79 66 46 66 hvcurveto
            return
          </CharString>
          <CharString index="72">
            20 callgsubr
            40 -5 -69 callgsubr
            -7 1 return
          </CharString>
          <CharString index="73">
            6 0 vvcurveto
            -7 33 rlineto
            return
          </CharString>
          <CharString index="74">
            6 -19 8 vhcurveto
            -15 7 -1 return
          </CharString>
          <CharString index="75">
            hstemhm
            125 return
          </CharString>
          <CharString index="76">
            hlineto
            62 20 80 70 29 22 -7 -10 14 vhcurveto
            4 -25 6 -41 -34 vvcurveto
            34 2 10 30 20 75 5 37 rlinecurve
            10 -39 -50 8 -26 hhcurveto
            -135 -69 -118 -126 hvcurveto
            return
          </CharString>
          <CharString index="77">
            28 40 -3 -5 46 21 callsubr
            -40 5 -19 8 vhcurveto
            -15 7 -1 6 17 vvcurveto
            return
          </CharString>
          <CharString index="78">
            5 51 33 -62 callsubr
            304 hlineto
            6 28 12 105 1 31 -34 7 rcurveline
            -6 -26 -29 -73 -16 -16 rrcurveto
            -232 hlineto
            -3 6 21 7 rlineto
            17 18 21 43 57 vvcurveto
            return
          </CharString>
          <CharString index="79">
            -14 6 -2 6 17 vvcurveto
            531 167 vlineto
            9 -25 10 -72 2 -28 36 6 rcurveline
            return
          </CharString>
          <CharString index="80">
            -33 -16 60 343 45 return
          </CharString>
          <CharString index="81">
            33 rlineto
            0 return
          </CharString>
          <CharString index="82">
            -52 callgsubr
            -19 -8 return
          </CharString>
          <CharString index="83">
            257 vlineto
            25 32 return
          </CharString>
          <CharString index="84">
            rmoveto
            -32 24 -23 34 35 24 23 32 32 -24 24 -35 -35 -23 -24 -32 vhcurveto
            return
          </CharString>
          <CharString index="85">
            rmoveto
            23 22 -103 158 103 158 -23 22 -173 -168 rlineto
            -24 vlineto
            return
          </CharString>
          <CharString index="86">
            -83 -52 38 48 35 22 22 50 41 hvcurveto
            return
          </CharString>
          <CharString index="87">
            5 51 26 -62 callsubr
            return
          </CharString>
          <CharString index="88">
            14 -16 41 366 41 return
          </CharString>
          <CharString index="89">
            43 33 -2 -6 40 hvcurveto
            7 33 -40 10 -25 7 -49 54 rlinecurve
            -246 267 202 213 29 31 20 11 46 7 rlinecurve
            -7 33 rlineto
            return
          </CharString>
          <CharString index="90">
            -3 -27 hhcurveto
            return
          </CharString>
          <CharString index="91">
            1 8 -42 -42 callgsubr
            rlineto
            0 return
          </CharString>
          <CharString index="92">
            -47 callsubr
            30 return
          </CharString>
          <CharString index="93">
            -20 -10 callsubr
            return
          </CharString>
          <CharString index="94">
            41 1 31 6 26 vhcurveto
            -15 18 -39 -3 -80 -17 -39 -18 rlinecurve
            5 -18 callgsubr
            44 9 19 -3 vhcurveto
            14 -2 4 -13 -19 vvcurveto
            return
          </CharString>
          <CharString index="95">
            hhcurveto
            6 389 rmoveto
            75 44 -51 -121 -124 -55 -52 -66 -59 -43 32 50 hvcurveto
            229 vlineto
            0 45 37 59 vhcurveto
            endchar
          </CharString>
          <CharString index="96">
            5 51 26 3 27 hhcurveto
            return
          </CharString>
          <CharString index="97">
            hstemhm
            107 80 return
          </CharString>
          <CharString index="98">
            8 rmoveto
            40 -24 360 679 -40 24 rlineto
            return
          </CharString>
          <CharString index="99">
            rmoveto
            3 -13 23 -47 8 -8 35 11 rcurveline
            -6 14 -3 18 9 return
          </CharString>
          <CharString index="100">
            -6 0 vvcurveto
            return
          </CharString>
          <CharString index="101">
            42 hvcurveto
            7 return
          </CharString>
          <CharString index="102">
            161 13 -21 23 -21 27 -21 289 42 288 39 return
          </CharString>
          <CharString index="103">
            -240 42 -42 169 return
          </CharString>
          <CharString index="104">
            -16 46 590 46 return
          </CharString>
          <CharString index="105">
            15 7 vhcurveto
            return
          </CharString>
          <CharString index="106">
            93 -64 60 -91 -92 -64 -65 -88 -94 64 -61 92 91 64 66 89 vhcurveto
            -75 hmoveto
            -79 -39 -33 -41 -42 -39 return
          </CharString>
          <CharString index="107">
            25 41 hhcurveto
            69 return
          </CharString>
          <CharString index="108">
            rmoveto
            42 -4 21 -6 -21 vvcurveto
            -33 -42 -61 -26 -38 vhcurveto
            23 -19 rlineto
            40 40 80 100 51 vvcurveto
            45 return
          </CharString>
          <CharString index="109">
            276 7 -21 35 -21 650 -20 return
          </CharString>
          <CharString index="110">
            18 -8 vhcurveto
            15 -6 return
          </CharString>
          <CharString index="111">
            rmoveto
            124 -183 35 14 -5 14 -48 135 -10 15 rlinecurve
            -16 7 -50 12 -17 1 rrcurveto
            return
          </CharString>
          <CharString index="112">
            5 37 6 99 -2 37 rrcurveto
            return
          </CharString>
          <CharString index="113">
            530 13 -21 658 -20 return
          </CharString>
          <CharString index="114">
            27 50 -4 -5 44 hvcurveto
            8 -26 callsubr
            -55 7 -17 6 vhcurveto
            -17 6 -4 7 16 vvcurveto
            return
          </CharString>
          <CharString index="115">
            214 -41 callsubr
            return
          </CharString>
          <CharString index="116">
            14 callgsubr
            hintmask 01111100
            5 return
          </CharString>
          <CharString index="117">
            346 66 rmoveto
            12 -13 1 -10 -4 -7 -5 -8 -16 -5 -9 -1 7 -30 rcurveline
            return
          </CharString>
          <CharString index="118">
            40 0 48 -35 -21 658 -20 return
          </CharString>
          <CharString index="119">
            8 -1 4 17 vvcurveto
            215 vlineto
            return
          </CharString>
          <CharString index="120">
            -51 callgsubr
            17 vvcurveto
            return
          </CharString>
          <CharString index="121">
            hlineto
            -33 -15 -28 -16 -15 vhcurveto
            -13 -13 -37 -11 -13 -1 7 -32 rcurveline
            return
          </CharString>
          <CharString index="122">
            -126 -63 -118 -126 hvcurveto
            -58 vlineto
            -66 -15 rlineto
            endchar
          </CharString>
          <CharString index="123" raw="1">
            6a051370 91b50b  
          </CharString>
          <CharString index="124">
            47 7 -20 hstemhm
            242 89 return
          </CharString>
          <CharString index="125">
            -16 59 348 41 286 -20 hstem
            42 89 221 80 return
          </CharString>
          <CharString index="126">
            -239 -6 callgsubr
            692 -20 return
          </CharString>
          <CharString index="127">
            -8 -40 -19 callgsubr
            return
          </CharString>
          <CharString index="128">
            hvcurveto
            7 -26 callsubr
            return
          </CharString>
          <CharString index="129">
            5 0 vvcurveto
            -7 return
          </CharString>
          <CharString index="130">
            60 604 -20 return
          </CharString>
          <CharString index="131">
            -161 -149 -21 407 39 390 -20 hstemhm
            return
          </CharString>
          <CharString index="132">
            -83 0 43 332 41 return
          </CharString>
          <CharString index="133">
            hvcurveto
            -7 -31 rlineto
            0 40 return
          </CharString>
          <CharString index="134">
            33 104 33 hstem
            75 38 96 38 vstem
            113 return
          </CharString>
          <CharString index="135">
            230 rmoveto
            118 -52 84 return
          </CharString>
          <CharString index="136">
            -244 -20 32 -21 237 return
          </CharString>
          <CharString index="137">
            47 101 459 101 return
          </CharString>
        <CharString name=".notdef">
          -270 endchar
        </CharString>
        <CharString name=".null">
          -488 endchar
        </CharString>
        <CharString name="0041">
          -488 endchar
        </CharString>
        <CharString name="A">
          -50 callgsubr
          387 -20 hstemhm
          hintmask 10110000
          -88 callgsubr
          hintmask 01110000
          -38 callsubr
          hintmask 10110000
          -97 callsubr
          hintmask 01110000
          -37 callgsubr
          hintmask 10110000
          -103 callgsubr
          endchar
        </CharString>
        <CharString name="AE">
          369 -59 callsubr
          6 -20 hstemhm
          414 89 hintmask 10110100
          459 650 rmoveto
          hintmask 01101100
          -5 callgsubr
          hintmask 10110100
          6 38 23 2 24 hhcurveto
          hintmask 01110100
          -36 callgsubr
          hintmask 10110100
          -64 callsubr
          329 hlineto
          9 29 11 106 1 32 -36 6 rcurveline
          -7 -28 -29 -79 -19 -18 rrcurveto
          -215 264 135 hlineto
          16 12 -2 -13 5 hvcurveto
          7 -16 5 -43 0 vvcurveto
          38 4 rlineto
          -5 31 -3 42 21 vvcurveto
          21 3 42 5 31 vhcurveto
          -38 4 rlineto
          0 -5 -44 -7 -15 vhcurveto
          -14 -5 -12 -1 -16 hhcurveto
          -135 243 205 hlineto
          13 -17 15 -67 4 -24 37 6 rcurveline
          hintmask 10101100
          155 vlineto
          hintmask 10110100
          -4 -24 -37 -2 -21 hhcurveto
          -281 -47 rmoveto
          -243 -133 vlineto
          111 243 rlineto
          endchar
        </CharString>
        <CharString name="AEacute">
          369 -59 callsubr
          183 -20 hstemhm
          414 89 hintmask 01111100
          459 650 rmoveto
          -5 callgsubr
          hintmask 10111100
          6 38 23 2 24 hhcurveto
          hintmask 01111100
          -36 callgsubr
          hintmask 10111100
          -64 callsubr
          329 hlineto
          9 29 11 106 1 32 -36 6 rcurveline
          -7 -28 -29 -79 -19 -18 rrcurveto
          -215 264 135 hlineto
          16 12 -2 -13 5 hvcurveto
          7 -16 5 -43 0 vvcurveto
          38 4 rlineto
          -5 31 -3 42 21 vvcurveto
          21 3 42 5 31 vhcurveto
          -38 4 rlineto
          0 -5 -44 -7 -15 vhcurveto
          -14 -5 -12 -1 -16 hhcurveto
          -135 243 205 hlineto
          13 -17 15 -67 4 -24 37 6 rcurveline
          155 vlineto
          -4 -24 -37 -2 -21 hhcurveto
          -281 -47 rmoveto
          -243 -133 vlineto
          111 243 rlineto
          263 214 -96 callsubr
        </CharString>
        <CharString name="Aacute">
          -50 callgsubr
          546 -20 hstemhm
          hintmask 10110000
          -88 callgsubr
          hintmask 01110000
          -38 callsubr
          hintmask 10110000
          -97 callsubr
          hintmask 01110000
          -37 callgsubr
          hintmask 10110000
          -103 callgsubr
          222 530 -96 callsubr
        </CharString>
        <CharString name="Abreve">
          -50 callgsubr
          401 65 79 -20 hstemhm
          hintmask 10111000
          -88 callgsubr
          hintmask 01111000
          -38 callsubr
          hintmask 10111000
          -97 callsubr
          hintmask 01111000
          -37 callgsubr
          hintmask 10111000
          -103 callgsubr
          198 545 -91 callgsubr
        </CharString>
        <CharString name="Acircumflex">
          -50 callgsubr
          544 -20 hstemhm
          hintmask 10110000
          -88 callgsubr
          hintmask 01110000
          -38 callsubr
          hintmask 10110000
          -97 callsubr
          hintmask 01110000
          -37 callgsubr
          hintmask 10110000
          -103 callgsubr
          55 542 -93 callgsubr
        </CharString>
        <CharString name="Adieresis">
          -50 callgsubr
          400 105 hstemhm
          151 -8 callgsubr
          hintmask 10111100
          -88 callgsubr
          hintmask 01111100
          -38 callsubr
          hintmask 10111100
          -97 callsubr
          hintmask 01111100
          -37 callgsubr
          hintmask 10111100
          -103 callgsubr
          -56 452 -100 callgsubr
        </CharString>
        <CharString name="Agrave">
          -50 callgsubr
          546 -20 hstemhm
          hintmask 10110000
          -88 callgsubr
          hintmask 01110000
          -38 callsubr
          hintmask 10110000
          -97 callsubr
          hintmask 01110000
          -37 callgsubr
          hintmask 10110000
          -103 callgsubr
          -51 512 -73 callgsubr
        </CharString>
        <CharString name="Amacron">
          -50 callgsubr
          416 61 hstemhm
          hintmask 10110000
          -88 callgsubr
          hintmask 01110000
          -38 callsubr
          hintmask 10110000
          -97 callsubr
          hintmask 01110000
          -37 callgsubr
          hintmask 10110000
          -103 callgsubr
          -35 416 -60 callsubr
        </CharString>
        <CharString name="Aogonek">
          162 -240 50 211 -21 237 50 387 -20 hstem
          440 70 vstem
          510 -143 rmoveto
          53 50 52 39 35 vhcurveto
          15 -1 15 -2 16 -2 7 33 rcurveline
          -57 12 -6 7 -21 57 -215 573 rcurveline
          -21 -12 -30 -11 -25 -6 -199 -544 rcurveline
          -21 -57 -4 -7 -57 -12 7 -33 rcurveline
          -37 callgsubr
          27 46 -2 -6 41 hvcurveto
          6 -26 callsubr
          -37 6 -22 7 vhcurveto
          -17 5 -8 8 14 vvcurveto
          4 0 5 2 5 vhcurveto
          54 158 rlineto
          233 hlineto
          57 -158 rlineto
          2 -5 1 -5 -4 vvcurveto
          -13 -9 -9 -17 -5 vhcurveto
          -22 -7 -35 -7 callsubr
          6 -33 rlineto
          -38 callsubr
          25 hlineto
          -12 callgsubr
          -216 680 rmoveto
          5 38 7 -3 11 -42 88 -243 rlineto
          -198 hlineto
          endchar
        </CharString>
        <CharString name="Aring">
          -50 callgsubr
          394 33 104 33 hstemhm
          224 38 96 38 hintmask 10111110
          -88 callgsubr
          hintmask 01111110
          -38 callsubr
          hintmask 10111110
          -97 callsubr
          hintmask 01111110
          -37 callgsubr
          hintmask 10111110
          -103 callgsubr
          55 479 -85 callsubr
          endchar
        </CharString>
        <CharString name="Aringacute">
          -50 callgsubr
          394 33 104 33 158 -20 hstemhm
          224 38 96 38 hintmask 10111111
          -88 callgsubr
          hintmask 01111111
          -38 callsubr
          hintmask 10111111
          -97 callsubr
          hintmask 01111111
          -37 callgsubr
          hintmask 10111111
          -103 callgsubr
          55 479 -85 callsubr
          209 227 -96 callsubr
        </CharString>
        <CharString name="Atilde">
          -50 callgsubr
          446 24 43 -20 hstemhm
          hintmask 10111000
          -88 callgsubr
          hintmask 01111000
          -38 callsubr
          hintmask 10111000
          -97 callsubr
          hintmask 01111000
          -37 callgsubr
          hintmask 10111000
          -103 callgsubr
          27 446 -105 callgsubr
        </CharString>
        <CharString name="B">
          105 -8 40 -11 -21 324 42 253 39 -32 callsubr
          89 202 95 -55 55 -55 101 hintmask 10111001
          309 -8 rmoveto
          133 115 65 133 121 -94 46 -79 5 hvcurveto
          7 vlineto
          hintmask 10111010
          52 11 75 33 97 vvcurveto
          118 -114 30 -118 -75 -79 -12 7 -68 vhcurveto
          -7 -31 -45 callgsubr
          -17 vvcurveto
          -509 -88 callsubr
          hintmask 01111100
          -64 callsubr
          hintmask 10111010
          40 66 -8 33 hhcurveto
          -95 332 rmoveto
          87 hlineto
          99 56 -46 -98 -103 -72 -45 -78 -35 -57 10 39 hvcurveto
          531 vmoveto
          4 16 26 3 23 hhcurveto
          hintmask 10111100
          83 54 -37 -83 -85 -54 -48 -85 hvcurveto
          -63 hlineto
          endchar
        </CharString>
        <CharString name="C">
          172 -3 callsubr
          hstem
          47 101 vstem
          385 -16 rmoveto
          -95 callsubr
          -195 143 -120 195 hvcurveto
          endchar
        </CharString>
        <CharString name="CR">
          -270 endchar
        </CharString>
        <CharString name="Cacute">
          172 -3 callsubr
          167 -20 hstem
          47 101 vstem
          385 -16 rmoveto
          -95 callsubr
          -195 143 -120 195 hvcurveto
          134 833 -96 callsubr
        </CharString>
        <CharString name="Ccaron">
          172 -3 callsubr
          20 -20 170 -20 hstemhm
          47 101 hintmask 11011000
          385 -16 rmoveto
          -95 callsubr
          -195 143 -120 195 hvcurveto
          -33 704 rmoveto
          hintmask 10111000
          -91 callsubr
        </CharString>
        <CharString name="Ccedilla">
          172 -4 callsubr
          55 46 590 46 hstemhm
          47 101 241 53 hintmask 10111100
          295 -83 callgsubr
          hintmask 01111100
          52 -37 30 -40 vhcurveto
          17 55 rlineto
          3 hlineto
          -95 callsubr
          -180 121 -115 171 -17 hvcurveto
          endchar
        </CharString>
        <CharString name="Ccircumflex">
          172 -3 callsubr
          -46 211 hstemhm
          47 101 hintmask 11010000
          385 -16 rmoveto
          -95 callsubr
          -195 143 -120 195 hvcurveto
          -33 845 rmoveto
          -17 -13 -78 -101 -7 -13 28 -21 rcurveline
          115 90 115 -90 28 21 -7 13 -78 101 -17 13 rlinecurve
          hintmask 10110000
          -90 callgsubr
        </CharString>
        <CharString name="Cdot">
          172 -3 callsubr
          32 105 hstem
          47 101 190 111 vstem
          385 -16 rmoveto
          -95 callsubr
          -195 143 -120 195 hvcurveto
          -47 766 -84 callsubr
          endchar
        </CharString>
        <CharString name="D">
          262 -8 44 -15 -21 615 45 -32 callsubr
          89 388 101 hintmask 10111000
          -63 callsubr
          hintmask 01111000
          5 45 42 -62 callsubr
          hintmask 10111000
          40 66 -8 81 hhcurveto
          endchar
        </CharString>
        <CharString name="Dcaron">
          262 -8 44 -15 -21 615 45 0 26 150 -56 callsubr
          388 101 hintmask 10101110
          -63 callsubr
          hintmask 01101110
          5 45 42 -62 callsubr
          hintmask 10011110
          40 66 -8 81 hhcurveto
          -69 696 rmoveto
          -91 callsubr
        </CharString>
        <CharString name="Dcroat">
          -75 callsubr
        </CharString>
        <CharString name="E">
          95 -59 callsubr
          9 -56 callsubr
          hintmask 10110100
          214 312 rmoveto
          150 hlineto
          16 12 -2 -13 5 hvcurveto
          7 -16 5 -43 0 vvcurveto
          38 4 rlineto
          -5 31 -3 42 21 vvcurveto
          21 3 42 5 31 vhcurveto
          -38 4 rlineto
          0 -5 -44 -7 -15 vhcurveto
          -14 -5 -12 -1 -16 hhcurveto
          -150 243 220 hlineto
          13 -17 15 -67 4 -24 37 6 rcurveline
          4 57 0 49 -4 49 rrcurveto
          -4 -25 -36 -2 -21 hhcurveto
          -251 hlineto
          hintmask 01101100
          -94 callsubr
          hintmask 10110100
          -84 callgsubr
          endchar
        </CharString>
        <CharString name="Eacute">
          95 -59 callsubr
          183 -56 callsubr
          hintmask 01111100
          -107 callsubr
          hintmask 10111100
          -84 callgsubr
          206 769 -96 callsubr
        </CharString>
        <CharString name="Ebreve">
          95 -59 callsubr
          38 65 79 -56 callsubr
          hintmask 01111110
          -107 callsubr
          hintmask 10111110
          -84 callgsubr
          182 784 -91 callgsubr
        </CharString>
        <CharString name="Ecaron">
          95 -59 callsubr
          0 36 150 -56 callsubr
          hintmask 01110110
          -107 callsubr
          hintmask 10101110
          -84 callgsubr
          39 640 rmoveto
          -91 callsubr
        </CharString>
        <CharString name="Ecircumflex">
          95 -59 callsubr
          -47 228 -32 callsubr
          89 hintmask 01110100
          -107 callsubr
          hintmask 10101100
          -84 callgsubr
          39 781 -93 callgsubr
        </CharString>
        <CharString name="Edieresis">
          95 -59 callsubr
          36 105 -32 callsubr
          89 -72 111 81 105 hintmask 01111101
          -107 callsubr
          hintmask 10111101
          -84 callgsubr
          hintmask 10111011
          -72 690 -100 callgsubr
        </CharString>
        <CharString name="Edot">
          95 -59 callsubr
          48 105 -32 callsubr
          89 25 111 hintmask 01111110
          -107 callsubr
          hintmask 10111110
          -84 callgsubr
          25 702 -84 callsubr
          endchar
        </CharString>
        <CharString name="Egrave">
          95 -59 callsubr
          183 -56 callsubr
          hintmask 01111100
          -107 callsubr
          hintmask 10111100
          -84 callgsubr
          -67 751 -73 callgsubr
        </CharString>
        <CharString name="Emacron">
          95 -59 callsubr
          53 61 -32 callsubr
          89 hintmask 01111100
          -107 callsubr
          hintmask 10111100
          -84 callgsubr
          -51 655 -60 callsubr
        </CharString>
        <CharString name="Eng">
          276 -10 callgsubr
          650 -20 29 -20 -32 callsubr
          66 387 79 -66 66 hintmask 11011100
          578 -5 rmoveto
          -79 -39 -74 -68 -77 vhcurveto
          24 -25 72 71 rlineto
          85 93 5 54 92 vvcurveto
          533 vlineto
          16 3 8 14 6 -44 callgsubr
          39 -68 callsubr
          hintmask 11101100
          -5 -41 -36 -4 -27 hhcurveto
          hintmask 11011010
          -85 callgsubr
          hintmask 11101100
          -5 -23 -36 -4 -21 hhcurveto
          hintmask 11011100
          -19 -43 -16 callsubr
          41 -5 18 -95 callgsubr
          -15 callsubr
          35 -87 callgsubr
          491 vlineto
          5 4 rlineto
          0 19 -41 17 -24 vhcurveto
          243 -329 rlineto
          63 -86 40 -85 -12 vvcurveto
          endchar
        </CharString>
        <CharString name="Eogonek">
          95 -240 50 190 48 264 48 243 47 9 -56 callsubr
          96 70 hintmask 11110110
          380 -143 rmoveto
          54 53 54 40 35 vhcurveto
          41 hlineto
          9 29 11 106 1 32 -36 6 rcurveline
          -7 -28 -29 -79 -19 -18 rrcurveto
          -230 264 150 hlineto
          16 12 -2 -13 5 hvcurveto
          7 -16 5 -43 0 vvcurveto
          38 4 rlineto
          -5 31 -3 42 21 vvcurveto
          21 3 42 5 31 vhcurveto
          -38 4 rlineto
          0 -5 -44 -7 -15 vhcurveto
          -14 -5 -12 -1 -16 hhcurveto
          -150 243 220 hlineto
          13 -17 15 -67 4 -24 37 6 rcurveline
          4 57 0 49 -4 49 rrcurveto
          -4 -25 -36 -2 -21 hhcurveto
          -251 hlineto
          hintmask 11101110
          -94 callsubr
          -64 callsubr
          262 hlineto
          -69 -53 -53 -38 -60 -82 callsubr
          endchar
        </CharString>
        <CharString name="Eth">
          -75 callsubr
        </CharString>
        <CharString name="Euro">
          104 -16 44 211 42 53 42 190 44 hstem
          17 376 rmoveto
          -8 -42 rlineto
          65 hlineto
          -2 -17 -2 -18 -18 vvcurveto
          -67 hlineto
          -8 -42 rlineto
          76 hlineto
          -159 15 116 -96 154 hhcurveto
          61 72 16 14 39 hvcurveto
          9 46 9 59 1 48 -31 4 rcurveline
          -98 -24 -39 -45 -88 hhcurveto
          -107 -70 95 116 -18 hvcurveto
          165 hlineto
          8 42 rlineto
          -178 20 hlineto
          11 0 11 1 11 vhcurveto
          183 hlineto
          8 42 rlineto
          -187 hlineto
          116 18 62 74 102 hhcurveto
          41 45 -8 -16 27 hvcurveto
          15 -25 10 -49 6 -52 31 6 rcurveline
          12 45 8 66 5 48 rrcurveto
          13 -59 -56 16 -73 hhcurveto
          -148 -102 -94 -140 -33 hvcurveto
          endchar
        </CharString>
        <CharString name="F">
          24 -72 callsubr
          308 48 247 47 9 -56 callsubr
          hintmask 10110100
          345 308 rmoveto
          16 12 -2 -13 5 hvcurveto
          7 -16 5 -43 0 vvcurveto
          38 4 rlineto
          -5 31 -3 42 21 vvcurveto
          21 3 42 5 31 vhcurveto
          -38 4 rlineto
          0 -5 -44 -7 -15 vhcurveto
          -14 -5 -12 -1 -16 hhcurveto
          -131 247 209 hlineto
          14 -17 15 -69 5 -24 37 6 rcurveline
          2 41 1 83 -4 33 rrcurveto
          -4 -25 -36 -2 -21 hhcurveto
          -241 hlineto
          hintmask 10101100
          -26 -45 4 -48 callgsubr
          -33 23 -3 21 -5 15 -5 rlinecurve
          15 -5 1 -8 -17 vvcurveto
          -514 -88 callsubr
          hintmask 01110100
          -47 callsubr
          hintmask 10110100
          30 58 -87 callgsubr
          231 vlineto
          endchar
        </CharString>
        <CharString name="G">
          202 -3 callsubr
          hstem
          47 101 366 89 vstem
          -102 callsubr
          endchar
        </CharString>
        <CharString name="Gbreve">
          202 -3 callsubr
          22 65 79 -20 hstem
          47 101 366 89 vstem
          -102 callsubr
          -19 630 -91 callgsubr
        </CharString>
        <CharString name="Gcircumflex">
          202 -3 callsubr
          -46 211 hstemhm
          47 101 366 89 hintmask 11011000
          -102 callsubr
          -162 627 rmoveto
          -17 -13 -78 -101 -7 -13 28 -21 rcurveline
          115 90 115 -90 28 21 -7 13 -78 101 -17 13 rlinecurve
          hintmask 10111000
          -90 callgsubr
        </CharString>
        <CharString name="Gcommaaccent">
          202 -2 callgsubr
          25 0 46 590 46 hstemhm
          47 101 237 66 63 89 hintmask 10111110
          -102 callsubr
          -187 -316 -59 callgsubr
          hintmask 11011110
          38 -45 26 -32 2 vhcurveto
          -17 -11 -27 -30 -10 -16 rrcurveto
          endchar
        </CharString>
        <CharString name="Gdot">
          202 -3 callsubr
          32 105 hstem
          47 101 190 111 65 89 vstem
          -102 callsubr
          -176 548 -84 callsubr
          endchar
        </CharString>
        <CharString name="H">
          307 -72 callsubr
          311 53 286 -20 28 -56 callsubr
          367 89 hintmask 10101110
          581 364 rmoveto
          -367 218 hlineto
          16 -26 callgsubr
          49 -34 callsubr
          hintmask 10110110
          -5 -46 -46 -3 -28 hhcurveto
          hintmask 10101110
          -28 callgsubr
          hintmask 01101110
          5 46 40 3 28 hhcurveto
          hintmask 10101110
          -60 callgsubr
          hintmask 01101110
          5 46 46 3 28 hhcurveto
          hintmask 10101110
          -30 callsubr
          514 vlineto
          -82 callgsubr
          40 -68 callsubr
          hintmask 10110110
          -5 -46 -40 -3 -28 hhcurveto
          hintmask 10101110
          -30 callgsubr
          endchar
        </CharString>
        <CharString name="Hbar">
          307 -72 callsubr
          311 53 120 43 -43 166 8 -56 callsubr
          367 89 hintmask 10110111
          54 527 rmoveto
          -8 -43 rlineto
          79 -416 hlineto
          -17 -1 -6 -101 callgsubr
          hintmask 01110111
          5 46 40 3 28 hhcurveto
          hintmask 10110111
          -60 callgsubr
          hintmask 01110111
          5 46 46 3 28 hhcurveto
          hintmask 10110111
          -30 callsubr
          416 70 vlineto
          8 43 rlineto
          -78 55 hlineto
          -82 callgsubr
          40 -68 callsubr
          hintmask 10101011
          -5 -46 -40 -3 -28 hhcurveto
          hintmask 10110111
          -30 callgsubr
          -53 -367 55 vlineto
          16 -26 callgsubr
          49 -34 callsubr
          hintmask 10101011
          -5 -46 -46 -3 -28 hhcurveto
          hintmask 10110111
          -28 -40 -35 callsubr
          -6 -17 vvcurveto
          -55 vlineto
          456 -163 rmoveto
          -367 120 367 hlineto
          endchar
        </CharString>
        <CharString name="Hcircumflex">
          307 -72 callsubr
          311 53 286 -20 201 -56 callsubr
          367 89 hintmask 10111110
          581 364 rmoveto
          -367 218 hlineto
          16 -26 callgsubr
          49 -34 callsubr
          -5 -46 -46 -3 -28 hhcurveto
          -28 callgsubr
          hintmask 01111110
          5 46 40 3 28 hhcurveto
          hintmask 10111110
          -60 callgsubr
          hintmask 01111110
          5 46 46 3 28 hhcurveto
          hintmask 10111110
          -30 callsubr
          514 vlineto
          -82 callgsubr
          40 -68 callsubr
          -5 -46 -40 -3 -28 hhcurveto
          -30 callgsubr
          -224 249 -93 callgsubr
        </CharString>
        <CharString name="I">
          -149 -58 callgsubr
          28 -56 callsubr
          hintmask 10011000
          8 callsubr
          hintmask 10101000
          -5 -42 -45 -17 callsubr
          hintmask 10011000
          -104 callsubr
          -514 vlineto
          -17 -1 -6 -101 callgsubr
          hintmask 01011000
          -64 callsubr
          hintmask 10011000
          -83 callsubr
          endchar
        </CharString>
        <CharString name="IJ">
          154 -10 callgsubr
          650 -20 28 -56 callsubr
          232 89 hintmask 11011100
          8 callsubr
          hintmask 11101100
          -5 -42 -45 -17 callsubr
          hintmask 11011100
          -104 callsubr
          -514 vlineto
          -17 -1 -6 -101 callgsubr
          -64 callsubr
          -83 callsubr
          321 514 -80 callgsubr
          hintmask 11101100
          -5 -42 -45 -17 callsubr
          hintmask 11011100
          -104 callsubr
          -582 vlineto
          -81 -39 -75 -68 -79 vhcurveto
          24 -25 72 71 rlineto
          95 93 5 54 92 vvcurveto
          endchar
        </CharString>
        <CharString name="Iacute">
          -149 -58 callgsubr
          203 -56 callsubr
          hintmask 10111000
          8 callsubr
          -5 -42 -45 -17 callsubr
          -104 callsubr
          -514 vlineto
          -17 -1 -6 -101 callgsubr
          hintmask 01111000
          5 42 45 3 26 hhcurveto
          hintmask 10111000
          -83 callsubr
          83 749 -96 callsubr
        </CharString>
        <CharString name="Ibreve">
          -149 -58 callgsubr
          58 65 79 -56 callsubr
          hintmask 10111100
          8 callsubr
          -5 -42 -45 -17 callsubr
          -104 callsubr
          -514 vlineto
          -17 -1 -6 -101 callgsubr
          hintmask 01111100
          -64 callsubr
          hintmask 10111100
          -83 callsubr
          59 764 -91 callgsubr
        </CharString>
        <CharString name="Icircumflex">
          -149 -58 callgsubr
          201 -56 callsubr
          hintmask 10111000
          8 callsubr
          -5 -42 -45 -17 callsubr
          -104 callsubr
          -514 vlineto
          -17 -1 -6 -101 callgsubr
          hintmask 01111000
          5 42 45 3 26 hhcurveto
          hintmask 10111000
          -83 callsubr
          -84 761 -93 callgsubr
        </CharString>
        <CharString name="Idieresis">
          -149 -58 callgsubr
          56 105 hstemhm
          19 111 -5 89 -3 111 hintmask 10110100
          8 callsubr
          -5 -42 -45 -17 callsubr
          -104 callsubr
          -514 vlineto
          -17 -1 -6 -101 callgsubr
          hintmask 01111010
          -64 callsubr
          hintmask 10110100
          -83 callsubr
          hintmask 10111010
          -195 670 -100 callgsubr
        </CharString>
        <CharString name="Idot">
          -149 -58 callgsubr
          68 105 -32 callsubr
          89 -89 102 hintmask 10111000
          8 callsubr
          -5 -42 -45 -17 callsubr
          -104 callsubr
          -514 vlineto
          -17 -1 -6 -101 callgsubr
          hintmask 01111000
          5 42 45 3 26 hhcurveto
          hintmask 10111000
          -83 callsubr
          -98 682 rmoveto
          -30 23 -22 32 vhcurveto
          hintmask 10110100
          33 23 22 30 30 -23 23 -33 -33 -22 -23 -30 hvcurveto
          endchar
        </CharString>
        <CharString name="Igrave">
          -149 -58 callgsubr
          203 -56 callsubr
          hintmask 10111000
          8 callsubr
          -5 -42 -45 -17 callsubr
          -104 callsubr
          -514 vlineto
          -17 -1 -6 -101 callgsubr
          hintmask 01111000
          5 42 45 3 26 hhcurveto
          hintmask 10111000
          -83 callsubr
          -190 731 -73 callgsubr
        </CharString>
        <CharString name="Imacron">
          -149 -58 callgsubr
          73 61 -32 callsubr
          89 hintmask 10111000
          65 703 31 callgsubr
          138 -182 -80 callgsubr
          -5 -42 -45 -17 callsubr
          -104 callsubr
          -514 vlineto
          -17 -1 -6 -101 callgsubr
          hintmask 01111000
          5 42 45 3 26 hhcurveto
          hintmask 10111000
          -83 callsubr
          endchar
        </CharString>
        <CharString name="Iogonek">
          -149 -240 50 211 -21 650 -20 28 -20 hstemhm
          76 70 -21 89 hintmask 11011000
          146 -143 rmoveto
          53 50 52 39 35 vhcurveto
          16 -1 17 -2 16 -2 7 33 rcurveline
          0 -42 5 -19 8 vhcurveto
          hintmask 11010100
          -15 7 -1 6 17 vvcurveto
          514 vlineto
          -82 callgsubr
          42 -68 callsubr
          hintmask 11101000
          -5 -42 -45 -17 callsubr
          hintmask 11010100
          -104 callsubr
          -514 vlineto
          -17 -1 -6 -101 callgsubr
          -64 callsubr
          27 hlineto
          hintmask 11011000
          -12 callgsubr
          endchar
        </CharString>
        <CharString name="Itilde">
          -149 -58 callgsubr
          103 24 43 -56 callsubr
          hintmask 10111100
          8 callsubr
          -5 -42 -45 -17 callsubr
          -104 callsubr
          -514 vlineto
          -17 -1 -6 -101 callgsubr
          hintmask 01111100
          -64 callsubr
          hintmask 10111100
          -83 callsubr
          -112 665 -105 callgsubr
        </CharString>
        <CharString name="J">
          -185 -6 callgsubr
          910 -20 28 -20 hstemhm
          107 89 hintmask 10110000
          196 -41 callsubr
          hintmask 11010000
          -5 -42 -45 -17 callsubr
          hintmask 10110000
          -104 callsubr
          -582 vlineto
          -81 -39 -75 -68 -79 vhcurveto
          24 -25 72 71 rlineto
          95 93 5 54 92 vvcurveto
          endchar
        </CharString>
        <CharString name="Jcircumflex">
          -185 -6 callgsubr
          910 -20 201 -20 hstem
          107 89 vstem
          196 -41 callsubr
          -5 -42 -45 -17 callsubr
          -104 callsubr
          -582 vlineto
          -81 -39 -75 -68 -79 vhcurveto
          24 -25 72 71 rlineto
          95 93 5 54 92 vvcurveto
          -92 779 -93 callgsubr
        </CharString>
        <CharString name="K">
          180 -58 callgsubr
          28 -56 callsubr
          hintmask 10011000
          -1 callgsubr
          hintmask 01011000
          6 38 50 2 41 hhcurveto
          hintmask 10011000
          -18 callsubr
          hintmask 10101000
          -6 -34 -24 -2 -29 hhcurveto
          hintmask 10011000
          -29 -36 2 6 -35 -42 callgsubr
          rlineto
          26 -4 30 -6 -13 vvcurveto
          -7 -2 -5 -13 -14 vhcurveto
          -221 -231 rlineto
          -14 237 rmoveto
          -82 callgsubr
          35 -68 callsubr
          hintmask 10101000
          -5 -42 -38 -17 callsubr
          hintmask 10011000
          -104 callsubr
          -514 vlineto
          -17 -1 -6 -101 callgsubr
          hintmask 01011000
          -47 callsubr
          hintmask 10011000
          7 callgsubr
          endchar
        </CharString>
        <CharString name="Kcommaaccent">
          180 -10 callgsubr
          650 -20 28 -56 callsubr
          117 66 hintmask 11011100
          -1 callgsubr
          6 38 50 2 41 hhcurveto
          -18 callsubr
          hintmask 11101100
          -6 -34 -24 -2 -29 hhcurveto
          hintmask 11011100
          -29 -36 2 6 -35 -42 callgsubr
          rlineto
          26 -4 30 -6 -13 vvcurveto
          -7 -2 -5 -13 -14 vhcurveto
          -221 -231 rlineto
          -14 237 rmoveto
          -82 callgsubr
          35 -68 callsubr
          hintmask 11101100
          -5 -42 -38 -17 callsubr
          hintmask 11011100
          -104 callsubr
          -514 vlineto
          -17 -1 -6 -101 callgsubr
          5 46 49 3 28 hhcurveto
          7 callgsubr
          59 -189 rmoveto
          -100 callsubr
        </CharString>
        <CharString name="L">
          11 callsubr
          28 -56 callsubr
          hintmask 10011000
          -63 callgsubr
          hintmask 10101000
          13 callgsubr
          hintmask 01011000
          -77 callsubr
          hintmask 10011000
          -66 callsubr
          hlineto
          endchar
        </CharString>
        <CharString name="Lacute">
          11 callsubr
          203 -56 callsubr
          hintmask 01111000
          -63 callgsubr
          13 callgsubr
          -77 callsubr
          hintmask 10111000
          -66 callsubr
          hlineto
          79 769 -96 callsubr
        </CharString>
        <CharString name="Lcaron">
          11 callsubr
          88 -56 callsubr
          212 66 hintmask 01111100
          -63 callgsubr
          13 callgsubr
          -77 callsubr
          hintmask 10111100
          -66 callsubr
          hlineto
          154 597 rmoveto
          -100 callsubr
        </CharString>
        <CharString name="Lcommaaccent">
          40 -2 callgsubr
          41 0 48 602 -20 28 -56 callsubr
          81 66 hintmask 11001110
          -63 callgsubr
          hintmask 11010110
          13 callgsubr
          hintmask 11001110
          -77 callsubr
          5 51 33 -62 callsubr
          329 hlineto
          8 28 15 107 1 31 -34 7 rcurveline
          hintmask 10101110
          -8 -28 -35 -79 -18 -18 rrcurveto
          -211 hlineto
          23 -162 -59 callgsubr
          hintmask 11001110
          38 -45 26 -32 2 vhcurveto
          -17 -11 -27 -30 -10 -16 rrcurveto
          endchar
        </CharString>
        <CharString name="Ldot">
          40 0 48 -35 -21 314 105 239 -20 28 -56 callsubr
          129 111 hintmask 10101110
          -63 callgsubr
          hintmask 10110110
          13 callgsubr
          hintmask 01101110
          -77 callsubr
          hintmask 10101110
          -66 callsubr
          hlineto
          129 310 -84 callsubr
          endchar
        </CharString>
        <CharString name="Lslash">
          11 callsubr
          28 -56 callsubr
          hintmask 10011000
          -63 callgsubr
          hintmask 10101000
          13 callgsubr
          hintmask 01011000
          -28 -49 -35 callsubr
          -7 -17 vvcurveto
          -245 vlineto
          -100 -53 11 -43 89 47 rlineto
          -218 vlineto
          -17 -1 -8 -98 callgsubr
          -32 rlineto
          hintmask 10011000
          -66 callsubr
          287 hlineto
          177 95 -11 43 -166 -89 rlineto
          endchar
        </CharString>
        <CharString name="M">
          438 4 -21 38 -21 650 -20 29 -20 hstemhm
          118 62 535 90 hintmask 01011100
          -13 callgsubr
          hintmask 01101100
          -5 -23 -54 -4 -21 hhcurveto
          hintmask 01011100
          -20 -38 1 8 -52 callsubr
          3 callsubr
          2 -9 -1 -16 -37 -513 rcurveline
          -1 -17 -2 -7 -14 -7 rrcurveto
          -19 -8 -35 -5 -57 callsubr
          -33 rlineto
          5 42 28 -62 callsubr
          27 43 -34 callgsubr
          35 rlineto
          0 -53 7 -18 8 vhcurveto
          -15 7 -3 6 1 17 35 491 rcurveline
          7 5 rlineto
          0 10 -43 9 -23 vhcurveto
          149 -373 rlineto
          hintmask 10011100
          21 -52 28 -94 0 vvcurveto
          hintmask 01011100
          -61 callgsubr
          hintmask 01101100
          -8 -42 -43 -1 -20 hhcurveto
          hintmask 01011100
          25 callgsubr
          endchar
        </CharString>
        <CharString name="Macute">
          438 4 -21 38 -21 650 -20 203 -20 hstemhm
          118 62 535 90 hintmask 01111100
          -13 callgsubr
          -5 -23 -54 -4 -21 hhcurveto
          -20 -38 1 8 -52 callsubr
          3 callsubr
          2 -9 -1 -16 -37 -513 rcurveline
          -1 -17 -2 -7 -14 -7 rrcurveto
          -19 -8 -35 -5 -57 callsubr
          -33 rlineto
          5 42 28 -62 callsubr
          27 43 -34 callgsubr
          35 rlineto
          0 -53 7 -18 8 vhcurveto
          -15 7 -3 6 1 17 35 491 rcurveline
          7 5 rlineto
          0 10 -43 9 -23 vhcurveto
          149 -373 rlineto
          hintmask 10111100
          21 -52 28 -94 0 vvcurveto
          hintmask 01111100
          -61 callgsubr
          -8 -42 -43 -1 -20 hhcurveto
          25 callgsubr
          -55 232 -96 callsubr
        </CharString>
        <CharString name="N">
          2 callsubr
          29 -20 -32 callsubr
          66 400 66 hintmask 10011100
          191 568 rmoveto
          5 4 rlineto
          0 19 -41 17 -24 vhcurveto
          243 -329 rlineto
          80 -108 35 -84 0 vvcurveto
          75 15 rlineto
          0 -8 103 89 vvcurveto
          390 vlineto
          16 3 8 14 6 -44 callgsubr
          39 -68 callsubr
          hintmask 10101100
          -5 -41 -36 -4 -27 hhcurveto
          hintmask 10011100
          -85 callgsubr
          hintmask 10101100
          -5 -23 -36 -4 -21 hhcurveto
          hintmask 01011100
          -19 -43 -16 callsubr
          41 -5 18 -95 callgsubr
          -15 callsubr
          35 -87 callgsubr
          endchar
        </CharString>
        <CharString name="Nacute">
          2 callsubr
          203 -20 -32 callsubr
          66 400 66 hintmask 10111100
          -92 callsubr
          hintmask 01111100
          -15 callsubr
          35 -87 callgsubr
          327 740 -96 callsubr
        </CharString>
        <CharString name="Ncaron">
          2 callsubr
          206 -20 -32 callsubr
          66 400 66 hintmask 10111100
          -92 callsubr
          hintmask 01111100
          -15 callsubr
          35 -87 callgsubr
          160 611 rmoveto
          -91 callsubr
        </CharString>
        <CharString name="Ncommaaccent">
          276 -10 callgsubr
          650 -20 29 -20 -32 callsubr
          66 201 66 133 66 hintmask 11011110
          191 568 rmoveto
          5 4 rlineto
          0 19 -41 17 -24 vhcurveto
          243 -329 rlineto
          80 -108 35 -84 0 vvcurveto
          75 15 rlineto
          0 -8 103 89 vvcurveto
          390 vlineto
          16 3 8 14 6 -44 callgsubr
          39 -68 callsubr
          hintmask 11101110
          -5 -41 -36 -4 -27 hhcurveto
          hintmask 11011110
          -85 callgsubr
          hintmask 11101110
          -5 -23 -36 -4 -21 hhcurveto
          hintmask 11011110
          -19 -43 -16 callsubr
          41 -5 18 -95 callgsubr
          -15 callsubr
          35 -87 callgsubr
          143 -191 rmoveto
          -100 callsubr
        </CharString>
        <CharString name="Ntilde">
          2 callsubr
          104 24 43 -20 -32 callsubr
          66 400 66 hintmask 10111110
          -92 callsubr
          hintmask 01111110
          -15 callsubr
          35 -87 callgsubr
          132 657 -105 callgsubr
        </CharString>
        <CharString name="O">
          -40 callsubr
          hstem
          30 callsubr
          vstem
          -104 callgsubr
          endchar
        </CharString>
        <CharString name="OE">
          466 -16 48 -32 48 264 48 243 47 -32 48 hstemhm
          58 101 352 89 hintmask 10101110
          371 666 rmoveto
          -194 -119 -154 -203 -203 124 -122 194 23 24 3 5 20 hvcurveto
          hintmask 01110110
          -64 callsubr
          329 hlineto
          9 29 11 106 1 32 -36 6 rcurveline
          -7 -28 -29 -79 -19 -18 rrcurveto
          -215 264 135 hlineto
          16 12 -2 -13 5 hvcurveto
          7 -16 5 -43 0 vvcurveto
          38 4 rlineto
          -5 31 -3 42 21 vvcurveto
          21 3 42 5 31 vhcurveto
          -38 4 rlineto
          0 -5 -44 -7 -15 vhcurveto
          -14 -5 -12 -1 -16 hhcurveto
          -135 243 205 hlineto
          13 -17 15 -67 4 -24 37 6 rcurveline
          155 vlineto
          -4 -24 -37 -2 -21 hhcurveto
          -236 hlineto
          -26 -45 4 -37 callsubr
          hintmask 10101110
          5 -22 -25 2 -25 hhcurveto
          14 -634 rmoveto
          -156 -70 23 callgsubr
          151 60 122 143 64 48 -23 -38 37 hvcurveto
          -483 vlineto
          -27 -32 -41 -15 -53 hhcurveto
          endchar
        </CharString>
        <CharString name="Oacute">
          -40 callsubr
          167 -20 hstem
          30 callsubr
          vstem
          -104 callgsubr
          353 472 -96 callsubr
        </CharString>
        <CharString name="Obreve">
          -40 callsubr
          22 65 79 -20 hstem
          30 callsubr
          vstem
          -104 callgsubr
          329 487 -91 callgsubr
        </CharString>
        <CharString name="Ocircumflex">
          -40 callsubr
          -48 213 hstemhm
          30 callsubr
          hintmask 11011000
          -104 callgsubr
          186 484 rmoveto
          -17 -13 -78 -101 -7 -13 28 -21 rcurveline
          115 90 115 -90 28 21 -7 13 -78 101 -17 13 rlinecurve
          hintmask 10111000
          -90 callgsubr
        </CharString>
        <CharString name="Odieresis">
          -40 callsubr
          20 105 hstem
          47 101 75 -8 callgsubr
          81 101 vstem
          -104 callgsubr
          75 393 -100 callgsubr
        </CharString>
        <CharString name="Ograve">
          -40 callsubr
          167 -20 hstem
          30 callsubr
          vstem
          -104 callgsubr
          80 454 -73 callgsubr
        </CharString>
        <CharString name="Ohorn">
          -40 callsubr
          111 -20 hstemhm
          30 callsubr
          -65 65 hintmask 11110100
          47 309 rmoveto
          -203 130 -122 203 203 125 154 203 106 -36 85 -63 56 vhcurveto
          58 19 50 34 67 -35 callgsubr
          21 -5 23 -18 -18 vvcurveto
          -33 -41 -19 -27 -9 vhcurveto
          35 -53 -68 19 -79 hhcurveto
          -203 -125 -154 -203 hvcurveto
          101 36 rmoveto
          151 67 122 151 vhcurveto
          hintmask 11111000
          165 76 -148 -165 -46 callgsubr
          -165 -76 23 callgsubr
          hvcurveto
          endchar
        </CharString>
        <CharString name="Ohungarumlaut">
          -40 callsubr
          hstem
          30 callsubr
          vstem
          -104 callgsubr
          418 494 -64 callgsubr
          -159 17 -64 callgsubr
          endchar
        </CharString>
        <CharString name="Omacron">
          -40 callsubr
          37 61 hstem
          30 callsubr
          vstem
          -104 callgsubr
          96 358 -60 callsubr
        </CharString>
        <CharString name="Oslash">
          267 -16 48 -42 -21 649 48 31 -70 callsubr
          endchar
        </CharString>
        <CharString name="Oslashacute">
          267 -16 48 -42 -21 649 48 167 -70 callsubr
          352 472 -96 callsubr
        </CharString>
        <CharString name="Otilde">
          -40 callsubr
          67 24 43 -20 hstem
          30 callsubr
          vstem
          -104 callgsubr
          158 388 -105 callgsubr
        </CharString>
        <CharString name="P">
          49 -72 callsubr
          273 37 309 39 -32 callsubr
          89 208 99 hintmask 10111100
          214 612 rmoveto
          3 13 27 4 17 hhcurveto
          91 60 -46 -112 -103 -58 -48 -103 -11 -15 2 2 -7 hvcurveto
          16 callgsubr
          113 110 88 113 138 -106 46 -138 -82 -81 -13 8 -57 hvcurveto
          -7 -31 -45 callgsubr
          -16 vvcurveto
          -510 vlineto
          -39 callsubr
          endchar
        </CharString>
        <CharString name="Q">
          267 -213 78 44 121 -45 45 588 48 hstemhm
          30 callsubr
          hintmask 11011100
          47 309 rmoveto
          -198 123 -120 193 -7 vhcurveto
          -27 -13 -64 -59 -21 -27 28 -23 rcurveline
          16 15 38 31 25 51 75 -122 77 hhcurveto
          39 29 23 70 63 hvcurveto
          -23 28 rlineto
          -24 -20 -27 -19 -26 hhcurveto
          hintmask 10111100
          -63 -83 102 18 -57 hvcurveto
          196 6 120 151 199 vvcurveto
          203 -130 122 -203 -203 -125 -154 -203 vhcurveto
          101 36 rmoveto
          151 67 122 151 165 76 -148 -165 -153 -65 -122 -153 -165 -76 150 165 vhcurveto
          endchar
        </CharString>
        <CharString name="R">
          -5 callsubr
          -32 callsubr
          89 208 99 hintmask 10011110
          -69 callsubr
          hintmask 00111110
          -47 callsubr
          hintmask 10011110
          30 58 -87 callgsubr
          212 43 vlineto
          21 9 -3 -3 6 hvcurveto
          20 -9 10 -20 23 -37 rrcurveto
          hintmask 01011110
          -81 callsubr
          endchar
        </CharString>
        <CharString name="Racute">
          -5 callsubr
          175 -56 callsubr
          208 99 hintmask 10011111
          -69 callsubr
          hintmask 00111111
          -47 callsubr
          hintmask 10011111
          30 58 -87 callgsubr
          212 43 vlineto
          21 9 -3 -3 6 hvcurveto
          20 -9 10 -20 23 -37 rrcurveto
          hintmask 01011111
          -81 callsubr
          280 238 -96 callsubr
        </CharString>
        <CharString name="Rcaron">
          -5 callsubr
          0 28 150 -56 callsubr
          208 99 hintmask 1001101110000000
          -69 callsubr
          hintmask 0011101110000000
          -47 callsubr
          hintmask 1001101110000000
          30 58 -87 callgsubr
          212 43 vlineto
          21 9 -3 -3 6 hvcurveto
          20 -9 10 -20 23 -37 rrcurveto
          hintmask 0101011110000000
          -81 callsubr
          113 109 rmoveto
          -91 callsubr
        </CharString>
        <CharString name="Rcommaaccent">
          161 -6 callgsubr
          275 -21 27 -21 289 42 288 39 -32 callsubr
          89 105 66 37 99 hintmask 10111111
          -69 callsubr
          -15 callsubr
          58 -87 callgsubr
          212 43 vlineto
          21 9 -3 -3 6 hvcurveto
          20 -9 10 -20 23 -37 rrcurveto
          hintmask 11011111
          -81 callsubr
          136 -693 rmoveto
          -100 callsubr
        </CharString>
        <CharString name="S">
          36 -16 46 592 44 12 callgsubr
          hintmask 11101000
          -79 callgsubr
          hintmask 11011000
          -92 callgsubr
          endchar
        </CharString>
        <CharString name="Sacute">
          36 -16 46 592 44 167 -20 12 callgsubr
          hintmask 11110100
          -79 callgsubr
          hintmask 11101100
          -92 callgsubr
          155 787 -96 callsubr
        </CharString>
        <CharString name="Scaron">
          36 -16 46 592 44 20 -20 170 -20 12 callgsubr
          hintmask 11011010
          -79 callgsubr
          hintmask 11010110
          -92 callgsubr
          -12 658 rmoveto
          hintmask 10111010
          -91 callsubr
        </CharString>
        <CharString name="Scedilla">
          36 -4 callsubr
          55 46 592 44 hstemhm
          53 41 -24 84 114 53 56 92 hintmask 10111011
          174 -83 callgsubr
          hintmask 01110111
          52 -37 30 -40 vhcurveto
          17 57 rlineto
          120 10 88 65 126 vvcurveto
          97 -89 49 -83 45 vhcurveto
          -92 callgsubr
          hintmask 10111011
          -103 -44 74 88 -7 hvcurveto
          -37 -9 rlineto
          -3 -20 -1 -47 -38 vvcurveto
          -25 0 -21 2 -11 vhcurveto
          36 -16 69 -19 57 -2 rrcurveto
          endchar
        </CharString>
        <CharString name="Scircumflex">
          36 -16 46 592 44 -44 209 12 callgsubr
          hintmask 11010100
          -79 callgsubr
          hintmask 11001100
          -92 callgsubr
          -12 799 rmoveto
          -17 -13 -78 -101 -7 -13 28 -21 rcurveline
          115 90 115 -90 28 21 -7 13 -78 101 -17 13 rlinecurve
          hintmask 10110100
          -90 callgsubr
        </CharString>
        <CharString name="Scommaaccent">
          36 -2 callgsubr
          25 0 46 592 44 hstemhm
          53 41 -24 84 74 66 83 92 hintmask 10111011
          -79 callgsubr
          hintmask 10110111
          -92 callgsubr
          -78 -144 -59 callgsubr
          hintmask 11011011
          38 -45 26 -32 2 vhcurveto
          -17 -11 -27 -30 -10 -16 rrcurveto
          endchar
        </CharString>
        <CharString name="T">
          85 -72 callsubr
          603 17 callsubr
          hintmask 01101000
          286 hmoveto
          hintmask 10101000
          -25 callgsubr
          hintmask 10011000
          5 callsubr
          hintmask 10101000
          -11 callgsubr
          hintmask 10011000
          -43 callgsubr
          hintmask 10101000
          -56 callgsubr
          hintmask 01101000
          5 41 67 3 27 hhcurveto
          endchar
        </CharString>
        <CharString name="Tbar">
          85 -72 callsubr
          315 46 242 17 callsubr
          hintmask 01110100
          286 hmoveto
          hintmask 10110100
          15 callgsubr
          -14 6 -2 6 17 vvcurveto
          243 156 vlineto
          9 46 rlineto
          -165 242 167 hlineto
          9 -25 10 -72 2 -28 36 6 rcurveline
          hintmask 10101100
          5 callsubr
          hintmask 10110100
          -11 callgsubr
          hintmask 10101100
          -43 callgsubr
          hintmask 10110100
          2 28 10 72 9 25 rrcurveto
          167 -242 -156 hlineto
          -9 -46 rlineto
          165 -243 hlineto
          -17 -2 -6 -14 -6 vhcurveto
          -19 -9 -64 -8 0 vvcurveto
          8 -34 rlineto
          hintmask 01110100
          5 41 67 3 27 hhcurveto
          endchar
        </CharString>
        <CharString name="Tcaron">
          85 -72 callsubr
          603 47 0 36 150 -20 hstemhm
          242 89 hintmask 01101100
          286 hmoveto
          hintmask 10101100
          -25 callgsubr
          5 callsubr
          -11 callgsubr
          -43 callgsubr
          -56 callgsubr
          hintmask 01011100
          5 41 67 3 27 hhcurveto
          -41 688 rmoveto
          -91 callsubr
        </CharString>
        <CharString name="Tcedilla">
          85 -4 callsubr
          92 -21 603 17 callsubr
          -10 53 hintmask 10110010
          227 -83 callgsubr
          hintmask 01110100
          52 -37 30 -40 vhcurveto
          22 71 32 -1 42 -3 29 -4 rlinecurve
          -9 callgsubr
          hintmask 10101100
          5 callsubr
          hintmask 10110100
          -11 callgsubr
          hintmask 10101100
          -43 callgsubr
          hintmask 10110100
          -56 callgsubr
          5 38 60 3 30 hhcurveto
          endchar
        </CharString>
        <CharString name="Tcommaaccent">
          85 -2 callgsubr
          41 603 17 callsubr
          -45 66 hintmask 11100100
          286 hmoveto
          15 callgsubr
          hintmask 11101000
          -28 callsubr
          hintmask 11011000
          5 callsubr
          hintmask 11101000
          -11 callgsubr
          hintmask 11011000
          -43 callgsubr
          hintmask 11101000
          -56 callgsubr
          hintmask 11100100
          5 41 67 3 27 hhcurveto
          -58 -114 rmoveto
          -100 callsubr
        </CharString>
        <CharString name="Thorn">
          49 0 210 -197 -21 181 37 289 39 112 -20 28 -56 callsubr
          208 99 hintmask 10010111
          8 callsubr
          hintmask 10011011
          -5 -42 -45 -17 callsubr
          hintmask 01110111
          -104 callsubr
          -514 vlineto
          -17 -1 -6 -101 callgsubr
          hintmask 10010111
          -64 callsubr
          hintmask 01110111
          -83 callsubr
          424 vlineto
          3 13 27 4 17 hhcurveto
          91 60 -45 -103 hvcurveto
          -97 -58 -44 -103 vhcurveto
          -11 -15 4 -7 hhcurveto
          16 callgsubr
          113 110 84 107 130 -106 44 -138 -22 -21 -1 -2 -20 hvcurveto
          endchar
        </CharString>
        <CharString name="U">
          -39 callgsubr
          28 -20 hstemhm
          101 89 368 65 hintmask 10111000
          558 229 rmoveto
          -112 -63 -71 -112 -137 -56 66 137 vhcurveto
          332 vlineto
          -82 callgsubr
          45 -34 callsubr
          hintmask 11011000
          -5 -42 -48 -17 callsubr
          hintmask 10111000
          -104 callsubr
          -349 vlineto
          -172 84 -75 172 171 95 88 171 vhcurveto
          337 vlineto
          16 -26 callgsubr
          42 22 callsubr
          34 rlineto
          hintmask 11011000
          -5 -42 -33 -17 callsubr
          hintmask 10111000
          -26 -36 3 -48 callgsubr
          -34 rlineto
          0 43 -6 -69 callgsubr
          -7 1 -5 -17 vvcurveto
          endchar
        </CharString>
        <CharString name="Uacute">
          -39 callgsubr
          203 -20 hstem
          101 89 368 65 vstem
          558 229 rmoveto
          -112 -63 -71 -112 -137 -56 66 137 vhcurveto
          332 vlineto
          -82 callgsubr
          45 -34 callsubr
          -5 -42 -48 -17 callsubr
          -104 callsubr
          -349 vlineto
          -172 84 -75 172 171 95 88 171 vhcurveto
          337 vlineto
          16 -26 callgsubr
          42 22 callsubr
          34 rlineto
          -5 -42 -33 -17 callsubr
          -26 -36 3 -48 callgsubr
          -34 rlineto
          0 43 -6 -69 callgsubr
          -7 1 -5 -17 vvcurveto
          -60 236 -96 callsubr
        </CharString>
        <CharString name="Ubreve">
          -39 callgsubr
          58 65 79 -20 hstem
          101 89 368 65 vstem
          558 229 rmoveto
          -112 -63 -71 -112 -137 -56 66 137 vhcurveto
          332 vlineto
          -82 callgsubr
          45 -34 callsubr
          -5 -42 -48 -17 callsubr
          -104 callsubr
          -349 vlineto
          -172 84 -75 172 171 95 88 171 vhcurveto
          337 vlineto
          16 -26 callgsubr
          42 22 callsubr
          34 rlineto
          -5 -42 -33 -17 callsubr
          -26 -36 3 -48 callgsubr
          -34 rlineto
          0 43 -6 -69 callgsubr
          -7 1 -5 -17 vvcurveto
          -84 251 -91 callgsubr
        </CharString>
        <CharString name="Ucircumflex">
          -39 callgsubr
          201 -20 hstem
          101 89 368 65 vstem
          558 229 rmoveto
          -112 -63 -71 -112 -137 -56 66 137 vhcurveto
          332 vlineto
          -82 callgsubr
          45 -34 callsubr
          -5 -42 -48 -17 callsubr
          -104 callsubr
          -349 vlineto
          -172 84 -75 172 171 95 88 171 vhcurveto
          337 vlineto
          16 -26 callgsubr
          42 22 callsubr
          34 rlineto
          -5 -42 -33 -17 callsubr
          -26 -36 3 -48 callgsubr
          -34 rlineto
          0 43 -6 -69 callgsubr
          -7 1 -5 -17 vvcurveto
          -227 248 -93 callgsubr
        </CharString>
        <CharString name="Udieresis">
          -39 callgsubr
          56 105 hstem
          101 89 30 -8 callgsubr
          35 65 vstem
          558 229 rmoveto
          -112 -63 -71 -112 -137 -56 66 137 vhcurveto
          332 vlineto
          -82 callgsubr
          45 -34 callsubr
          -5 -42 -48 -17 callsubr
          -104 callsubr
          -349 vlineto
          -172 84 -75 172 171 95 88 171 vhcurveto
          337 vlineto
          16 -26 callgsubr
          42 22 callsubr
          34 rlineto
          -5 -42 -33 -17 callsubr
          -26 -36 3 -48 callgsubr
          -34 rlineto
          0 43 -6 -69 callgsubr
          -7 1 -5 -17 vvcurveto
          -338 157 -100 callgsubr
        </CharString>
        <CharString name="Ugrave">
          -39 callgsubr
          203 -20 hstem
          101 89 368 65 vstem
          558 229 rmoveto
          -112 -63 -71 -112 -137 -56 66 137 vhcurveto
          332 vlineto
          -82 callgsubr
          45 -34 callsubr
          -5 -42 -48 -17 callsubr
          -104 callsubr
          -349 vlineto
          -172 84 -75 172 171 95 88 171 vhcurveto
          337 vlineto
          16 -26 callgsubr
          42 22 callsubr
          34 rlineto
          -5 -42 -33 -17 callsubr
          -26 -36 3 -48 callgsubr
          -34 rlineto
          0 43 -6 -69 callgsubr
          -7 1 -5 -17 vvcurveto
          -333 218 -73 callgsubr
        </CharString>
        <CharString name="Uhorn">
          -39 callgsubr
          191 -20 hstem
          101 89 368 65 111 74 vstem
          558 229 rmoveto
          -112 -63 -71 -112 -137 -56 66 137 vhcurveto
          332 vlineto
          -82 callgsubr
          45 -34 callsubr
          -5 -42 -48 -17 callsubr
          -104 callsubr
          -349 vlineto
          -172 84 -75 172 171 95 88 171 vhcurveto
          337 vlineto
          16 1 12 15 5 vhcurveto
          22 6 rlineto
          72 18 75 31 82 -35 callgsubr
          21 -5 23 -18 -18 vvcurveto
          -36 -46 -19 -27 -7 vhcurveto
          -7 -25 -27 2 -18 hhcurveto
          -26 -36 3 -48 callgsubr
          -34 rlineto
          0 43 -6 -69 callgsubr
          -7 1 -5 -17 vvcurveto
          endchar
        </CharString>
        <CharString name="Uhungarumlaut">
          -39 callgsubr
          hstem
          101 89 368 65 vstem
          558 229 rmoveto
          -112 -63 -71 -112 -137 -56 66 137 vhcurveto
          332 vlineto
          -82 callgsubr
          45 -34 callsubr
          -5 -42 -48 -17 callsubr
          -104 callsubr
          -349 vlineto
          -172 84 -75 172 171 95 88 171 vhcurveto
          337 vlineto
          16 -26 callgsubr
          42 22 callsubr
          34 rlineto
          -5 -42 -33 -17 callsubr
          -26 -36 3 -48 callgsubr
          -34 rlineto
          0 43 -6 -69 callgsubr
          -7 1 -5 -17 vvcurveto
          5 258 -64 callgsubr
          -159 17 -64 callgsubr
          endchar
        </CharString>
        <CharString name="Umacron">
          -39 callgsubr
          73 61 hstem
          101 89 368 65 vstem
          558 229 rmoveto
          -112 -63 -71 -112 -137 -56 66 137 vhcurveto
          332 vlineto
          -82 callgsubr
          45 -34 callsubr
          -5 -42 -48 -17 callsubr
          -104 callsubr
          -349 vlineto
          -172 84 -75 172 171 95 88 171 vhcurveto
          337 vlineto
          16 -26 callgsubr
          42 22 callsubr
          34 rlineto
          -5 -42 -33 -17 callsubr
          -26 -36 3 -48 callgsubr
          -34 rlineto
          0 43 -6 -69 callgsubr
          -7 1 -5 -17 vvcurveto
          -317 122 -60 callsubr
        </CharString>
        <CharString name="Uogonek">
          236 -240 50 176 23 callsubr
          28 -20 hstemhm
          101 89 73 70 225 65 hintmask 11011110
          333 -143 rmoveto
          49 43 49 38 35 vhcurveto
          135 17 74 87 151 vvcurveto
          337 vlineto
          16 -26 callgsubr
          42 22 callsubr
          34 rlineto
          hintmask 11101110
          -5 -42 -33 -17 callsubr
          hintmask 11011110
          -26 -36 3 -48 callgsubr
          -34 rlineto
          0 43 -6 -69 callgsubr
          -7 1 -5 -17 vvcurveto
          -352 vlineto
          -112 -63 -71 -112 -137 -56 66 137 vhcurveto
          332 vlineto
          -82 callgsubr
          45 -34 callsubr
          hintmask 11101110
          -5 -42 -48 -17 callsubr
          hintmask 11011110
          -104 callsubr
          -349 vlineto
          -172 84 -75 172 vhcurveto
          9 hlineto
          -59 -46 -44 -36 -55 -82 callsubr
          endchar
        </CharString>
        <CharString name="Uring">
          -39 callgsubr
          39 33 104 33 hstem
          101 89 94 38 96 38 102 65 vstem
          558 229 rmoveto
          -112 -63 -71 -112 -137 -56 66 137 vhcurveto
          332 vlineto
          -82 callgsubr
          45 -34 callsubr
          -5 -42 -48 -17 callsubr
          -104 callsubr
          -349 vlineto
          -172 84 -75 172 171 95 88 171 vhcurveto
          337 vlineto
          16 -26 callgsubr
          42 22 callsubr
          34 rlineto
          -5 -42 -33 -17 callsubr
          -26 -36 3 -48 callgsubr
          -34 rlineto
          0 43 -6 -69 callgsubr
          -7 1 -5 -17 vvcurveto
          -236 173 -85 callsubr
          endchar
        </CharString>
        <CharString name="Utilde">
          -39 callgsubr
          103 24 43 -20 hstem
          101 89 368 65 vstem
          558 229 rmoveto
          -112 -63 -71 -112 -137 -56 66 137 vhcurveto
          332 vlineto
          -82 callgsubr
          45 -34 callsubr
          -5 -42 -48 -17 callsubr
          -104 callsubr
          -349 vlineto
          -172 84 -75 172 171 95 88 171 vhcurveto
          337 vlineto
          16 -26 callgsubr
          42 22 callsubr
          34 rlineto
          -5 -42 -33 -17 callsubr
          -26 -36 3 -48 callgsubr
          -34 rlineto
          0 43 -6 -69 callgsubr
          -7 1 -5 -17 vvcurveto
          -255 152 -105 callgsubr
        </CharString>
        <CharString name="V">
          155 14 -21 657 -20 28 -20 hstemhm
          hintmask 10100000
          344 124 rmoveto
          -6 -44 -7 3 -10 41 -154 447 -8 22 9 12 22 7 rlinecurve
          22 7 37 -32 callgsubr
          hintmask 11000000
          -6 -42 -63 -2 -27 hhcurveto
          hintmask 10100000
          -26 -40 2 6 -40 -42 callgsubr
          57 -12 3 -7 20 -57 rlinecurve
          200 -556 rlineto
          74 hlineto
          211 556 21 57 0 7 57 12 rlinecurve
          -7 33 rlineto
          hintmask 11000000
          -6 -40 -27 -2 -26 hhcurveto
          hintmask 10100000
          -27 -48 2 6 -41 hvcurveto
          -6 -33 rlineto
          0 39 -6 22 -7 vhcurveto
          22 -6 8 -14 -7 -21 rrcurveto
          endchar
        </CharString>
        <CharString name="W">
          6 callsubr
          28 -20 hstemhm
          hintmask 10100000
          942 549 rmoveto
          20 57 1 7 57 12 -7 33 rcurveline
          hintmask 11000000
          -6 -40 -27 -2 -26 hhcurveto
          hintmask 10100000
          -27 -46 2 6 -41 hvcurveto
          -6 -33 rlineto
          0 39 -6 22 -7 vhcurveto
          22 -6 8 -14 -7 -21 -135 -433 rcurveline
          -6 -30 -5 1 -6 26 -168 514 rlineto
          -72 hlineto
          -167 -507 -4 -33 -6 1 -6 29 -142 432 -7 22 8 12 22 7 rlinecurve
          22 7 37 -32 callgsubr
          hintmask 11000000
          -6 -42 -63 -2 -27 hhcurveto
          hintmask 10100000
          -26 -40 2 6 -40 -42 callgsubr
          57 -12 4 -7 19 -57 rlinecurve
          185 -557 rlineto
          69 hlineto
          165 495 8 34 5 -1 6 -27 169 -501 rlineto
          68 hlineto
          endchar
        </CharString>
        <CharString name="Wacute">
          6 callsubr
          203 -20 hstem
          -97 callgsubr
          -98 825 -96 callsubr
        </CharString>
        <CharString name="Wcircumflex">
          6 callsubr
          201 -20 hstem
          -97 callgsubr
          -265 837 -93 callgsubr
        </CharString>
        <CharString name="Wdieresis">
          6 callsubr
          59 105 hstem
          377 -8 callgsubr
          vstem
          -97 callgsubr
          -376 749 -100 callgsubr
        </CharString>
        <CharString name="Wgrave">
          6 callsubr
          203 -20 hstem
          -97 callgsubr
          -371 807 -73 callgsubr
        </CharString>
        <CharString name="X">
          181 12 -21 30 -21 650 -20 28 -20 hstemhm
          hintmask 01010000
          468 79 rmoveto
          14 -19 -15 -15 -22 -7 rrcurveto
          -22 -7 -37 -7 callsubr
          6 -33 rlineto
          6 42 73 2 27 hhcurveto
          26 54 -2 -6 40 hvcurveto
          7 33 -42 7 -13 14 -38 53 rlinecurve
          -182 247 166 216 36 47 0 4 56 12 rlinecurve
          -7 33 rlineto
          hintmask 01100000
          -6 -40 -27 -2 -26 hhcurveto
          hintmask 01010000
          -27 -48 2 6 -41 hvcurveto
          -6 -33 rlineto
          0 40 -4 21 -9 vhcurveto
          11 -5 13 -20 -11 -16 -138 -187 rcurveline
          -138 187 -12 17 12 18 13 6 rlinecurve
          21 9 38 4 0 vvcurveto
          -6 33 rlineto
          hintmask 01100000
          -6 -41 -71 -2 -27 hhcurveto
          hintmask 10010000
          -26 -47 2 6 -40 -42 callgsubr
          45 -8 12 -15 41 -51 rlinecurve
          160 -221 -190 -242 -35 -45 -18 -11 -34 -8 rlinecurve
          7 -33 rlineto
          hintmask 01010000
          6 40 34 -62 callsubr
          27 51 -2 -6 41 hvcurveto
          6 -26 callsubr
          -39 6 -22 7 vhcurveto
          -22 6 -14 17 13 18 158 211 rcurveline
          endchar
        </CharString>
        <CharString name="Y">
          104 -58 callgsubr
          29 30 callgsubr
          hintmask 10011000
          -75 callgsubr
          hintmask 01011000
          5 41 57 -62 callsubr
          hintmask 10011000
          27 55 -14 callgsubr
          31 rlineto
          0 -53 -33 callsubr
          7 17 vvcurveto
          208 vlineto
          166 286 28 51 17 10 40 4 rlinecurve
          4 32 rlineto
          hintmask 10101000
          -5 -34 -39 -4 -32 hhcurveto
          hintmask 10011000
          -38 -41 4 5 -39 hvcurveto
          3 -32 13 -3 39 -7 17 -11 rlinecurve
          12 -9 4 -12 -12 -21 -131 -234 rcurveline
          -132 233 -14 26 9 18 20 7 rlinecurve
          19 3 callgsubr
          3 32 rlineto
          hintmask 10101000
          -5 -38 -60 -4 -43 hhcurveto
          hintmask 10011000
          -41 -35 3 6 -36 hvcurveto
          4 -32 38 -4 15 -10 24 -44 rlinecurve
          endchar
        </CharString>
        <CharString name="Yacute">
          104 -58 callgsubr
          203 30 callgsubr
          hintmask 10111000
          -75 callgsubr
          hintmask 01111000
          5 41 57 3 26 hhcurveto
          hintmask 10111000
          -105 callsubr
          354 248 -96 callsubr
        </CharString>
        <CharString name="Ycircumflex">
          104 -58 callgsubr
          201 30 callgsubr
          hintmask 10111000
          -75 callgsubr
          hintmask 01111000
          5 41 57 3 26 hhcurveto
          hintmask 10111000
          -105 callsubr
          187 260 -93 callgsubr
        </CharString>
        <CharString name="Ydieresis">
          104 -58 callgsubr
          59 105 hstemhm
          155 111 -16 89 8 111 hintmask 10110110
          -75 callgsubr
          hintmask 01111010
          5 41 57 -62 callsubr
          hintmask 10110110
          -105 callsubr
          hintmask 10111010
          76 172 -100 callgsubr
        </CharString>
        <CharString name="Ygrave">
          104 -58 callgsubr
          203 30 callgsubr
          hintmask 10111000
          -75 callgsubr
          hintmask 01111000
          5 41 57 3 26 hhcurveto
          hintmask 10111000
          -105 callsubr
          81 230 -73 callgsubr
        </CharString>
        <CharString name="Ytilde">
          104 -58 callgsubr
          103 24 43 30 callgsubr
          hintmask 10111100
          -75 callgsubr
          hintmask 01111100
          5 41 57 -62 callsubr
          hintmask 10111100
          -105 callsubr
          159 164 -105 callgsubr
        </CharString>
        <CharString name="Z">
          26 callgsubr
          12 -20 hstemhm
          hintmask 11000000
          40 47 rmoveto
          9 -47 rlineto
          469 hlineto
          10 34 23 126 2 37 -36 9 rcurveline
          -12 -36 -49 -95 -22 -22 rrcurveto
          -285 hlineto
          376 547 -14 50 rlineto
          -347 hlineto
          hintmask 10100000
          -41 -30 12 0 hvcurveto
          hintmask 11000000
          -24 -12 -7 -38 -6 -110 2 -39 rlinecurve
          35 -7 9 40 22 72 20 29 rlinecurve
          274 hlineto
          endchar
        </CharString>
        <CharString name="Zacute">
          26 callgsubr
          183 -20 hstem
          -71 callgsubr
          -8 220 -96 callsubr
        </CharString>
        <CharString name="Zcaron">
          26 callgsubr
          0 36 150 -20 hstemhm
          hintmask 11010000
          -71 callgsubr
          -175 91 rmoveto
          hintmask 10110000
          -91 callsubr
        </CharString>
        <CharString name="Zdot">
          26 callgsubr
          48 105 hstem
          229 111 vstem
          -71 callgsubr
          -189 153 -84 callsubr
          endchar
        </CharString>
        <CharString name="a">
          -27 callsubr
          hstem
          44 83 156 80 vstem
          -107 callgsubr
          endchar
        </CharString>
        <CharString name="aacute">
          -27 callsubr
          hstem
          44 83 156 80 vstem
          -107 callgsubr
          -42 594 -93 callsubr
        </CharString>
        <CharString name="abreve">
          -27 callsubr
          79 65 79 -20 hstem
          44 83 156 80 vstem
          -107 callgsubr
          -41 573 -91 callgsubr
        </CharString>
        <CharString name="acircumflex">
          -27 callsubr
          244 -20 hstem
          44 83 156 80 vstem
          -107 callgsubr
          -184 592 -99 callsubr
        </CharString>
        <CharString name="acute">
          519 -21 hstem
          236 676 -93 callsubr
        </CharString>
        <CharString name="acute.case">
          702 -21 152 -20 hstem
          256 817 -96 callsubr
        </CharString>
        <CharString name="adieresis">
          -27 callsubr
          107 105 hstemhm
          44 83 -59 111 81 103 -80 80 hintmask 11110010
          -107 callgsubr
          hintmask 11101100
          -295 509 -100 callgsubr
        </CharString>
        <CharString name="ae">
          -80 callsubr
          endchar
        </CharString>
        <CharString name="aeacute">
          -80 callsubr
          253 632 -93 callsubr
        </CharString>
        <CharString name="agrave">
          -27 callsubr
          hstem
          44 83 156 80 vstem
          -107 callgsubr
          -254 578 -76 callgsubr
        </CharString>
        <CharString name="amacron">
          -27 callsubr
          125 61 hstem
          44 83 156 80 vstem
          -107 callgsubr
          -273 475 -60 callsubr
        </CharString>
        <CharString name="ampersand">
          141 -16 44 -14 -21 574 43 hstemhm
          42 89 -24 82 146 86 hintmask 10101100
          571 244 rmoveto
          -22 29 -48 44 -22 18 -27 -18 rcurveline
          37 -68 -6 -54 -31 -48 -52 54 -57 63 -46 49 -5 5 -5 5 -5 6 rrcurveto
          66 12 73 60 81 vvcurveto
          78 -73 50 -87 -77 -77 -63 -85 -65 23 -34 43 -41 vhcurveto
          -1 1 -1 0 vhcurveto
          hintmask 10110100
          -78 -31 -54 -52 -90 vvcurveto
          -115 102 -48 115 66 53 27 40 44 vhcurveto
          hintmask 01110100
          -34 35 28 -24 11 hhcurveto
          140 hlineto
          5 32 rlineto
          -27 -31 4 17 -23 hvcurveto
          -19 13 -28 27 -33 32 31 39 38 49 22 38 rrcurveto
          -178 -163 rmoveto
          hintmask 10110100
          -31 -36 -43 -22 -49 hhcurveto
          -77 -57 62 72 51 20 47 48 33 hvcurveto
          51 -56 79 -90 64 -66 rrcurveto
          hintmask 10101100
          -204 407 rmoveto
          45 27 34 39 50 30 -41 -48 -64 -44 -45 -35 -11 vhcurveto
          -35 40 -32 45 45 vvcurveto
          endchar
        </CharString>
        <CharString name="aogonek">
          -33 -240 50 174 62 341 45 hstem
          44 83 65 70 21 80 vstem
          262 -143 rmoveto
          48 41 48 37 34 vhcurveto
          31 13 32 10 34 8 -8 29 rcurveline
          0 -13 -1 -14 -22 -17 6 30 vhcurveto
          204 vlineto
          99 -43 47 -99 -43 -80 -34 -15 -33 vhcurveto
          2 -25 17 -67 6 -20 42 12 rcurveline
          22 0 49 6 21 vhcurveto
          7 13 26 5 25 hhcurveto
          67 14 -46 -69 hvcurveto
          -45 vlineto
          -92 -10 rlineto
          -83 -8 -64 -27 -82 vvcurveto
          -69 43 -47 69 37 32 16 51 61 vhcurveto
          5 -21 10 -17 13 -13 rrcurveto
          -69 -53 -53 -38 -60 -82 callsubr
          -71 187 rmoveto
          -38 -26 31 37 45 32 19 47 8 hvcurveto
          77 14 rlineto
          -114 vlineto
          -24 -31 -36 -16 -25 hhcurveto
          endchar
        </CharString>
        <CharString name="aring">
          -27 callsubr
          71 33 104 33 hstemhm
          44 83 5 38 96 38 -21 80 hintmask 11111101
          -107 callgsubr
          -193 506 rmoveto
          29 22 23 26 vhcurveto
          hintmask 11111110
          -49 callgsubr
          endchar
        </CharString>
        <CharString name="aringacute">
          -27 callsubr
          71 33 104 33 160 -20 hstemhm
          44 83 5 38 96 38 -21 80 hintmask 1111111010000000
          -107 callgsubr
          -193 506 rmoveto
          29 22 23 26 vhcurveto
          hintmask 1111111100000000
          -49 callgsubr
          212 229 -96 callsubr
        </CharString>
        <CharString name="asciicircum">
          -14 306 -21 381 -20 hstem
          36 311 rmoveto
          54 -26 147 305 147 -305 54 26 -177 355 rlineto
          -48 hlineto
          endchar
        </CharString>
        <CharString name="asciitilde">
          11 195 -21 150 -20 hstem
          155 247 rmoveto
          49 79 -62 -11 46 hvcurveto
          35 6 25 17 58 71 19 34 rlinecurve
          -34 18 rlineto
          -38 -27 -30 -29 -31 hhcurveto
          -49 -79 60 11 -46 hvcurveto
          -35 -6 -25 -18 -58 -64 -19 -33 rlinecurve
          34 -22 rlineto
          39 28 29 27 31 hhcurveto
          endchar
        </CharString>
        <CharString name="asterisk">
          -71 422 -21 322 -20 hstem
          348 643 rmoveto
          -45 -21 -40 -22 -31 -18 rrcurveto
          10 41 11 65 24 vvcurveto
          10 -27 -32 1 -6 hhcurveto
          -19 -11 4 -50 9 -45 8 -35 rlinecurve
          -37 22 -57 31 -22 8 -19 -23 -10 -24 -3 -12 6 -22 rcurveline
          48 -11 46 -5 34 -4 -31 -27 -47 -46 -15 -19 17 -24 20 -19 9 -5 23 -1 rcurveline
          25 41 19 41 14 33 17 -38 28 -59 14 -18 28 6 24 15 7 7 10 21 rcurveline
          -33 36 -34 32 -26 24 41 4 65 8 23 8 2 29 -7 27 -4 9 rrcurveto
          endchar
        </CharString>
        <CharString name="at">
          391 -204 58 130 61 342 45 122 56 hstem
          47 83 113 80 450 77 vstem
          645 49 rmoveto
          87 58 118 110 71 vvcurveto
          197 -134 125 -212 -242 -215 -180 -242 -234 140 -158 246 79 87 44 46 51 vhcurveto
          -20 24 rlineto
          -30 -44 -74 -26 -56 hhcurveto
          -217 -109 131 205 217 158 147 205 177 103 -108 -165 -74 -63 -76 -70 -50 hvcurveto
          -13 -17 -33 -17 -12 hhcurveto
          -16 4 20 28 6 hvcurveto
          55 238 rlineto
          8 34 13 31 0 vvcurveto
          -11 16 rlineto
          5 -24 -39 9 -41 hhcurveto
          -150 -140 -174 -174 -61 23 -39 54 69 73 105 67 46 hvcurveto
          6 -2 -16 -65 rlineto
          -72 -17 2 -33 37 hhcurveto
          31 61 40 25 33 hvcurveto
          -116 184 rmoveto
          -88 -56 -78 -100 -43 hhcurveto
          -24 -5 27 33 110 59 172 110 53 14 -13 0 hvcurveto
          -2 -30 -16 -81 -12 -30 rrcurveto
          endchar
        </CharString>
        <CharString name="atilde">
          -27 callsubr
          134 24 43 -20 hstem
          44 83 156 80 vstem
          -107 callgsubr
          -212 484 -105 callgsubr
        </CharString>
        <CharString name="b">
          29 -16 41 348 59 224 -20 82 -20 hstem
          83 80 223 89 vstem
          -42 callsubr
          -597 vlineto
          -21 51 67 -20 60 -12 callsubr
        </CharString>
        <CharString name="backslash">
          -47 -149 -21 837 -20 hstem
          78 667 rmoveto
          -55 -28 340 -809 55 28 rlineto
          endchar
        </CharString>
        <CharString name="bar">
          10 callgsubr
          836 -67 hlineto
          endchar
        </CharString>
        <CharString name="braceleft">
          24 callsubr
          129 68 -68 82 hintmask 11101000
          112 261 rmoveto
          45 14 54 65 81 vvcurveto
          hintmask 11110000
          47 -14 63 47 vvcurveto
          39 51 14 29 11 vhcurveto
          -13 24 rlineto
          -47 -12 -88 -7 -83 -45 9 -62 -46 vvcurveto
          -64 -26 -71 -59 vhcurveto
          -39 vlineto
          59 26 -74 -66 hvcurveto
          -50 -9 -68 -47 vvcurveto
          -83 88 -7 47 -12 vhcurveto
          13 24 rlineto
          -29 11 -51 14 39 vvcurveto
          hintmask 11101000
          52 14 65 52 vvcurveto
          84 -54 67 -45 14 vhcurveto
          endchar
        </CharString>
        <CharString name="braceright">
          24 callsubr
          116 82 -68 68 hintmask 11110000
          215 252 rmoveto
          -45 -14 -54 -67 -84 vvcurveto
          hintmask 11101000
          -52 14 -65 -52 vvcurveto
          -39 -51 -14 -29 -11 vhcurveto
          13 -24 rlineto
          47 12 88 7 83 47 -9 68 50 vvcurveto
          66 26 74 59 vhcurveto
          39 vlineto
          -59 -26 71 64 hvcurveto
          46 9 62 45 vvcurveto
          83 -88 7 -47 12 vhcurveto
          -13 -24 rlineto
          29 -11 51 -14 -39 vvcurveto
          hintmask 11110000
          -47 -14 -63 -47 vvcurveto
          -81 54 -65 45 -14 vhcurveto
          endchar
        </CharString>
        <CharString name="bracketleft">
          -161 -156 54 698 54 hstemhm
          112 67 -67 196 hintmask 11010000
          112 -156 rmoveto
          196 54 hlineto
          hintmask 11100000
          -129 698 hlineto
          hintmask 11010000
          129 54 -196 hlineto
          endchar
        </CharString>
        <CharString name="bracketright">
          -161 -156 55 696 55 hstemhm
          112 197 -72 72 hintmask 11100000
          309 650 rmoveto
          -197 -55 hlineto
          hintmask 11010000
          125 -696 hlineto
          hintmask 11100000
          -125 -55 197 hlineto
          endchar
        </CharString>
        <CharString name="breve">
          511 65 79 -20 hstem
          257 655 -91 callgsubr
        </CharString>
        <CharString name="breve.case">
          688 65 79 -20 hstem
          257 832 -91 callgsubr
        </CharString>
        <CharString name="brokenbar">
          10 callgsubr
          289 -67 hlineto
          265 vmoveto
          67 282 -67 hlineto
          endchar
        </CharString>
        <CharString name="bullet">
          -55 168 -21 269 -20 hstem
          93 247 vstem
          93 278 rmoveto
          -81 43 -50 81 89 34 45 90 81 -46 53 -81 -89 -31 -48 -90 vhcurveto
          endchar
        </CharString>
        <CharString name="c">
          18 callgsubr
          hstem
          42 89 vstem
          -89 callgsubr
          endchar
        </CharString>
        <CharString name="cacute">
          18 callgsubr
          hstem
          42 89 vstem
          -89 callgsubr
          16 411 -93 callsubr
        </CharString>
        <CharString name="caron">
          524 -21 178 -20 hstem
          120 505 rmoveto
          -89 callsubr
        </CharString>
        <CharString name="caron.case">
          707 -21 150 -20 hstem
          120 688 rmoveto
          -91 callsubr
        </CharString>
        <CharString name="ccaron">
          18 callgsubr
          0 71 178 -20 hstemhm
          42 89 hintmask 11011000
          -89 callgsubr
          -126 240 rmoveto
          hintmask 10111000
          -89 callsubr
        </CharString>
        <CharString name="ccedilla">
          -53 -4 callsubr
          55 63 343 42 hstemhm
          42 89 115 53 hintmask 10111100
          152 -83 callgsubr
          hintmask 01111100
          52 -37 30 -40 vhcurveto
          17 55 rlineto
          3 hlineto
          46 51 21 59 66 hvcurveto
          -16 24 rlineto
          -22 -32 -44 -19 -38 hhcurveto
          -86 -58 58 118 98 27 69 77 40 29 -9 -10 14 hvcurveto
          9 -17 3 -59 -2 -30 34 -6 rcurveline
          12 26 21 83 3 26 rrcurveto
          12 -27 -82 26 -46 hhcurveto
          -128 -73 -108 -124 -115 62 -78 93 -18 hvcurveto
          endchar
        </CharString>
        <CharString name="ccircumflex">
          18 callgsubr
          244 -20 hstem
          42 89 vstem
          -89 callgsubr
          -126 409 -99 callsubr
        </CharString>
        <CharString name="cdot">
          18 callgsubr
          107 105 hstem
          42 89 57 111 vstem
          -89 callgsubr
          -140 326 -84 callsubr
          endchar
        </CharString>
        <CharString name="cedilla">
          -4 callsubr
          71 -20 hstemhm
          193 53 hintmask 10110000
          99 -83 callgsubr
          hintmask 01110000
          52 -37 30 -40 vhcurveto
          22 71 rlineto
          -40 hlineto
          endchar
        </CharString>
        <CharString name="cent">
          -47 5 -21 626 -20 hstem
          45 89 75 47 -38 38 vstem
          207 -16 rmoveto
          38 4 3 102 45 1 50 20 65 54 rlinecurve
          -16 24 rlineto
          -19 -32 -44 -17 -38 hhcurveto
          -10 -9 0 2 -8 hvcurveto
          11 319 26 -3 20 -6 10 -7 rlinecurve
          9 -15 3 -53 -2 -28 37 -7 rcurveline
          12 24 21 77 3 24 -24 10 -67 22 -47 5 4 93 rcurveline
          -38 -5 -3 -88 rlineto
          -116 -11 -65 -99 -111 vvcurveto
          -114 66 -76 100 -14 vhcurveto
          -77 227 rmoveto
          86 24 63 66 7 vhcurveto
          -11 -310 rlineto
          -49 22 -30 51 81 vvcurveto
          endchar
        </CharString>
        <CharString name="circumflex">
          519 -21 178 -20 hstem
          120 674 -99 callsubr
        </CharString>
        <CharString name="circumflex.case">
          702 -21 150 -20 hstem
          120 829 -93 callgsubr
        </CharString>
        <CharString name="colon">
          -235 -7 118 180 119 hstem
          64 125 vstem
          64 52 rmoveto
          -34 23 -25 39 37 26 25 34 34 -26 25 -37 -40 -22 -25 -34 vhcurveto
          299 vmoveto
          11 callgsubr
        </CharString>
        <CharString name="comma">
          -249 -157 -21 289 -20 hstem
          122 75 vstem
          56 21 rmoveto
          -23 callgsubr
          endchar
        </CharString>
        <CharString name="commaaccent">
          -270 -2 callgsubr
          -20 hstem
          109 66 vstem
          51 -114 rmoveto
          -100 callsubr
        </CharString>
        <CharString name="copyright">
          218 -16 39 110 34 272 34 98 39 hstem
          40 44 103 71 364 44 vstem
          361 133 rmoveto
          37 43 9 8 24 hvcurveto
          5 28 5 32 29 vvcurveto
          -20 2 rlineto
          -51 -16 -21 -23 -53 hhcurveto
          -66 -41 69 69 80 34 54 67 26 29 -4 -8 17 hvcurveto
          5 -13 2 -26 3 -28 23 4 rcurveline
          6 24 5 39 2 29 rrcurveto
          8 -36 -32 9 -45 hhcurveto
          -108 -69 -77 -105 -98 74 -60 100 hvcurveto
          -321 164 rmoveto
          -173 140 -140 173 173 140 140 173 173 -140 140 -173 -173 -140 -140 -173 vhcurveto
          44 hmoveto
          152 120 122 149 149 120 -122 -152 -152 -120 -122 -149 -149 -120 122 152 vhcurveto
          endchar
        </CharString>
        <CharString name="currency">
          86 95 -21 28 57 289 57 28 -20 hstem
          91 66 261 66 vstem
          91 303 rmoveto
          -48 15 -43 26 -34 vhcurveto
          -23 -15 -26 -19 -25 -22 3 -19 rcurveline
          4 -6 15 -16 7 -3 19 -4 rcurveline
          21 25 19 25 15 23 rrcurveto
          -28 34 44 -17 48 hhcurveto
          48 43 16 29 34 hvcurveto
          16 -23 19 -25 21 -25 19 4 rcurveline
          7 3 15 16 4 6 3 19 rcurveline
          -26 22 -25 18 -23 16 rrcurveto
          27 34 15 43 48 vvcurveto
          48 -16 43 -26 35 vhcurveto
          23 15 25 19 26 22 -3 19 rcurveline
          -4 6 -15 16 -7 3 -19 4 rcurveline
          -21 -25 -19 -26 -16 -23 rrcurveto
          29 -34 -43 17 -48 hhcurveto
          -48 -44 -17 -29 -34 hvcurveto
          -15 23 -19 26 -21 25 -19 -4 rcurveline
          -7 -3 -15 -16 -4 -6 -3 -19 rcurveline
          25 -22 26 -19 23 -16 rrcurveto
          -26 -34 -15 -43 -48 vvcurveto
          66 hmoveto
          83 57 62 73 74 57 -62 -83 -82 -57 -62 -74 -73 -57 62 82 vhcurveto
          endchar
        </CharString>
        <CharString name="d">
          40 18 callsubr
          vstem
          432 85 rmoveto
          517 vlineto
          -13 callsubr
          -211 vlineto
          11 -23 -38 10 -33 hhcurveto
          -134 -82 -101 -139 -124 61 -84 120 35 36 18 50 61 hvcurveto
          7 -31 19 -22 20 -15 34 14 47 13 36 7 -7 30 rcurveline
          -17 -2 -31 0 -15 6 rrcurveto
          -11 5 -5 15 13 vvcurveto
          -178 -42 rmoveto
          -72 -51 51 121 123 51 53 67 37 43 -23 -36 23 hvcurveto
          -249 vlineto
          -29 -37 -31 -11 -30 hhcurveto
          endchar
        </CharString>
        <CharString name="dcaron">
          107 18 callsubr
          106 66 vstem
          432 85 rmoveto
          517 vlineto
          -13 callsubr
          -211 vlineto
          11 -23 -38 10 -33 hhcurveto
          -134 -82 -101 -139 -124 61 -84 120 35 36 18 50 61 hvcurveto
          7 -31 19 -22 20 -15 34 14 47 13 36 7 -7 30 rcurveline
          -17 -2 -31 0 -15 6 rrcurveto
          -11 5 -5 15 13 vvcurveto
          -178 -42 rmoveto
          -72 -51 51 121 123 51 53 67 37 43 -23 -36 23 hvcurveto
          -249 vlineto
          -29 -37 -31 -11 -30 hhcurveto
          226 602 rmoveto
          -100 callsubr
        </CharString>
        <CharString name="degree">
          -189 430 48 140 48 hstem
          27 51 143 51 vstem
          27 548 rmoveto
          -65 54 -53 68 67 56 53 65 65 -56 53 -67 -68 -54 -53 -65 vhcurveto
          51 hmoveto
          37 31 33 40 38 34 -33 -37 -37 -34 -33 -38 -40 -31 33 37 vhcurveto
          endchar
        </CharString>
        <CharString name="dieresis">
          -104 539 105 hstem
          40 -8 callgsubr
          vstem
          40 591 -100 callgsubr
        </CharString>
        <CharString name="divide">
          -28 29 98 59 58 59 99 hstem
          178 103 vstem
          178 78 rmoveto
          -29 19 -20 32 31 21 20 29 28 -21 21 -31 -32 -19 -21 -28 vhcurveto
          275 vmoveto
          -29 19 -21 32 31 21 21 29 29 -21 20 -31 -32 -19 -20 -29 vhcurveto
          236 -167 rmoveto
          58 -368 -58 vlineto
          endchar
        </CharString>
        <CharString name="dollar">
          46 -40 -21 610 43 98 -20 hstem
          95 79 75 38 -28 38 76 86 vstem
          242 -61 rmoveto
          38 4 3 83 rlineto
          101 10 75 57 107 vvcurveto
          86 -87 40 -78 37 vhcurveto
          6 184 30 -3 27 -8 16 -11 rlinecurve
          13 -31 0 -36 3 -40 32 4 rcurveline
          7 26 13 83 3 33 -41 9 -53 16 -49 3 4 98 rcurveline
          -38 -5 -3 -93 rlineto
          -96 -5 -73 -47 -98 vvcurveto
          -82 83 -38 75 -38 vhcurveto
          -7 -214 -81 7 -39 57 -6 88 rlinecurve
          -35 -10 -4 -30 -4 -85 4 -38 rlinecurve
          38 -15 68 -18 58 -1 rrcurveto
          128 142 rmoveto
          -56 -36 -34 -53 -7 vhcurveto
          7 195 rlineto
          46 -25 36 -29 -44 vvcurveto
          -199 302 rmoveto
          53 36 24 52 3 vhcurveto
          -5 -168 rlineto
          -47 24 -36 25 39 vvcurveto
          endchar
        </CharString>
        <CharString name="dong">
          10 -156 49 91 59 284 41 69 42 131 -20 hstem
          42 89 191 80 vstem
          179 479 rmoveto
          -8 -42 rlineto
          151 -90 hlineto
          11 -20 -32 10 -27 hhcurveto
          -125 -76 -87 -121 -106 55 -70 111 32 30 18 50 55 hvcurveto
          7 -31 19 -22 20 -15 34 14 47 13 36 7 -7 30 rcurveline
          -17 -2 -31 0 -15 6 rrcurveto
          -11 5 -5 15 13 vvcurveto
          352 -31 callgsubr
          -83 -436 rmoveto
          -63 -45 41 99 102 45 42 58 31 37 -23 -36 20 hvcurveto
          -185 vlineto
          -29 -31 -27 -11 -25 hhcurveto
          -182 -199 rmoveto
          410 49 -410 hlineto
          endchar
        </CharString>
        <CharString name="dotaccent">
          -203 539 17 callgsubr
          591 -84 callsubr
          endchar
        </CharString>
        <CharString name="dotaccent.case">
          -203 698 17 callgsubr
          750 -84 callsubr
          endchar
        </CharString>
        <CharString name="dotbelow">
          -203 -205 17 callgsubr
          -153 -84 callsubr
          endchar
        </CharString>
        <CharString name="dotlessi">
          -47 callgsubr
          hstemhm
          107 80 hintmask 10110000
          187 66 -101 callsubr
          hintmask 01110000
          5 41 38 -62 callsubr
          hintmask 10110000
          27 37 -34 callgsubr
          30 rlineto
          0 -38 13 callsubr
          endchar
        </CharString>
        <CharString name="dotlessj">
          19 callsubr
          hstem
          95 80 vstem
          95 -28 rmoveto
          -30 -2 -25 -5 -20 vhcurveto
          -15 -50 -36 -58 -23 -28 21 -21 rcurveline
          37 36 58 60 32 68 rrcurveto
          10 21 3 39 38 vvcurveto
          314 vlineto
          41 4 30 6 27 vhcurveto
          -14 18 rlineto
          -37 -70 -17 -16 -39 hvcurveto
          5 -18 callgsubr
          32 -21 callgsubr
          endchar
        </CharString>
        <CharString name="dslash">
          40 -16 59 348 41 113 42 131 -20 hstem
          42 89 221 80 vstem
          209 587 rmoveto
          -8 -42 rlineto
          151 -134 hlineto
          11 -23 -38 10 -33 hhcurveto
          -134 -82 -101 -139 -124 61 -84 120 35 36 18 50 61 hvcurveto
          7 -31 19 -22 20 -15 34 14 47 13 36 7 -7 30 rcurveline
          -17 -2 -31 0 -15 6 rrcurveto
          -11 5 -5 15 13 vvcurveto
          460 -31 callgsubr
          -98 -544 rmoveto
          -72 -51 51 121 123 51 53 67 37 43 -23 -36 23 hvcurveto
          -249 vlineto
          -29 -37 -31 -11 -30 hhcurveto
          endchar
        </CharString>
        <CharString name="e">
          -41 callgsubr
          hstem
          42 89 192 90 vstem
          -103 callsubr
          endchar
        </CharString>
        <CharString name="eacute">
          -41 callgsubr
          hstem
          42 89 192 90 vstem
          -103 callsubr
          107 285 -93 callsubr
        </CharString>
        <CharString name="ebreve">
          -41 callgsubr
          79 65 79 -20 hstem
          42 89 192 90 vstem
          -103 callsubr
          108 264 -91 callgsubr
        </CharString>
        <CharString name="ecaron">
          -38 -16 63 344 41 0 71 178 -20 hstemhm
          42 89 192 90 hintmask 11011100
          -103 callsubr
          -35 114 rmoveto
          hintmask 10111100
          -89 callsubr
        </CharString>
        <CharString name="ecircumflex">
          -41 callgsubr
          244 -20 hstem
          42 89 192 90 vstem
          -103 callsubr
          -35 283 -99 callsubr
        </CharString>
        <CharString name="edieresis">
          -41 callgsubr
          107 105 hstemhm
          42 89 -43 -8 callgsubr
          -68 90 hintmask 10111001
          -103 callsubr
          hintmask 11010110
          -146 200 -100 callgsubr
        </CharString>
        <CharString name="edotaccent">
          -41 callgsubr
          107 105 hstem
          42 89 54 111 27 90 vstem
          -103 callsubr
          -49 200 -84 callsubr
          endchar
        </CharString>
        <CharString name="egrave">
          -41 callgsubr
          hstem
          42 89 192 90 vstem
          -103 callsubr
          -105 269 -76 callgsubr
        </CharString>
        <CharString name="eight">
          -31 -14 43 537 44 hstemhm
          37 82 -58 77 181 73 -56 84 hintmask 11100100
          165 296 rmoveto
          -42 -15 -86 -47 -92 vvcurveto
          -107 83 -49 103 99 98 68 101 92 -75 57 -60 22 vhcurveto
          2 7 rlineto
          hintmask 11011000
          51 19 54 54 71 vvcurveto
          89 -72 44 -90 -85 -84 -67 -91 -77 56 -53 47 -19 vhcurveto
          hintmask 11100100
          -45 -151 rmoveto
          57 27 40 47 32 vhcurveto
          4 -4 4 0 5 -3 rrcurveto
          66 -37 64 -40 -65 vvcurveto
          -59 -42 -44 -65 -72 -38 53 70 vhcurveto
          hintmask 11011000
          200 316 rmoveto
          -48 -25 -39 -40 -34 vhcurveto
          -60 33 -56 37 61 vvcurveto
          51 35 37 51 61 34 -37 -61 vhcurveto
          endchar
        </CharString>
        <CharString name="eightsuperior">
          -177 306 39 282 39 hstemhm
          35 69 -56 56 102 54 -54 70 hintmask 11100100
          119 484 rmoveto
          -28 -9 -56 -26 -53 vvcurveto
          -63 53 -27 64 61 63 38 59 53 -50 32 -38 13 vhcurveto
          1 4 rlineto
          hintmask 11011000
          33 11 38 32 41 vvcurveto
          51 -47 26 -57 -53 -55 -39 -53 -44 40 -31 30 -11 vhcurveto
          -14 -87 rmoveto
          33 14 22 20 18 vhcurveto
          30 -22 38 -22 -40 vvcurveto
          -26 -19 -19 -31 -35 -17 24 32 vhcurveto
          97 183 rmoveto
          -28 -13 -21 -20 -20 vhcurveto
          -31 20 -27 19 35 vvcurveto
          22 17 16 26 31 17 -16 -27 vhcurveto
          endchar
        </CharString>
        <CharString name="ellipsis">
          343 -8 101 hstem
          110 105 148 105 148 105 cntrmask 01110000
          110 42 rmoveto
          -30 21 -20 31 21 callgsubr
          -32 -20 -22 -29 vhcurveto
          253 hmoveto
          -30 21 -20 31 21 callgsubr
          -32 -20 -22 -29 vhcurveto
          253 hmoveto
          -30 20 -20 32 21 callgsubr
          -33 -19 -22 -29 vhcurveto
          endchar
        </CharString>
        <CharString name="emacron">
          -41 callgsubr
          125 61 hstem
          42 89 192 90 vstem
          -103 callsubr
          -124 166 -60 callsubr
        </CharString>
        <CharString name="emdash">
          348 194 61 hstem
          -4 194 rmoveto
          836 hlineto
          8 61 rlineto
          -836 hlineto
          endchar
        </CharString>
        <CharString name="endash">
          79 194 61 hstem
          -4 194 rmoveto
          567 hlineto
          8 61 rlineto
          -567 hlineto
          endchar
        </CharString>
        <CharString name="eng">
          79 -10 callgsubr
          371 61 hstem
          107 80 207 80 vstem
          394 -28 rmoveto
          -30 -2 -25 -5 -20 vhcurveto
          -15 -50 -36 -58 -23 -28 21 -21 rcurveline
          37 36 58 60 32 68 rrcurveto
          10 21 3 39 38 vvcurveto
          279 vlineto
          111 -48 40 -85 -41 -43 -19 -26 -33 vhcurveto
          -38 -29 rlineto
          -96 callgsubr
          -11 callsubr
          -27 callgsubr
          -46 callsubr
          42 0 callsubr
          23 -34 -76 hvcurveto
          endchar
        </CharString>
        <CharString name="eogonek">
          -38 -240 50 174 63 173 212 -41 41 hstem
          42 89 20 70 102 90 vstem
          221 -143 rmoveto
          54 52 54 40 35 vhcurveto
          27 11 32 21 39 36 -16 22 rcurveline
          -23 -32 -44 -20 -44 hhcurveto
          -89 -50 55 108 -5 hvcurveto
          282 20 rlineto
          118 -52 84 -121 -122 -76 -110 -122 -132 79 -84 121 vhcurveto
          10 hlineto
          -59 -45 -42 -36 -54 -82 callsubr
          13 534 rmoveto
          69 20 -59 -62 hvcurveto
          -192 -24 rlineto
          70 27 75 76 vhcurveto
          endchar
        </CharString>
        <CharString name="equal">
          -28 106 58 97 58 hstem
          410 261 rmoveto
          58 -360 -58 vlineto
          360 -155 rmoveto
          58 -360 -58 vlineto
          endchar
        </CharString>
        <CharString name="eth">
          -28 -16 41 366 41 286 -20 hstem
          3 89 234 95 vstem
          114 549 rmoveto
          14 -40 114 65 37 -49 23 -61 12 -64 rlinecurve
          20 -29 -35 12 -39 hhcurveto
          -125 -83 -98 -137 -125 71 -88 138 172 37 149 157 136 -50 108 -71 73 hvcurveto
          93 54 -14 40 -111 -64 -62 50 -72 28 -71 3 rlinecurve
          -3 -32 64 -11 51 -28 40 -40 rlinecurve
          -123 -388 rmoveto
          115 35 57 70 51 46 -25 -46 25 vhcurveto
          6 -32 1 -40 -51 vvcurveto
          -116 -34 -56 -67 -83 -50 68 126 vhcurveto
          endchar
        </CharString>
        <CharString name="exclam">
          -235 -8 108 576 -20 hstem
          69 113 vstem
          182 46 rmoveto
          31 -22 23 -34 -34 -23 -23 -31 -31 23 -23 34 35 21 23 31 vhcurveto
          -106 614 rmoveto
          0 16 -213 4 -89 vhcurveto
          7 -158 12 -7 29 8 10 108 rlineto
          11 126 20 223 0 vvcurveto
          8 -11 -64 10 -21 hhcurveto
          endchar
        </CharString>
        <CharString name="exclamdown">
          -235 -6 callgsubr
          576 108 hstem
          71 113 vstem
          71 370 rmoveto
          -31 22 -23 34 34 23 23 31 31 -23 23 -34 -35 -21 -23 -31 vhcurveto
          106 -614 rmoveto
          0 -17 213 -4 89 vhcurveto
          -7 158 -13 7 -28 -8 -10 -108 rlineto
          -12 -126 -18 -223 0 vvcurveto
          -8 11 63 -10 21 hhcurveto
          endchar
        </CharString>
        <CharString name="f">
          -161 -72 callsubr
          368 48 259 43 -10 callsubr
          0 155 hintmask 10111000
          44 373 rmoveto
          63 -1 rlineto
          -306 8 callgsubr
          28 5 callgsubr
          41 -3 -5 53 hvcurveto
          8 30 rlineto
          0 -53 7 -19 9 vhcurveto
          -15 8 -2 4 17 vvcurveto
          303 vlineto
          110 -3 9 53 -119 -8 rlineto
          119 vlineto
          62 18 82 62 vhcurveto
          hintmask 10110100
          9 callgsubr
          hintmask 10111000
          15 callsubr
        </CharString>
        <CharString name="five">
          -91 -170 40 496 65 23 -20 hstem
          276 91 vstem
          87 145 rmoveto
          111 17 78 -34 -119 vvcurveto
          -79 -45 -60 -73 -32 -30 9 7 -18 vhcurveto
          -5 19 1 61 2 30 -34 7 rcurveline
          -11 -27 -21 -88 -2 -27 rrcurveto
          -10 33 76 -21 53 hhcurveto
          108 89 81 114 145 -113 55 -130 -22 hvcurveto
          -6 7 21 156 rlineto
          193 hlineto
          6 13 15 52 1 13 -7 10 rcurveline
          0 -22 -13 -60 -4 vhcurveto
          -163 -11 -43 -246 rlineto
          endchar
        </CharString>
        <CharString name="fivesuperior">
          -184 306 41 -41 220 89 47 14 -20 hstemhm
          187 79 hintmask 10101000
          84 486 rmoveto
          58 7 45 -15 -67 vvcurveto
          -36 -23 -28 -37 -17 -16 4 5 -10 vhcurveto
          -3 11 0 29 2 17 -29 5 rcurveline
          -6 -19 -14 -56 -1 -19 rrcurveto
          -6 20 49 -12 32 hhcurveto
          73 59 46 69 hvcurveto
          hintmask 01101000
          87 -73 23 -73 -5 vhcurveto
          -3 4 12 85 rlineto
          109 hlineto
          3 10 13 33 9 vvcurveto
          hintmask 10011000
          -7 9 rlineto
          0 -13 -8 -36 -2 vhcurveto
          -105 -7 -26 -152 rlineto
          endchar
        </CharString>
        <CharString name="florin">
          -161 -170 54 430 49 257 46 hstem
          226 512 rmoveto
          48 7 13 60 50 hhcurveto
          43 22 -46 -53 hvcurveto
          24 hlineto
          11 26 23 63 6 33 rrcurveto
          13 -33 -44 10 -23 hhcurveto
          -119 -52 -118 -126 -17 hvcurveto
          -10 -68 -60 -3 rlineto
          -36 vlineto
          55 1 -39 -295 rlineto
          -104 -14 -30 -33 -32 hhcurveto
          -34 -14 41 27 -6 hvcurveto
          -16 hlineto
          -11 -19 -24 -49 -8 -22 rrcurveto
          -11 12 45 -21 33 hhcurveto
          93 65 90 167 24 hvcurveto
          32 229 102 -4 9 55 -105 -8 rlineto
          endchar
        </CharString>
        <CharString name="four">
          -33 -156 213 -199 -21 163 57 375 -20 hstemhm
          270 82 hintmask 01111000
          352 hmoveto
          66 hlineto
          16 57 rlineto
          -82 375 -60 hlineto
          -277 -390 26 -42 rlineto
          229 -85 hlineto
          -18 -5 -7 -14 -6 vhcurveto
          -19 -9 -53 -7 -57 callsubr
          -31 rlineto
          hintmask 10011000
          3 37 62 4 26 hhcurveto
          hintmask 01111000
          23 48 -4 -3 30 hvcurveto
          7 31 rlineto
          0 -34 7 -15 9 vhcurveto
          -14 6 -4 7 18 vvcurveto
          -265 151 rmoveto
          170 238 9 23 4 -1 rlineto
          -269 -178 vlineto
          endchar
        </CharString>
        <CharString name="foursuperior">
          -153 315 146 -130 -21 105 46 205 -20 hstemhm
          173 70 hintmask 01111000
          243 415 -54 callsubr
          hintmask 10011000
          2 24 43 3 17 hhcurveto
          hintmask 01111000
          -29 callgsubr
          -17 callgsubr
        </CharString>
        <CharString name="fraction">
          -370 5 -21 703 -20 hstem
          -141 -9 callsubr
          endchar
        </CharString>
        <CharString name="franc">
          4 0 200 -187 -21 166 42 95 51 203 47 9 -56 callsubr
          hintmask 01111010
          55 200 rmoveto
          -8 -42 rlineto
          78 -89 14 callgsubr
          hintmask 10011010
          -47 callsubr
          hintmask 01111010
          30 58 -87 callgsubr
          81 118 vlineto
          8 42 rlineto
          -126 95 115 hlineto
          25 34 -4 0 hvcurveto
          7 10 9 25 1 13 -8 13 rcurveline
          0 -51 -6 -24 vhcurveto
          -108 203 189 hlineto
          14 -17 13 -69 5 -24 37 6 rcurveline
          2 41 3 83 -4 33 rrcurveto
          -4 -25 -36 -2 -21 hhcurveto
          -221 hlineto
          hintmask 01110110
          -26 -45 4 -48 callgsubr
          -33 23 -3 21 -5 15 -5 rlinecurve
          15 -5 1 -8 -17 vvcurveto
          -329 vlineto
          endchar
        </CharString>
        <CharString name="g">
          -16 callgsubr
          10 0 callgsubr
          hintmask 1111000110000000
          -51 callsubr
          hintmask 1111010001000000
          -65 callsubr
          hintmask 1110100110000000
          -79 callsubr
          hintmask 1111001001000000
          0 -37 22 -59 -102 -80 -53 -102 -111 99 -32 0 vhcurveto
          145 -170 rmoveto
          67 -5 22 -27 -42 vvcurveto
          -60 -62 -41 -84 vhcurveto
          hintmask 1111010010000000
          -21 callsubr
          hintmask 1111001010000000
          -57 callgsubr
          endchar
        </CharString>
        <CharString name="gbreve">
          -16 callgsubr
          79 65 79 0 callgsubr
          hintmask 1111110011000000
          -51 callsubr
          hintmask 1111111000100000
          -65 callsubr
          hintmask 1111110011000000
          -79 callsubr
          0 -37 22 -59 vhcurveto
          hintmask 1111110100100000
          -55 callsubr
          hintmask 1111111001000000
          -21 callsubr
          hintmask 1111110101000000
          -57 callgsubr
          200 372 -91 callgsubr
        </CharString>
        <CharString name="gcircumflex">
          -16 callgsubr
          244 0 callgsubr
          hintmask 1111100110000000
          -51 callsubr
          hintmask 1111110001000000
          -65 callsubr
          hintmask 1111100110000000
          -79 callsubr
          0 -37 22 -59 vhcurveto
          hintmask 1111101001000000
          -55 callsubr
          hintmask 1111110010000000
          -21 callsubr
          hintmask 1111101010000000
          -57 callgsubr
          57 391 -99 callsubr
        </CharString>
        <CharString name="gcommaaccent">
          -17 -260 49 180 70 81 39 0 235 0 38 0 49 219 -20 hstemhm
          20 80 -52 84 -70 82 21 66 91 85 -26 67 hintmask 1110101001110000
          -51 callsubr
          hintmask 1110101100101000
          -65 callsubr
          hintmask 1110101001110000
          -79 callsubr
          0 -37 22 -59 vhcurveto
          hintmask 1110101010101000
          -55 callsubr
          hintmask 1110101100110000
          -21 callsubr
          hintmask 1101011010110000
          -57 callgsubr
          157 271 rmoveto
          -37 4 -21 6 17 vvcurveto
          31 38 48 22 22 vhcurveto
          -22 18 rlineto
          -35 -30 -69 -77 -46 vvcurveto
          -38 45 -26 32 -2 vhcurveto
          17 11 27 30 10 16 rrcurveto
          endchar
        </CharString>
        <CharString name="gdot">
          -16 callgsubr
          107 105 hstemhm
          20 80 -52 84 -70 82 31 111 36 85 -26 67 hintmask 1111100111000000
          -51 callsubr
          hintmask 1111110010100000
          -65 callsubr
          hintmask 1111100111000000
          -79 callsubr
          0 -37 22 -59 vhcurveto
          hintmask 1111101010100000
          -55 callsubr
          hintmask 1111110011000000
          -21 callsubr
          hintmask 1111101011000000
          -57 callgsubr
          43 308 -84 callsubr
          endchar
        </CharString>
        <CharString name="germandbls">
          102 -16 38 -1 -21 675 43 -10 callsubr
          97 72 50 88 -11 77 hintmask 10111100
          494 555 rmoveto
          78 -63 85 -125 -132 -67 -118 -126 vhcurveto
          -58 vlineto
          -66 -15 3 -29 rlineto
          63 -306 hlineto
          -102 callgsubr
          hintmask 01111100
          5 48 31 -62 callsubr
          20 27 -3 -5 39 hvcurveto
          hintmask 10111100
          8 30 rlineto
          0 -26 8 -11 7 vhcurveto
          -15 9 -2 4 17 vvcurveto
          464 vlineto
          62 20 82 70 98 31 -54 -86 vhcurveto
          -115 -122 11 -105 vvcurveto
          -73 48 -27 50 -27 vhcurveto
          hintmask 10111010
          67 -36 34 -22 -49 vvcurveto
          -51 -34 -19 -42 -52 -35 44 60 -10 vhcurveto
          -29 -6 -3 -18 0 -72 3 -19 rlinecurve
          -15 29 49 -12 35 hhcurveto
          99 67 44 90 79 -57 31 -57 31 hvcurveto
          -53 29 -37 22 38 vvcurveto
          hintmask 10111100
          50 138 29 128 vvcurveto
          endchar
        </CharString>
        <CharString name="grave">
          519 -21 hstem
          76 660 -76 callgsubr
        </CharString>
        <CharString name="grave.case">
          -135 702 -21 152 -20 hstem
          76 799 -73 callgsubr
        </CharString>
        <CharString name="greater">
          -19 5 -21 448 -20 hstem
          425 184 rmoveto
          48 vlineto
          -381 200 rlineto
          -67 vlineto
          305 -157 -305 -157 rlineto
          -67 vlineto
          endchar
        </CharString>
        <CharString name="guillemotleft">
          -22 49 -21 360 -20 hstem
          218 28 -22 callsubr
          351 -168 -22 callsubr
          endchar
        </CharString>
        <CharString name="guillemotright">
          -22 49 -21 360 -20 hstem
          421 196 -22 callgsubr
          -5 168 -22 callgsubr
          endchar
        </CharString>
        <CharString name="guilsinglleft">
          -200 49 -21 360 -20 hstem
          218 28 -22 callsubr
          endchar
        </CharString>
        <CharString name="guilsinglright">
          -200 49 -21 360 -20 hstem
          243 196 -22 callgsubr
          endchar
        </CharString>
        <CharString name="h">
          79 -40 callgsubr
          286 -14 callsubr
          207 80 hintmask 10111100
          474 281 rmoveto
          111 -48 40 -85 -41 -42 -18 -27 -34 vhcurveto
          -37 -29 rlineto
          244 -58 callsubr
          -39 -3 -74 -18 -38 -17 rlinecurve
          5 -18 callgsubr
          41 8 15 -3 vhcurveto
          15 -3 2 -11 -19 vvcurveto
          -556 -44 callsubr
          42 0 callsubr
          23 -34 -76 hvcurveto
          -197 vlineto
          -16 -1 -4 -14 -8 vhcurveto
          -19 -9 -34 -43 callsubr
          26 3 26 hhcurveto
          hintmask 10111100
          -77 callgsubr
          endchar
        </CharString>
        <CharString name="hbar">
          79 -40 callgsubr
          113 42 131 -14 callsubr
          207 80 hintmask 10111110
          474 281 rmoveto
          111 -48 40 -85 -41 -42 -18 -27 -34 vhcurveto
          -37 -29 rlineto
          187 143 vlineto
          8 42 rlineto
          -151 15 hlineto
          41 1 31 6 26 vhcurveto
          -14 18 -39 -3 -74 -18 -38 -17 rlinecurve
          5 -18 callgsubr
          41 8 15 -3 vhcurveto
          15 -3 2 -11 -19 vvcurveto
          -35 -74 vlineto
          -8 -42 rlineto
          82 -479 hlineto
          -102 callgsubr
          hintmask 01111110
          -11 callsubr
          hintmask 10111110
          -27 callgsubr
          hintmask 01111110
          7 29 rlineto
          0 -34 6 -19 9 vhcurveto
          -15 8 -1 4 16 vvcurveto
          -78 callgsubr
          hintmask 10111110
          7 -29 rlineto
          hintmask 01111110
          -20 callsubr
          hintmask 10111110
          -77 callgsubr
          endchar
        </CharString>
        <CharString name="hcircumflex">
          79 -40 callgsubr
          449 -14 callsubr
          207 80 hintmask 10111100
          474 281 rmoveto
          111 -48 40 -85 -41 -42 -18 -27 -34 vhcurveto
          -37 -29 rlineto
          244 -58 callsubr
          -39 -3 -74 -18 -38 -17 rlinecurve
          5 -18 callgsubr
          41 8 15 -3 vhcurveto
          15 -3 2 -11 -19 vvcurveto
          -556 -44 callsubr
          42 0 callsubr
          23 -34 -76 hvcurveto
          -197 vlineto
          -16 -1 -4 -14 -8 vhcurveto
          -19 -9 -34 -43 callsubr
          26 3 26 hhcurveto
          hintmask 10111100
          -77 callgsubr
          -375 813 -93 callgsubr
        </CharString>
        <CharString name="hook">
          513 -21 176 41 hstemhm
          159 25 0 68 hintmask 11100000
          99 560 -8 callsubr
          vvcurveto
          hintmask 11010000
          -53 callsubr
        </CharString>
        <CharString name="hungarumlaut">
          511 -21 198 -20 hstem
          155 688 -65 callgsubr
          132 15 -65 callgsubr
          endchar
        </CharString>
        <CharString name="hungarumlaut.case">
          709 -21 hstem
          321 839 -64 callgsubr
          -159 17 -64 callgsubr
          endchar
        </CharString>
        <CharString name="hyphen">
          -184 192 65 hstem
          35 192 rmoveto
          223 hlineto
          10 65 rlineto
          -222 hlineto
          endchar
        </CharString>
        <CharString name="i">
          -47 callgsubr
          132 111 hstemhm
          72 115 -80 80 hintmask 10110100
          187 66 -101 callsubr
          hintmask 01111000
          5 41 38 5 callgsubr
          37 -34 callgsubr
          30 rlineto
          0 -38 13 callsubr
          -115 533 -23 callsubr
          endchar
        </CharString>
        <CharString name="iacute">
          -47 callgsubr
          hstemhm
          107 80 hintmask 10110000
          187 66 -101 callsubr
          hintmask 01110000
          5 41 38 -62 callsubr
          hintmask 10110000
          27 37 -34 callgsubr
          30 rlineto
          0 -38 13 callsubr
          54 610 -93 callsubr
        </CharString>
        <CharString name="ibreve">
          -47 callgsubr
          99 65 79 -14 callsubr
          hintmask 10111100
          187 66 -101 callsubr
          hintmask 01111100
          5 41 38 -62 callsubr
          hintmask 10111100
          27 37 -34 callgsubr
          30 rlineto
          0 -38 13 callsubr
          55 589 -91 callgsubr
        </CharString>
        <CharString name="icircumflex">
          -47 callgsubr
          264 -14 callsubr
          hintmask 10111000
          187 66 -101 callsubr
          hintmask 01111000
          5 41 38 5 callgsubr
          37 -34 callgsubr
          30 rlineto
          0 -38 13 callsubr
          -88 608 -99 callsubr
        </CharString>
        <CharString name="idieresis">
          -47 callgsubr
          127 105 hstemhm
          -12 111 8 80 -7 111 hintmask 10111100
          187 66 -101 callsubr
          hintmask 01111100
          5 41 38 -62 callsubr
          hintmask 10111100
          27 37 -34 callgsubr
          30 rlineto
          0 -38 13 callsubr
          -199 525 -84 callsubr
          hintmask 10111010
          -90 callsubr
        </CharString>
        <CharString name="igrave">
          -47 callgsubr
          hstemhm
          107 80 hintmask 10110000
          187 66 -101 callsubr
          hintmask 01110000
          5 41 38 -62 callsubr
          hintmask 10110000
          27 37 -34 callgsubr
          30 rlineto
          0 -38 13 callsubr
          -158 594 -76 callgsubr
        </CharString>
        <CharString name="ij">
          45 -10 callgsubr
          432 -20 hstem
          107 80 192 80 vstem
          187 66 -101 callsubr
          5 41 38 -62 callsubr
          27 37 -34 callgsubr
          30 rlineto
          0 -38 13 callsubr
          192 -94 rmoveto
          -30 -2 -25 -5 -20 vhcurveto
          -15 -50 -36 -58 -23 -28 21 -21 rcurveline
          37 36 58 60 32 68 rrcurveto
          10 21 3 39 38 vvcurveto
          314 vlineto
          41 4 30 6 27 vhcurveto
          -14 18 rlineto
          -37 -70 -17 -16 -39 hvcurveto
          5 -18 callgsubr
          32 -21 callgsubr
          endchar
        </CharString>
        <CharString name="imacron">
          -47 callgsubr
          145 61 -10 callsubr
          hintmask 10111000
          35 557 31 callgsubr
          141 -552 -101 callsubr
          hintmask 01111000
          5 41 38 5 callgsubr
          37 -34 callgsubr
          30 rlineto
          0 -38 13 callsubr
          endchar
        </CharString>
        <CharString name="iogonek">
          -204 -240 50 211 -21 432 -20 132 111 hstemhm
          52 70 -50 115 -80 80 hintmask 11111000
          122 -143 rmoveto
          52 49 53 40 35 vhcurveto
          13 -1 14 -2 15 -2 7 30 rcurveline
          0 -38 6 -19 9 vhcurveto
          hintmask 11110100
          -67 callgsubr
          250 vlineto
          41 4 30 7 27 vhcurveto
          -15 18 rlineto
          -36 -71 -17 -16 -39 hvcurveto
          6 -18 callgsubr
          31 7 16 -3 vhcurveto
          hintmask 11110010
          -87 callsubr
          5 41 38 -62 callsubr
          26 hlineto
          hintmask 11111000
          -12 callgsubr
          hintmask 11110100
          -50 742 -23 callsubr
          endchar
        </CharString>
        <CharString name="itilde">
          -47 callgsubr
          154 24 43 -14 callsubr
          hintmask 10111100
          187 66 -101 callsubr
          hintmask 01111100
          5 41 38 -62 callsubr
          hintmask 10111100
          27 37 -34 callgsubr
          30 rlineto
          0 -38 13 callsubr
          -116 500 -105 callgsubr
        </CharString>
        <CharString name="j">
          19 callsubr
          132 111 hstemhm
          60 115 -80 80 hintmask 11110000
          60 599 -23 callsubr
          hintmask 11101000
          35 -627 rmoveto
          -30 -2 -25 -5 -20 vhcurveto
          -15 -50 -36 -58 -23 -28 21 -21 rcurveline
          37 36 58 60 32 68 rrcurveto
          10 21 3 39 38 vvcurveto
          314 vlineto
          41 4 30 6 27 vhcurveto
          -14 18 rlineto
          -37 -70 -17 -16 -39 hvcurveto
          5 -18 callgsubr
          32 -21 callgsubr
          endchar
        </CharString>
        <CharString name="jcaron">
          19 callsubr
          269 -20 hstem
          95 80 vstem
          95 -28 rmoveto
          -30 -2 -25 -5 -20 vhcurveto
          -15 -50 -36 -58 -23 -28 21 -21 rcurveline
          37 36 58 60 32 68 rrcurveto
          10 21 3 39 38 vvcurveto
          314 vlineto
          41 4 30 6 27 vhcurveto
          -14 18 rlineto
          -37 -70 -17 -16 -39 hvcurveto
          5 -18 callgsubr
          32 -21 callgsubr
          -12 164 rmoveto
          -89 callsubr
        </CharString>
        <CharString name="jcircumflex">
          19 callsubr
          264 -20 hstem
          95 80 vstem
          95 -28 rmoveto
          -30 -2 -25 -5 -20 vhcurveto
          -15 -50 -36 -58 -23 -28 21 -21 rcurveline
          37 36 58 60 32 68 rrcurveto
          10 21 3 39 38 vvcurveto
          314 vlineto
          41 4 30 6 27 vhcurveto
          -14 18 rlineto
          -37 -70 -17 -16 -39 hvcurveto
          5 -18 callgsubr
          32 -21 callgsubr
          -12 333 -99 callsubr
        </CharString>
        <CharString name="k">
          25 -72 callsubr
          416 -20 322 -14 callsubr
          hintmask 10111000
          10 callsubr
          hintmask 01111000
          4 23 38 4 25 hhcurveto
          hintmask 10111000
          -78 callsubr
          367 vlineto
          40 1 31 6 26 vhcurveto
          -14 18 -3 callgsubr
          rlinecurve
          5 -31 rlineto
          0 41 9 15 -3 vhcurveto
          15 -4 2 -11 -19 vvcurveto
          -556 vlineto
          -102 callgsubr
          hintmask 01111000
          5 49 30 3 26 hhcurveto
          hintmask 10111000
          -38 callgsubr
          endchar
        </CharString>
        <CharString name="kcommaaccent">
          25 -10 callgsubr
          416 -20 322 -20 hstem
          107 80 79 66 vstem
          10 callsubr
          4 23 38 4 25 hhcurveto
          -78 callsubr
          367 vlineto
          40 1 31 6 26 vhcurveto
          -14 18 -3 callgsubr
          rlinecurve
          5 -31 rlineto
          0 41 9 15 -3 vhcurveto
          15 -4 2 -11 -19 vvcurveto
          -556 vlineto
          -102 callgsubr
          5 49 30 -62 callsubr
          -38 callgsubr
          21 -348 rmoveto
          -100 callsubr
        </CharString>
        <CharString name="kgreenlandic">
          25 -72 callsubr
          416 -20 28 -14 callsubr
          hintmask 10101000
          107 66 rmoveto
          -102 callgsubr
          hintmask 01101000
          5 49 30 -62 callsubr
          hintmask 10101000
          -38 callgsubr
          159 -168 12 -13 1 -10 -4 -7 rlinecurve
          -5 -8 -16 -5 -9 -1 7 -30 rcurveline
          hintmask 01101000
          4 23 38 4 25 hhcurveto
          hintmask 10101000
          -78 callsubr
          114 vlineto
          17 1 4 15 8 vhcurveto
          17 9 24 6 0 vvcurveto
          hintmask 10011000
          -8 30 rlineto
          hintmask 10101000
          -6 -40 -23 -2 -26 hhcurveto
          hintmask 10011000
          -26 -40 3 5 -39 hvcurveto
          -8 -18 callgsubr
          39 -5 19 -10 vhcurveto
          14 -7 1 -5 -17 vvcurveto
          endchar
        </CharString>
        <CharString name="l">
          -204 -72 callsubr
          718 -14 callsubr
          hintmask 10110000
          187 603 rmoveto
          -1 40 2 31 6 26 -14 18 rcurveline
          -3 callgsubr
          5 -31 rcurveline
          0 41 9 15 -3 vhcurveto
          15 -4 2 -11 -19 vvcurveto
          -556 vlineto
          -102 callgsubr
          hintmask 01110000
          5 51 28 -62 callsubr
          hintmask 10110000
          27 26 -3 -5 53 hvcurveto
          7 30 rlineto
          0 -38 13 callsubr
          endchar
        </CharString>
        <CharString name="lcaron">
          -138 -72 callsubr
          718 -14 callsubr
          105 66 hintmask 10111000
          187 603 rmoveto
          -1 40 2 31 6 26 -14 18 rcurveline
          -3 callgsubr
          5 -31 rcurveline
          0 41 9 15 -3 vhcurveto
          15 -4 2 -11 -19 vvcurveto
          -556 8 callgsubr
          28 5 callgsubr
          26 -3 -5 53 hvcurveto
          7 30 rlineto
          0 -38 13 callsubr
          47 579 rmoveto
          -100 callsubr
        </CharString>
        <CharString name="lcommaaccent">
          -204 -2 callgsubr
          41 718 -14 callsubr
          -40 66 hintmask 11110000
          187 603 rmoveto
          -1 40 2 31 6 26 -14 18 rcurveline
          -3 callgsubr
          5 -31 rcurveline
          0 41 9 15 -3 vhcurveto
          15 -4 2 -11 -19 vvcurveto
          -556 vlineto
          -102 callgsubr
          hintmask 11101000
          5 51 28 -62 callsubr
          27 26 -3 -5 53 hvcurveto
          7 30 rlineto
          0 -38 6 -19 9 vhcurveto
          hintmask 11110000
          -67 callgsubr
          -98 -180 rmoveto
          hintmask 11101000
          -100 callsubr
        </CharString>
        <CharString name="ldot">
          -163 -72 callsubr
          306 105 307 -14 callsubr
          67 111 hintmask 10111100
          187 603 rmoveto
          -1 40 2 31 6 26 -14 18 rcurveline
          -3 callgsubr
          5 -31 rcurveline
          0 41 9 15 -3 vhcurveto
          15 -4 2 -11 -19 vvcurveto
          -556 vlineto
          -102 callgsubr
          hintmask 01111100
          5 51 28 -62 callsubr
          hintmask 10111100
          27 26 -3 -5 53 hvcurveto
          7 30 rlineto
          0 -38 13 callsubr
          67 292 -84 callsubr
          endchar
        </CharString>
        <CharString name="less">
          -19 5 -21 448 -20 hstem
          425 -16 rmoveto
          67 vlineto
          -305 157 305 157 rlineto
          67 vlineto
          -381 -200 rlineto
          -48 vlineto
          endchar
        </CharString>
        <CharString name="lira">
          23 0 56 -43 -21 223 42 53 42 213 45 hstemhm
          127 85 hintmask 01111100
          61 352 rmoveto
          -8 -42 rlineto
          74 -53 -80 hlineto
          -8 -42 rlineto
          88 -90 14 callsubr
          hintmask 10111100
          -29 callsubr
          28 131 vlineto
          8 42 rlineto
          -139 53 145 hlineto
          8 42 rlineto
          -153 71 -31 callsubr
          -14 vlineto
          endchar
        </CharString>
        <CharString name="logicalnot">
          79 100 199 -65 65 hstemhm
          453 60 hintmask 01100000
          54 234 rmoveto
          399 hlineto
          hintmask 10100000
          -134 60 199 -459 vlineto
          endchar
        </CharString>
        <CharString name="longs">
          -161 -72 callsubr
          675 43 -10 callsubr
          0 155 hintmask 10110000
          44 373 rmoveto
          63 -1 rlineto
          -306 vlineto
          -102 callgsubr
          hintmask 01110000
          5 51 28 -62 callsubr
          hintmask 10110000
          27 41 -3 -5 53 hvcurveto
          8 30 rlineto
          0 -53 7 -19 9 vhcurveto
          -15 8 -2 4 17 vvcurveto
          464 vlineto
          62 18 82 62 vhcurveto
          hintmask 10101000
          9 callgsubr
          hintmask 10110000
          15 callsubr
        </CharString>
        <CharString name="lslash">
          -204 -72 callsubr
          718 -14 callsubr
          hintmask 10110000
          187 603 rmoveto
          -1 40 2 31 6 26 -14 18 rcurveline
          -3 callgsubr
          5 -31 rcurveline
          0 41 9 15 -3 vhcurveto
          15 -4 2 -11 -19 vvcurveto
          -233 vlineto
          -87 -67 12 -46 75 59 rlineto
          -269 vlineto
          -102 callgsubr
          hintmask 01110000
          5 51 28 -62 callsubr
          hintmask 10110000
          27 26 -3 -5 53 hvcurveto
          7 30 rlineto
          0 -38 13 callsubr
          331 vlineto
          86 68 -11 43 -75 -58 rlineto
          endchar
        </CharString>
        <CharString name="m">
          348 -40 callgsubr
          -10 callsubr
          198 80 197 81 hintmask 10111100
          186 358 rmoveto
          -5 15 -5 20 21 vvcurveto
          -16 18 -36 -4 -58 -18 -36 -16 rlinecurve
          5 -30 rlineto
          0 40 8 15 -3 vhcurveto
          15 -3 2 -11 -19 vvcurveto
          -270 -44 callsubr
          40 0 callsubr
          16 -34 -76 hvcurveto
          -197 vlineto
          -16 -1 -4 -15 -8 vhcurveto
          -19 -9 -33 -43 callsubr
          25 -62 callsubr
          hintmask 10111100
          27 21 -3 -5 51 hvcurveto
          7 30 rlineto
          0 -33 19 callgsubr
          13 -1 12 -1 11 vhcurveto
          25 33 41 29 40 hhcurveto
          70 15 -34 -76 hvcurveto
          -197 vlineto
          -16 -1 -4 -14 -8 vhcurveto
          hintmask 01111100
          -19 -9 -34 -43 callsubr
          26 3 26 hhcurveto
          hintmask 10111100
          27 26 -3 -5 51 hvcurveto
          7 30 rlineto
          0 -38 19 callgsubr
          111 -41 40 -85 -40 -39 -17 -27 -35 vhcurveto
          -46 -35 rlineto
          57 -16 -39 22 -63 hhcurveto
          -39 -42 -18 -27 -34 hvcurveto
          endchar
        </CharString>
        <CharString name="macron">
          -157 557 61 hstem
          35 557 -60 callsubr
        </CharString>
        <CharString name="macron.case">
          -157 703 61 hstem
          35 703 -60 callsubr
        </CharString>
        <CharString name="macute">
          348 -40 callgsubr
          -10 callsubr
          198 80 197 81 hintmask 10111100
          186 358 rmoveto
          -5 15 -5 20 21 vvcurveto
          -16 18 -36 -4 -58 -18 -36 -16 rlinecurve
          5 -30 rlineto
          0 40 8 15 -3 vhcurveto
          15 -3 2 -11 -19 vvcurveto
          -270 -44 callsubr
          40 0 callsubr
          16 -34 -76 hvcurveto
          -197 vlineto
          -16 -1 -4 -15 -8 vhcurveto
          -19 -9 -33 -43 callsubr
          25 -62 callsubr
          hintmask 10111100
          27 21 -3 -5 51 hvcurveto
          7 30 rlineto
          0 -33 19 callgsubr
          13 -1 12 -1 11 vhcurveto
          25 33 41 29 40 hhcurveto
          70 15 -34 -76 hvcurveto
          -197 vlineto
          -16 -1 -4 -14 -8 vhcurveto
          hintmask 01111100
          -19 -9 -34 -43 callsubr
          26 3 26 hhcurveto
          hintmask 10111100
          27 26 -3 -5 51 hvcurveto
          7 30 rlineto
          0 -38 19 callgsubr
          111 -41 40 -85 -40 -39 -17 -27 -35 vhcurveto
          -46 -35 rlineto
          57 -16 -39 22 -63 hhcurveto
          -39 -42 -18 -27 -34 hvcurveto
          321 289 -93 callsubr
        </CharString>
        <CharString name="minus">
          -28 186 58 hstem
          414 186 rmoveto
          58 -368 -58 vlineto
          endchar
        </CharString>
        <CharString name="mu">
          35 -6 callgsubr
          244 66 382 -20 hstemhm
          83 33 -33 80 179 81 hintmask 11101100
          83 401 rmoveto
          -266 vlineto
          -18 vlineto
          -7 -109 -7 -150 -1 -101 rrcurveto
          -8 13 40 -9 21 hhcurveto
          14 11 -7 12 -6 10 -7 30 rlinecurve
          hintmask 11110100
          -11 48 -9 78 85 vvcurveto
          -21 19 28 -9 33 hhcurveto
          59 44 35 77 46 hvcurveto
          -33 vlineto
          -42 27 -37 42 47 39 47 57 35 vhcurveto
          -20 17 rlineto
          -20 -15 -33 -33 -20 hhcurveto
          -18 -6 18 25 hvcurveto
          221 vlineto
          41 1 31 6 26 vhcurveto
          -15 18 -32 -4 -15 -5 -16 -7 rlinecurve
          -10 -15 rlineto
          -207 vlineto
          -59 -54 -85 -60 vhcurveto
          hintmask 11101100
          -46 -19 33 72 hvcurveto
          161 vlineto
          41 0 31 7 26 vhcurveto
          -15 18 -32 -4 -14 -5 -16 -7 rlinecurve
          endchar
        </CharString>
        <CharString name="multiply">
          -28 55 -21 358 -20 hstem
          368 34 rmoveto
          41 41 -138 138 138 138 -41 41 -138 -138 -138 138 -41 -41 138 -138 -138 -138 41 -41 138 138 rlineto
          endchar
        </CharString>
        <CharString name="n">
          79 -40 callgsubr
          -10 callsubr
          207 80 hintmask 01111000
          187 64 rmoveto
          -78 callgsubr
          hintmask 10111000
          7 -29 rlineto
          hintmask 01111000
          5 51 26 3 26 hhcurveto
          hintmask 10111000
          -99 callgsubr
          hintmask 01111000
          -11 callsubr
          hintmask 10111000
          -27 callgsubr
          hintmask 01111000
          -74 callgsubr
          endchar
        </CharString>
        <CharString name="nacute">
          79 -40 callgsubr
          -10 callsubr
          207 80 hintmask 01111000
          187 64 rmoveto
          -78 callgsubr
          hintmask 10111000
          7 -29 rlineto
          hintmask 01111000
          5 51 26 3 26 hhcurveto
          hintmask 10111000
          -99 callgsubr
          hintmask 01111000
          -11 callsubr
          hintmask 10111000
          -27 callgsubr
          hintmask 01111000
          -74 callgsubr
          202 612 -93 callsubr
        </CharString>
        <CharString name="napostrophe">
          79 -40 callgsubr
          286 -20 hstemhm
          85 66 -44 80 207 80 hintmask 01110110
          187 64 rmoveto
          -78 callgsubr
          hintmask 10111010
          7 -29 rlineto
          hintmask 01111010
          -20 callsubr
          hintmask 10110110
          -99 callgsubr
          hintmask 01111010
          -11 callsubr
          hintmask 10111010
          -27 callgsubr
          hintmask 01110110
          -74 callgsubr
          -160 581 rmoveto
          hintmask 10111010
          -100 callsubr
        </CharString>
        <CharString name="nbspace">
          -270 endchar
        </CharString>
        <CharString name="ncaron">
          79 -40 callgsubr
          0 71 178 -14 callsubr
          207 80 hintmask 01101110
          187 64 rmoveto
          -78 callgsubr
          hintmask 10101110
          7 -29 rlineto
          hintmask 01101110
          -20 callsubr
          hintmask 10101110
          -99 callgsubr
          hintmask 01101110
          -11 callsubr
          hintmask 10101110
          -27 callgsubr
          hintmask 01011110
          -74 callgsubr
          60 441 rmoveto
          -89 callsubr
        </CharString>
        <CharString name="ncommaaccent">
          79 -10 callgsubr
          371 61 hstem
          107 80 101 66 40 80 vstem
          187 64 rmoveto
          -78 callgsubr
          7 -29 rlineto
          -20 callsubr
          -99 callgsubr
          -11 callsubr
          -27 callgsubr
          -74 callgsubr
          43 -178 rmoveto
          -100 callsubr
        </CharString>
        <CharString name="nine">
          -28 -149 -21 242 43 281 44 hstem
          33 88 207 92 vstem
          78 -170 rmoveto
          167 7 175 120 237 vvcurveto
          139 -59 107 -135 -103 -90 -89 -106 -105 68 -68 101 52 40 20 20 29 vhcurveto
          -27 -169 -118 -67 -103 -14 rrcurveto
          148 253 rmoveto
          -73 -29 68 77 77 28 59 73 86 20 -108 -91 -13 0 -14 -1 -12 hvcurveto
          -18 -21 -36 -25 -47 hhcurveto
          endchar
        </CharString>
        <CharString name="ninesuperior">
          -168 306 183 -40 40 136 40 hstemhm
          30 77 96 79 hintmask 10111000
          67 306 rmoveto
          104 4 111 73 139 vvcurveto
          81 -40 62 -86 -66 -60 -51 -61 vhcurveto
          hintmask 01111000
          -63 46 -41 66 25 19 11 13 14 vhcurveto
          -13 -95 -67 -38 -56 -9 rrcurveto
          hintmask 10111000
          90 158 rmoveto
          -33 -14 35 38 35 14 28 33 40 9 -54 -47 hvcurveto
          -17 vlineto
          -8 -10 -16 -10 -23 hhcurveto
          endchar
        </CharString>
        <CharString name="nsuperior">
          -90 330 -21 244 57 hstem
          72 70 120 70 vstem
          142 366 rmoveto
          159 vlineto
          14 19 24 14 23 hhcurveto
          37 17 -19 -44 hvcurveto
          -124 vlineto
          -11 -3 -2 -8 -6 vhcurveto
          -11 -8 -19 -7 callsubr
          5 -24 rlineto
          3 27 29 3 20 hhcurveto
          20 29 -3 -3 27 hvcurveto
          5 24 rlineto
          0 -26 7 -14 8 vhcurveto
          -10 6 -1 2 12 vvcurveto
          136 vlineto
          78 -35 28 -62 -24 -26 -13 -19 -21 vhcurveto
          -23 -20 rlineto
          -4 11 -3 14 14 vvcurveto
          -11 13 -30 -4 -49 -14 -29 -12 rlinecurve
          3 -25 4 2 27 3 11 -2 rlinecurve
          11 -1 1 -9 -13 vvcurveto
          -167 vlineto
          -12 -1 -3 -9 -5 vhcurveto
          -14 -9 -27 -7 callsubr
          6 -24 rlineto
          3 21 31 3 20 hhcurveto
          20 34 -3 -3 25 hvcurveto
          5 24 rlineto
          0 -19 6 -11 8 vhcurveto
          -10 7 -1 1 11 vvcurveto
          endchar
        </CharString>
        <CharString name="ntilde">
          79 -40 callgsubr
          134 24 43 -14 callsubr
          207 80 hintmask 01111110
          187 64 rmoveto
          -78 callgsubr
          hintmask 10111110
          7 -29 rlineto
          hintmask 01111110
          -20 callsubr
          hintmask 10111110
          -99 callgsubr
          hintmask 01111110
          -11 callsubr
          hintmask 10111110
          -27 callgsubr
          hintmask 01111110
          -74 callgsubr
          32 502 -105 callgsubr
        </CharString>
        <CharString name="numbersign">
          53 0 238 -64 64 145 64 -64 225 hstemhm
          hintmask 10100000
          281 hmoveto
          53 hlineto
          hintmask 01100000
          25 174 rlineto
          109 hlineto
          12 64 rlineto
          -112 hlineto
          21 145 rlineto
          108 hlineto
          13 64 rlineto
          -112 hlineto
          hintmask 10010000
          23 27 callgsubr
          -119 hlineto
          hintmask 10010000
          24 27 callgsubr
          -110 hlineto
          -12 -64 rlineto
          112 hlineto
          -20 -145 rlineto
          -109 hlineto
          hintmask 01100000
          -12 -64 rlineto
          111 hlineto
          hintmask 10100000
          -25 -174 rlineto
          52 hlineto
          hintmask 01100000
          25 174 rlineto
          120 hlineto
          hintmask 10100000
          -90 209 rmoveto
          120 hlineto
          -21 -145 rlineto
          -119 hlineto
          endchar
        </CharString>
        <CharString name="o">
          -19 callsubr
          -20 callgsubr
          vstem
          -98 callsubr
          endchar
        </CharString>
        <CharString name="oacute">
          -19 callsubr
          -20 callgsubr
          vstem
          -98 callsubr
          229 456 -93 callsubr
        </CharString>
        <CharString name="obreve">
          -19 callsubr
          78 65 79 -20 hstemhm
          42 89 239 22 -22 90 hintmask 11111010
          -98 callsubr
          230 435 rmoveto
          -48 -9 -28 -31 -59 hhcurveto
          -59 -28 31 48 -9 hvcurveto
          -31 -9 rlineto
          -79 43 -56 84 vhcurveto
          hintmask 11111100
          75 52 56 79 hvcurveto
          endchar
        </CharString>
        <CharString name="ocircumflex">
          -19 callsubr
          243 -20 -20 callgsubr
          vstem
          -98 callsubr
          87 454 -99 callsubr
        </CharString>
        <CharString name="odieresis">
          -19 callsubr
          106 105 hstemhm
          42 89 -24 -8 callgsubr
          -40 90 hintmask 11110010
          -98 callsubr
          hintmask 11101100
          -24 371 -100 callgsubr
        </CharString>
        <CharString name="oe">
          268 -16 41 -41 63 173 212 -41 41 hstemhm
          42 89 229 83 186 90 hintmask 10101110
          719 28 callsubr
          -118 -63 -50 -32 -49 -33 vhcurveto
          51 -31 -54 30 -73 hhcurveto
          -122 -81 -98 -137 -125 69 -88 135 63 52 31 51 34 hvcurveto
          -52 33 54 -30 69 hhcurveto
          38 51 11 73 77 hvcurveto
          -16 22 rlineto
          hintmask 01011110
          -23 -31 -44 -20 -42 hhcurveto
          -86 -50 55 108 -5 hvcurveto
          -312 9 rmoveto
          115 33 57 67 79 49 -67 -124 1 vhcurveto
          -10 vlineto
          hintmask 10011110
          -111 -2 -34 -54 -65 hhcurveto
          -80 -48 68 126 hvcurveto
          412 172 rmoveto
          65 21 -59 -62 hvcurveto
          -186 -24 rlineto
          70 28 75 72 vhcurveto
          endchar
        </CharString>
        <CharString name="ogonek">
          -212 -240 50 190 -20 hstem
          55 70 vstem
          125 -143 rmoveto
          54 53 54 40 35 vhcurveto
          -41 hlineto
          -69 -53 -53 -38 -60 -82 callsubr
          endchar
        </CharString>
        <CharString name="ograve">
          -19 callsubr
          -20 callgsubr
          vstem
          -98 callsubr
          17 440 -76 callgsubr
        </CharString>
        <CharString name="ohorn">
          39 -16 41 366 41 108 -20 -20 callgsubr
          4 74 vstem
          42 197 rmoveto
          -125 71 -88 138 124 85 98 137 50 -12 45 -24 35 vhcurveto
          60 19 54 34 69 -35 callgsubr
          21 -5 23 -18 -18 vvcurveto
          -31 -36 -18 -27 -10 vhcurveto
          35 -35 -51 20 -65 hhcurveto
          -125 -83 -98 -137 hvcurveto
          89 22 rmoveto
          115 35 57 70 83 51 -68 -126 -116 -36 -56 -70 -83 -50 68 126 vhcurveto
          endchar
        </CharString>
        <CharString name="ohungarumlaut">
          -19 callsubr
          255 -20 -20 callgsubr
          vstem
          -98 callsubr
          156 468 -65 callgsubr
          132 15 -65 callgsubr
          endchar
        </CharString>
        <CharString name="omacron">
          -19 callsubr
          124 61 -20 callgsubr
          vstem
          -98 callsubr
          -2 337 -60 callsubr
        </CharString>
        <CharString name="one">
          -185 14 -21 28 -21 440 -20 hstemhm
          114 82 hintmask 10110000
          196 424 rmoveto
          -16 16 -36 -6 -86 -23 -36 -14 rlinecurve
          6 -24 rlineto
          52 hlineto
          26 8 -10 -26 hvcurveto
          -266 vlineto
          -18 -5 -7 -14 -6 vhcurveto
          -19 -9 -53 -7 -57 callsubr
          -31 rlineto
          hintmask 01110000
          5 37 62 2 26 hhcurveto
          hintmask 10110000
          27 57 -2 -5 37 hvcurveto
          7 31 rlineto
          0 -50 7 -19 9 vhcurveto
          -14 6 -4 7 18 vvcurveto
          endchar
        </CharString>
        <CharString name="onehalf">
          291 0 46 -41 -21 331 35 254 -20 103 -20 hstemhm
          134 70 393 79 hintmask 01111110
          161 -9 callsubr
          -317 -38 -71 callsubr
          293 -82 2 callgsubr
          rrcurveto
          hintmask 10111110
          5 -40 rlineto
          -50 callsubr
        </CharString>
        <CharString name="onequarter">
          243 0 146 -141 -21 116 46 458 -20 103 -20 hstemhm
          134 70 342 70 hintmask 01111110
          183 -9 callsubr
          -339 -38 -71 callsubr
          412 -279 -54 callsubr
          hintmask 10011110
          2 24 43 3 17 hhcurveto
          -29 callgsubr
          hintmask 01111110
          -17 callgsubr
        </CharString>
        <CharString name="onesuperior">
          -195 331 -21 294 -20 82 -20 hstem
          118 70 vstem
          188 649 -71 callsubr
          endchar
        </CharString>
        <CharString name="ordfeminine">
          -159 306 52 216 36 hstem
          30 76 87 70 vstem
          263 511 rmoveto
          68 -33 31 -68 -35 -52 -22 -13 -28 vhcurveto
          1 -15 12 -48 6 -13 33 8 rcurveline
          -1 14 2 34 3 11 rrcurveto
          5 11 16 3 15 hhcurveto
          39 9 -33 -39 hvcurveto
          -29 vlineto
          -56 -7 rlineto
          -59 -7 -48 -15 -59 vvcurveto
          -48 29 -31 48 34 26 21 24 31 vhcurveto
          4 -18 17 -21 13 -6 22 10 38 13 23 4 -6 31 rcurveline
          -18 -3 -14 1 -7 3 rrcurveto
          -5 4 -2 5 12 vvcurveto
          -157 6 rmoveto
          28 19 11 27 5 vhcurveto
          41 7 rlineto
          -65 vlineto
          -12 -15 -19 -8 -18 hhcurveto
          -23 -12 15 19 hvcurveto
          endchar
        </CharString>
        <CharString name="ordmasculine">
          -126 305 41 223 41 hstem
          33 79 137 80 vstem
          33 452 rmoveto
          -87 51 -60 97 88 60 67 94 84 -52 60 -97 -88 -59 -67 -91 vhcurveto
          79 14 rmoveto
          68 19 35 40 49 29 -42 -75 -72 -19 -34 -40 -49 -29 42 78 vhcurveto
          endchar
        </CharString>
        <CharString name="oslash">
          14 -20 -21 25 41 366 41 37 -20 -68 callgsubr
          endchar
        </CharString>
        <CharString name="oslashacute">
          14 -20 -21 25 41 366 41 -68 callgsubr
          220 457 -93 callsubr
        </CharString>
        <CharString name="otilde">
          -19 callsubr
          133 24 43 -20 -20 callgsubr
          vstem
          -98 callsubr
          59 346 -105 callgsubr
        </CharString>
        <CharString name="overscore">
          12 547 49 hstem
          547 vmoveto
          500 49 -500 hlineto
          endchar
        </CharString>
        <CharString name="p">
          44 29 callsubr
          41 347 60 hstemhm
          99 80 222 89 hintmask 01111100
          99 336 rmoveto
          -515 vlineto
          -17 -1 -4 -52 callgsubr
          -18 -9 -33 -7 0 vvcurveto
          8 -30 rlineto
          hintmask 10111100
          5 41 36 4 26 hhcurveto
          hintmask 01111100
          7 callsubr
          188 vlineto
          -14 23 37 -12 34 hhcurveto
          127 90 100 140 124 -48 84 -114 -27 -38 -9 -28 -38 hvcurveto
          -49 -35 -6 54 -16 18 -36 -4 -61 -18 -35 -16 rlinecurve
          5 -18 callgsubr
          40 8 15 -3 vhcurveto
          15 -3 2 -11 -19 vvcurveto
          80 -16 rmoveto
          33 39 35 19 32 hhcurveto
          72 44 -50 -121 -122 -56 -54 -63 -41 -42 27 32 -20 hvcurveto
          endchar
        </CharString>
        <CharString name="paragraph">
          -7 -170 108 661 -20 31 -20 76 -20 hstemhm
          22 234 57 60 hintmask 10111100
          22 420 rmoveto
          -108 70 -64 111 vhcurveto
          30 hlineto
          23 19 rlineto
          324 vlineto
          -23 19 rlineto
          -30 hlineto
          -112 -69 -83 -107 hvcurveto
          351 145 rmoveto
          hintmask 11011100
          22 2 12 23 25 39 -8 0 vhcurveto
          9 40 -39 15 -73 16 -39 4 rlinecurve
          -20 -23 rlineto
          11 -29 2 -45 -47 vvcurveto
          -445 vlineto
          -29 0 -26 -7 -22 vhcurveto
          -35 -8 -26 -27 -34 hhcurveto
          -21 -16 9 10 -17 hvcurveto
          -20 -10 7 -28 20 -64 20 -25 rlinecurve
          12 hlineto
          66 48 52 58 20 hvcurveto
          12 34 4 36 32 vvcurveto
          endchar
        </CharString>
        <CharString name="parenleft">
          -165 -149 -21 836 -20 hstem
          77 89 vstem
          269 666 rmoveto
          -115 -84 -77 -153 -179 vvcurveto
          -182 77 -153 115 -85 vhcurveto
          23 20 rlineto
          -95 97 -31 126 177 vvcurveto
          171 28 125 95 97 vhcurveto
          endchar
        </CharString>
        <CharString name="parenright">
          -165 -149 -21 836 -20 hstem
          157 89 vstem
          34 643 rmoveto
          95 -97 28 -125 -171 vvcurveto
          -177 -31 -126 -95 -97 vhcurveto
          23 -20 rlineto
          115 85 77 153 182 vvcurveto
          179 -77 153 -115 84 vhcurveto
          endchar
        </CharString>
        <CharString name="percent">
          296 -17 43 -21 -21 264 43 12 43 222 43 -1 -20 hstemhm
          42 75 161 75 78 75 161 75 hintmask 0111011111000000
          174 -16 rmoveto
          66 hlineto
          370 626 rlineto
          -66 hlineto
          -191 -152 rmoveto
          hintmask 1011101111000000
          -1 callsubr
          34 78 77 39 33 42 41 39 -34 -76 vhcurveto
          464 -320 rmoveto
          -1 callsubr
          33 79 76 39 34 42 41 39 -34 -76 vhcurveto
          endchar
        </CharString>
        <CharString name="period">
          -283 -8 118 hstem
          40 125 vstem
          40 51 rmoveto
          -34 25 -25 37 37 26 25 34 34 -26 25 -37 -39 -23 -25 -34 vhcurveto
          endchar
        </CharString>
        <CharString name="periodcentered">
          -203 219 17 callgsubr
          271 -84 callsubr
          endchar
        </CharString>
        <CharString name="peseta">
          49 -72 callsubr
          235 37 128 40 131 39 -32 callsubr
          89 hintmask 10111100
          55 440 rmoveto
          -8 -40 rlineto
          78 -331 hlineto
          -39 callsubr
          323 202 vlineto
          -88 -5 -55 -40 -95 -11 -15 4 -7 hhcurveto
          16 callgsubr
          101 99 70 95 15 hvcurveto
          39 hlineto
          8 40 rlineto
          -45 hlineto
          127 -7 -101 43 -130 hhcurveto
          -82 -81 0 -5 -57 hvcurveto
          -7 -31 -45 callgsubr
          -16 vvcurveto
          -91 vlineto
          89 124 rmoveto
          3 13 27 4 17 hhcurveto
          80 56 -39 -92 9 hvcurveto
          -202 hlineto
          endchar
        </CharString>
        <CharString name="plus">
          -28 36 -21 171 58 167 -20 hstem
          199 62 vstem
          261 411 rmoveto
          -62 -167 -153 -58 153 -171 62 171 153 58 -153 hlineto
          endchar
        </CharString>
        <CharString name="plusminus">
          -28 18 56 211 56 155 -20 hstem
          199 62 vstem
          261 496 rmoveto
          -62 -155 -149 -56 149 -158 62 158 149 56 -149 hlineto
          153 -323 rmoveto
          56 -368 -56 vlineto
          endchar
        </CharString>
        <CharString name="q">
          17 29 callsubr
          59 348 25 -25 41 hstemhm
          42 89 224 80 hintmask 01101110
          427 432 rmoveto
          hintmask 01110110
          -9 -21 -24 -7 -17 hhcurveto
          hintmask 01101110
          -26 -33 16 -49 hhcurveto
          -134 -81 -103 -139 -124 63 -82 118 38 37 13 48 57 hvcurveto
          -223 vlineto
          -16 -5 -7 -16 -6 vhcurveto
          -17 -6 -55 -7 -57 callsubr
          -33 rlineto
          hintmask 10110110
          5 45 47 4 27 hhcurveto
          hintmask 01101110
          26 36 -2 -7 41 hvcurveto
          7 30 rlineto
          0 -29 7 -19 9 vhcurveto
          -14 7 -1 4 17 vvcurveto
          493 vlineto
          41 1 43 6 26 vhcurveto
          -188 -381 rmoveto
          -71 -52 49 121 123 51 55 67 58 46 -31 -50 hvcurveto
          -231 vlineto
          -26 -37 -32 -10 -30 hhcurveto
          endchar
        </CharString>
        <CharString name="question">
          -56 -8 108 518 41 hstemhm
          110 77 -77 117 73 80 hintmask 11101000
          110 267 rmoveto
          14 -36 32 -37 19 -18 24 20 rcurveline
          0 -12 29 20 vvcurveto
          38 46 39 48 41 vhcurveto
          49 42 50 44 61 vvcurveto
          103 -64 46 -90 -50 -75 -24 -23 -51 vhcurveto
          -31 19 -75 7 -24 vhcurveto
          34 8 rlineto
          90 3 24 38 70 hhcurveto
          47 46 -35 -59 -39 -34 -35 -38 -35 hvcurveto
          -53 -49 -65 -53 -46 vvcurveto
          3 -221 rmoveto
          -31 22 -23 35 vhcurveto
          hintmask 11011000
          34 23 23 31 31 -23 23 -34 -36 -21 -23 -31 hvcurveto
          endchar
        </CharString>
        <CharString name="questiondown">
          -56 -243 41 518 108 hstemhm
          50 80 73 117 -77 77 hintmask 11101000
          320 149 rmoveto
          -14 36 -32 37 -19 18 -24 -20 rcurveline
          0 12 -29 -20 vvcurveto
          -38 -46 -39 -48 -41 vhcurveto
          -49 -42 -50 -44 -61 vvcurveto
          -103 64 -46 90 50 75 24 23 51 vhcurveto
          31 -19 75 -7 24 vhcurveto
          -34 -8 rlineto
          -90 -3 -24 -38 -70 hhcurveto
          -47 -46 35 59 39 34 35 38 35 hvcurveto
          53 49 65 53 46 vvcurveto
          -3 221 rmoveto
          31 -22 23 -35 vhcurveto
          hintmask 11110000
          -34 -23 -23 -31 -31 23 -23 34 36 21 23 31 hvcurveto
          endchar
        </CharString>
        <CharString name="quotedbl">
          -150 493 -21 256 -20 hstem
          206 717 -33 callgsubr
          -170 -11 -33 callgsubr
          endchar
        </CharString>
        <CharString name="quotedblbase">
          -80 -142 22 callgsubr
          113 75 112 74 vstem
          236 19 -55 callgsubr
        </CharString>
        <CharString name="quotedblleft">
          -80 437 22 callgsubr
          32 75 111 75 vstem
          171 506 -48 callsubr
          32 34 13 22 rrcurveto
          178 19 -48 callsubr
          33 34 12 22 rrcurveto
          endchar
        </CharString>
        <CharString name="quotedblright">
          -80 425 22 callgsubr
          113 75 112 74 vstem
          236 586 -55 callgsubr
        </CharString>
        <CharString name="quoteleft">
          -266 437 22 callgsubr
          32 75 vstem
          171 506 -48 callsubr
          32 34 13 22 rrcurveto
          endchar
        </CharString>
        <CharString name="quoteright">
          -266 425 22 callgsubr
          115 75 vstem
          52 586 rmoveto
          42 -4 21 -6 -21 vvcurveto
          -33 -42 -54 callgsubr
          endchar
        </CharString>
        <CharString name="quotesinglbase">
          -266 -142 22 callgsubr
          115 75 vstem
          52 19 rmoveto
          42 -4 21 -6 -21 vvcurveto
          -33 -42 -54 callgsubr
          endchar
        </CharString>
        <CharString name="quotesingle">
          -306 493 -21 256 -20 hstem
          50 717 -33 callgsubr
          endchar
        </CharString>
        <CharString name="r">
          -74 callsubr
          endchar
        </CharString>
        <CharString name="racute">
          -74 callsubr
          -5 394 -93 callsubr
        </CharString>
        <CharString name="rcaron">
          -107 -72 callsubr
          432 71 178 -14 callsubr
          0 133 hintmask 10111000
          -86 callsubr
          hintmask 01111000
          5 41 47 3 26 hhcurveto
          hintmask 10111000
          -61 callsubr
          hintmask 10110100
          29 13 -37 -45 hvcurveto
          -147 223 rmoveto
          -89 callsubr
        </CharString>
        <CharString name="rcommaaccent">
          -107 -2 callgsubr
          41 364 68 -10 callsubr
          -39 66 -27 133 hintmask 11110000
          -86 callsubr
          5 41 47 -62 callsubr
          -61 callsubr
          hintmask 11100100
          29 13 -37 -45 hvcurveto
          -230 -396 rmoveto
          hintmask 11101000
          -100 callsubr
        </CharString>
        <CharString name="registered">
          9 233 32 97 106 -106 197 -18 125 -32 32 hstemhm
          32 41 112 38 56 40 105 41 hintmask 1101011110000000
          223 538 rmoveto
          2 5 11 1 5 hhcurveto
          24 11 -12 -24 -26 -14 -11 -24 hvcurveto
          -18 hlineto
          -38 -79 rmoveto
          -4 0 -3 -5 -1 vhcurveto
          -5 -4 -12 0 0 vvcurveto
          1 -17 rlineto
          1 16 17 1 10 hhcurveto
          10 20 -1 -1 16 hvcurveto
          2 17 rlineto
          0 -20 3 -5 1 vhcurveto
          -7 2 0 4 5 vvcurveto
          57 15 vlineto
          3 2 -2 1 hhcurveto
          5 -2 3 -6 7 -10 rrcurveto
          -26 16 21 -42 14 hhcurveto
          47 hlineto
          3 16 rlineto
          -8 -8 0 6 -9 hvcurveto
          -21 13 -18 55 -23 6 rrcurveto
          3 vlineto
          25 1 21 21 27 vvcurveto
          hintmask 1010111110000000
          36 -35 14 -40 -28 -33 -4 2 -19 vhcurveto
          hintmask 1101011110000000
          -1 -16 rlineto
          0 12 0 5 -4 vhcurveto
          5 -1 0 -3 -4 vvcurveto
          -153 -80 rmoveto
          -121 96 -95 121 121 95 95 121 121 -95 96 -121 -121 -96 -96 -121 vhcurveto
          41 hmoveto
          hintmask 1100111110000000
          102 79 83 97 96 79 -83 -102 -102 -79 -82 -96 -97 -79 82 102 vhcurveto
          endchar
        </CharString>
        <CharString name="ring">
          503 27 callsubr
          588 -85 callsubr
          endchar
        </CharString>
        <CharString name="s">
          -107 -16 38 374 36 hstem
          51 72 137 77 vstem
          -94 callgsubr
          endchar
        </CharString>
        <CharString name="sacute">
          -107 -16 38 374 36 hstem
          51 72 137 77 vstem
          -94 callgsubr
          122 654 -93 callsubr
        </CharString>
        <CharString name="scaron">
          -107 -16 38 374 36 0 71 178 -20 hstemhm
          51 72 137 77 hintmask 11011100
          -94 callgsubr
          -20 483 rmoveto
          hintmask 10111100
          -89 callsubr
        </CharString>
        <CharString name="scedilla">
          -107 -4 callsubr
          467 36 hstemhm
          51 72 82 53 2 77 hintmask 10111100
          111 -83 callgsubr
          hintmask 01111100
          52 -37 30 -40 vhcurveto
          17 57 rlineto
          84 8 55 44 80 vvcurveto
          79 -67 26 -64 32 vhcurveto
          -55 27 -28 16 35 vvcurveto
          36 21 27 49 46 30 -35 -56 15 vhcurveto
          20 4 5 17 10 61 2 22 rlinecurve
          8 -31 -53 15 -37 hhcurveto
          -90 -59 -45 -76 -70 50 -27 53 -25 hvcurveto
          70 -33 36 -19 -45 vvcurveto
          -51 -36 -19 -45 -55 -37 44 60 -10 vhcurveto
          -29 -6 -3 -18 0 -72 3 -19 rlinecurve
          27 -13 43 -11 36 -2 rrcurveto
          endchar
        </CharString>
        <CharString name="scircumflex">
          -107 -16 38 374 36 244 -20 hstem
          51 72 137 77 vstem
          -94 callgsubr
          -20 652 -99 callsubr
        </CharString>
        <CharString name="scommaaccent">
          -107 -2 callgsubr
          25 0 38 374 36 hstemhm
          51 72 43 66 28 77 hintmask 10111110
          -94 callgsubr
          -71 -136 -59 callgsubr
          hintmask 11011110
          38 -45 26 -32 2 vhcurveto
          -17 -11 -27 -30 -10 -16 rrcurveto
          endchar
        </CharString>
        <CharString name="section">
          -40 -171 45 749 43 hstem
          50 84 169 89 vstem
          53 266 rmoveto
          -98 57 -31 63 -41 vhcurveto
          83 -49 47 -28 -55 vvcurveto
          -66 -41 -24 -60 -65 -45 56 80 -11 vhcurveto
          -33 -7 -3 -32 1 -74 2 -33 rlinecurve
          -21 35 60 -14 44 hhcurveto
          122 83 55 108 61 -34 36 -43 30 hvcurveto
          41 23 39 51 51 vvcurveto
          104 -79 34 -73 45 vhcurveto
          -72 43 -37 22 46 vvcurveto
          47 27 38 66 29 28 -6 -17 20 vhcurveto
          11 -21 6 -40 6 -34 27 5 rcurveline
          7 22 11 80 1 27 rrcurveto
          10 -35 -61 17 -41 hhcurveto
          -113 -73 -58 -96 -64 31 -35 42 -29 hvcurveto
          -38 -24 -32 -47 -47 vvcurveto
          260 -52 rmoveto
          -23 -14 -31 -25 -16 vhcurveto
          -14 9 -14 8 -13 9 rrcurveto
          -70 48 -33 19 54 vvcurveto
          22 12 29 23 16 vhcurveto
          6 -3 7 -4 6 -3 rrcurveto
          87 -48 42 -27 -59 vvcurveto
          endchar
        </CharString>
        <CharString name="semicolon">
          -249 -157 -21 469 119 hstemhm
          56 125 -59 75 hintmask 11100000
          56 21 rmoveto
          hintmask 11010000
          -23 callgsubr
          hintmask 11100000
          8 310 rmoveto
          11 callgsubr
        </CharString>
        <CharString name="seven">
          -74 -149 -21 535 59 5 -20 hstemhm
          67 98 hintmask 11010000
          328 365 rmoveto
          5 -7 -138 -193 -119 -204 -9 -119 rlinecurve
          9 -12 rlineto
          19 48 6 8 22 hvcurveto
          4 152 110 199 131 198 -22 31 rcurveline
          -262 hlineto
          hintmask 10110000
          -22 -48 2 3 -24 hvcurveto
          -2 -13 -1 -24 -26 vvcurveto
          -36 2 -39 2 -21 vhcurveto
          33 -2 rlineto
          hintmask 11010000
          3 23 10 56 8 18 rrcurveto
          endchar
        </CharString>
        <CharString name="sevensuperior">
          -204 327 -21 304 47 3 -20 hstemhm
          46 82 hintmask 11010000
          208 610 rmoveto
          3 -4 -85 -109 -75 -116 -5 -68 rlinecurve
          5 -7 rlineto
          16 44 3 5 17 hvcurveto
          2 89 69 114 85 115 -13 25 rcurveline
          -174 hlineto
          hintmask 10110000
          -13 -29 1 2 -14 hvcurveto
          -1 -9 -1 -14 -18 vvcurveto
          -26 1 -27 2 -15 vhcurveto
          28 -1 rlineto
          hintmask 11010000
          2 14 6 35 5 11 rrcurveto
          endchar
        </CharString>
        <CharString name="six">
          -28 -14 43 286 44 251 -20 hstem
          40 92 207 88 vstem
          258 359 rmoveto
          -19 -26 -4 -4 -9 hvcurveto
          -25 -11 -17 -21 -11 -15 3 -16 rcurveline
          17 26 28 10 30 hhcurveto
          73 28 -71 -76 -77 -27 -62 -72 -84 -24 114 87 207 86 119 158 22 hvcurveto
          -3 32 rlineto
          -167 -8 -166 -130 -245 vvcurveto
          -136 62 -105 134 103 88 81 115 110 -61 67 -108 vhcurveto
          endchar
        </CharString>
        <CharString name="sixsuperior">
          -159 306 41 144 35 -35 175 hstemhm
          38 79 102 77 hintmask 11011000
          181 526 rmoveto
          -9 -14 -5 -3 -5 hvcurveto
          -12 -8 -7 -10 -6 -9 2 -16 rcurveline
          10 12 14 6 13 hhcurveto
          35 15 -39 -41 -34 -14 -30 -35 -41 -12 57 44 115 48 65 90 13 hvcurveto
          hintmask 10111000
          -5 25 rlineto
          -108 -5 -104 -74 -141 vvcurveto
          -78 42 -62 88 70 58 47 66 vhcurveto
          hintmask 11011000
          66 -42 41 -73 vhcurveto
          endchar
        </CharString>
        <CharString name="slash">
          -47 -149 -21 837 -20 hstem
          23 -142 rmoveto
          55 -28 340 809 -55 28 rlineto
          endchar
        </CharString>
        <CharString name="space">
          -270 endchar
        </CharString>
        <CharString name="sterling">
          23 0 56 -43 -21 296 42 235 45 hstemhm
          127 85 hintmask 01111000
          57 330 rmoveto
          -8 -42 rlineto
          78 -163 14 callsubr
          hintmask 10111000
          -29 callsubr
          101 142 vlineto
          8 42 rlineto
          -150 93 -31 callsubr
          -36 vlineto
          endchar
        </CharString>
        <CharString name="t">
          -152 -16 61 323 46 106 -20 hstem
          85 80 vstem
          -67 callsubr
          endchar
        </CharString>
        <CharString name="tbar">
          -152 -16 61 178 42 103 46 106 -20 hstem
          85 80 vstem
          27 372 rmoveto
          58 -107 -70 hlineto
          -8 -42 rlineto
          78 -114 hlineto
          -102 51 -23 55 54 52 42 27 33 vhcurveto
          -15 23 rlineto
          -14 -21 -32 -17 -29 hhcurveto
          -40 -28 12 67 hvcurveto
          99 111 vlineto
          8 42 rlineto
          -119 105 hlineto
          120 -4 8 53 -128 -9 rlineto
          110 vlineto
          -80 -37 rlineto
          -67 vlineto
          -63 -18 rlineto
          endchar
        </CharString>
        <CharString name="tcaron">
          -152 -16 61 323 46 304 -20 hstem
          85 80 89 66 vstem
          -67 callsubr
          174 247 rmoveto
          -100 callsubr
        </CharString>
        <CharString name="tcedilla">
          -152 -4 callsubr
          439 46 106 -20 hstemhm
          85 80 56 53 hintmask 10111100
          127 -83 callgsubr
          hintmask 01111100
          52 -37 30 -40 vhcurveto
          18 58 45 9 42 34 28 23 rlinecurve
          -15 23 rlineto
          -14 -21 -32 -17 -29 hhcurveto
          -40 -28 12 67 hvcurveto
          246 vlineto
          120 -4 8 53 -128 -9 rlineto
          110 vlineto
          -80 -37 rlineto
          -67 vlineto
          -63 -18 5 -26 rlineto
          58 -263 hlineto
          -90 39 -28 46 -6 vhcurveto
          endchar
        </CharString>
        <CharString name="tcommaaccent">
          -152 -2 callgsubr
          25 0 61 323 46 106 -20 hstemhm
          85 80 21 66 hintmask 10111110
          -67 callsubr
          106 -512 -59 callgsubr
          hintmask 11011110
          38 -45 26 -32 2 vhcurveto
          -17 -11 -27 -30 -10 -16 rrcurveto
          endchar
        </CharString>
        <CharString name="thorn">
          29 29 callsubr
          41 348 59 224 -20 82 -20 hstemhm
          83 80 223 89 hintmask 01111111
          -42 callsubr
          -801 vlineto
          -17 -1 -4 -52 callgsubr
          -18 -9 -33 -7 0 vvcurveto
          8 -30 rlineto
          hintmask 10111111
          5 41 36 4 26 hhcurveto
          hintmask 01111111
          7 callsubr
          180 vlineto
          -11 32 34 -7 32 -12 callsubr
        </CharString>
        <CharString name="three">
          -53 -170 40 259 40 231 40 hstemhm
          272 86 -62 92 hintmask 11101000
          129 129 rmoveto
          88 6 79 -23 -112 vvcurveto
          -75 -51 -55 -75 -32 -27 7 8 -18 vhcurveto
          -6 19 0 59 2 30 -34 6 rcurveline
          -10 -27 -20 -84 -2 -27 rrcurveto
          -11 31 79 -20 49 hhcurveto
          114 92 78 109 103 -79 49 -79 hvcurveto
          9 vlineto
          hintmask 11110000
          60 19 68 51 74 vvcurveto
          83 -70 35 -86 -53 -74 -27 -13 -33 vhcurveto
          3 -26 17 -78 11 -24 32 6 rcurveline
          -2 31 2 56 7 19 rrcurveto
          10 16 34 6 24 hhcurveto
          60 26 -37 -58 -73 -83 -51 -58 -13 hvcurveto
          endchar
        </CharString>
        <CharString name="threequarters">
          250 0 146 -141 -21 116 46 160 41 -41 196 123 41 21 -20 hstemhm
          216 75 -57 79 240 70 hintmask 0111011011000000
          190 -9 callsubr
          -411 -212 -36 callsubr
          hintmask 0110111101000000
          -45 callsubr
          482 -405 -54 callsubr
          hintmask 1001011101000000
          2 24 43 3 17 hhcurveto
          -29 callgsubr
          hintmask 0111011101000000
          -17 callgsubr
        </CharString>
        <CharString name="threesuperior">
          -141 306 41 -41 196 123 41 hstemhm
          203 75 -57 79 hintmask 10101000
          126 475 -36 callsubr
          hintmask 01110000
          -45 callsubr
          endchar
        </CharString>
        <CharString name="tilde">
          -45 545 -21 42 24 43 -20 hstem
          152 566 -105 callgsubr
        </CharString>
        <CharString name="tilde.case">
          -45 712 -21 42 24 43 -20 hstem
          152 733 -105 callgsubr
        </CharString>
        <CharString name="two">
          -43 0 57 343 40 hstem
          268 92 vstem
          115 384 rmoveto
          10 18 27 6 27 hhcurveto
          54 27 -38 -51 -50 -27 -38 -53 -51 hvcurveto
          -37 -38 -75 -62 -32 -25 6 -47 rcurveline
          325 hlineto
          6 22 21 97 1 22 -32 7 rcurveline
          -6 -22 -35 -55 -14 -14 rrcurveto
          -181 hlineto
          -4 9 25 17 52 35 38 30 rlinecurve
          62 51 52 42 77 vvcurveto
          88 -74 34 -86 -52 -71 -27 -13 -33 vhcurveto
          3 -26 17 -76 11 -26 32 6 rcurveline
          -2 31 2 56 8 19 rrcurveto
          endchar
        </CharString>
        <CharString name="twosuperior">
          -121 315 46 263 41 hstem
          206 79 vstem
          106 612 2 callgsubr
          5 -40 rcurveline
          -50 callsubr
        </CharString>
        <CharString name="u">
          62 -16 61 387 -20 hstem
          93 80 199 81 vstem
          453 85 rmoveto
          231 vlineto
          41 1 31 6 26 vhcurveto
          -15 18 -38 -2 -76 -15 -38 -17 rlinecurve
          6 -18 callgsubr
          41 8 16 -3 vhcurveto
          14 -24 callgsubr
          -246 vlineto
          -25 -33 -41 -22 -35 hhcurveto
          -63 -27 35 75 hvcurveto
          161 -58 callsubr
          -40 -4 -68 -14 -37 -16 rlinecurve
          5 -18 callgsubr
          36 8 14 -3 vhcurveto
          15 -24 callgsubr
          -203 vlineto
          -113 51 -38 82 37 40 18 28 36 vhcurveto
          36 27 rlineto
          -34 26 -24 21 -15 vhcurveto
          34 14 49 13 34 7 -7 30 rcurveline
          -17 -2 -31 0 -15 6 rrcurveto
          -11 5 -5 15 13 vvcurveto
          endchar
        </CharString>
        <CharString name="uacute">
          62 -16 61 hstem
          93 80 199 81 vstem
          453 85 rmoveto
          231 vlineto
          41 1 31 6 26 vhcurveto
          -15 18 -38 -2 -76 -15 -38 -17 rlinecurve
          6 -18 callgsubr
          41 8 16 -3 vhcurveto
          14 -24 callgsubr
          -246 vlineto
          -25 -33 -41 -22 -35 hhcurveto
          -63 -27 35 75 hvcurveto
          161 -58 callsubr
          -40 -4 -68 -14 -37 -16 rlinecurve
          5 -18 callgsubr
          36 8 14 -3 vhcurveto
          15 -24 callgsubr
          -203 vlineto
          -113 51 -38 82 37 40 18 28 36 vhcurveto
          36 27 rlineto
          -34 26 -24 21 -15 vhcurveto
          34 14 49 13 34 7 -7 30 rcurveline
          -17 -2 -31 0 -15 6 rrcurveto
          -11 5 -5 15 13 vvcurveto
          -82 591 -93 callsubr
        </CharString>
        <CharString name="ubreve">
          62 -16 61 466 65 79 -20 hstem
          93 80 199 81 vstem
          453 85 rmoveto
          231 vlineto
          41 1 31 6 26 vhcurveto
          -15 18 -38 -2 -76 -15 -38 -17 rlinecurve
          6 -18 callgsubr
          41 8 16 -3 vhcurveto
          14 -24 callgsubr
          -246 vlineto
          -25 -33 -41 -22 -35 hhcurveto
          -63 -27 35 75 hvcurveto
          161 -58 callsubr
          -40 -4 -68 -14 -37 -16 rlinecurve
          5 -18 callgsubr
          36 8 14 -3 vhcurveto
          15 -24 callgsubr
          -203 vlineto
          -113 51 -38 82 37 40 18 28 36 vhcurveto
          36 27 rlineto
          -34 26 -24 21 -15 vhcurveto
          34 14 49 13 34 7 -7 30 rcurveline
          -17 -2 -31 0 -15 6 rrcurveto
          -11 5 -5 15 13 vvcurveto
          -81 570 -91 callgsubr
        </CharString>
        <CharString name="ucircumflex">
          62 -16 61 631 -20 hstem
          93 80 199 81 vstem
          453 85 rmoveto
          231 vlineto
          41 1 31 6 26 vhcurveto
          -15 18 -38 -2 -76 -15 -38 -17 rlinecurve
          6 -18 callgsubr
          41 8 16 -3 vhcurveto
          14 -24 callgsubr
          -246 vlineto
          -25 -33 -41 -22 -35 hhcurveto
          -63 -27 35 75 hvcurveto
          161 -58 callsubr
          -40 -4 -68 -14 -37 -16 rlinecurve
          5 -18 callgsubr
          36 8 14 -3 vhcurveto
          15 -24 callgsubr
          -203 vlineto
          -113 51 -38 82 37 40 18 28 36 vhcurveto
          36 27 rlineto
          -34 26 -24 21 -15 vhcurveto
          34 14 49 13 34 7 -7 30 rcurveline
          -17 -2 -31 0 -15 6 rrcurveto
          -11 5 -5 15 13 vvcurveto
          -224 589 -99 callsubr
        </CharString>
        <CharString name="udieresis">
          62 -16 61 494 105 hstemhm
          93 80 -55 -8 callgsubr
          -49 81 hintmask 11100100
          453 85 rmoveto
          231 vlineto
          41 1 31 6 26 vhcurveto
          -15 18 -38 -2 -76 -15 -38 -17 rlinecurve
          6 -18 callgsubr
          41 8 16 -3 vhcurveto
          14 -24 callgsubr
          -246 vlineto
          -25 -33 -41 -22 -35 hhcurveto
          -63 -27 35 75 hvcurveto
          161 -58 callsubr
          -40 -4 -68 -14 -37 -16 rlinecurve
          5 -18 callgsubr
          36 8 14 -3 vhcurveto
          15 -24 callgsubr
          -203 vlineto
          -113 51 -38 82 37 40 18 28 36 vhcurveto
          36 27 rlineto
          -34 26 -24 21 -15 vhcurveto
          34 14 49 13 34 7 -7 30 rcurveline
          -17 -2 -31 0 -15 6 rrcurveto
          -11 5 -5 15 13 vvcurveto
          hintmask 11011000
          -335 506 rmoveto
          hintmask 11101000
          -30 23 -22 32 vhcurveto
          hintmask 11011000
          33 23 22 30 hvcurveto
          hintmask 11101000
          30 -23 23 -33 vhcurveto
          hintmask 11011000
          -33 -22 -23 -30 hvcurveto
          -90 callsubr
        </CharString>
        <CharString name="ugrave">
          62 -16 61 hstem
          93 80 199 81 vstem
          453 85 rmoveto
          231 vlineto
          41 1 31 6 26 vhcurveto
          -15 18 -38 -2 -76 -15 -38 -17 rlinecurve
          6 -18 callgsubr
          41 8 16 -3 vhcurveto
          14 -24 callgsubr
          -246 vlineto
          -25 -33 -41 -22 -35 hhcurveto
          -63 -27 35 75 hvcurveto
          161 -58 callsubr
          -40 -4 -68 -14 -37 -16 rlinecurve
          5 -18 callgsubr
          36 8 14 -3 vhcurveto
          15 -24 callgsubr
          -203 vlineto
          -113 51 -38 82 37 40 18 28 36 vhcurveto
          36 27 rlineto
          -34 26 -24 21 -15 vhcurveto
          34 14 49 13 34 7 -7 30 rcurveline
          -17 -2 -31 0 -15 6 rrcurveto
          -11 5 -5 15 13 vvcurveto
          -294 575 -76 callgsubr
        </CharString>
        <CharString name="uhorn">
          67 -16 61 552 -20 hstem
          93 80 199 81 60 74 vstem
          453 85 rmoveto
          231 vlineto
          35 0 27 4 24 vhcurveto
          67 18 63 33 75 -35 callgsubr
          20 -5 24 -18 -18 vvcurveto
          -34 -43 -18 -26 -9 vhcurveto
          -39 -2 -75 -15 -37 -17 6 -30 rcurveline
          0 41 8 16 -3 vhcurveto
          14 -24 callgsubr
          -246 vlineto
          -25 -33 -41 -22 -35 hhcurveto
          -63 -27 35 75 hvcurveto
          161 -58 callsubr
          -40 -4 -68 -14 -37 -16 rlinecurve
          5 -18 callgsubr
          36 8 14 -3 vhcurveto
          15 -24 callgsubr
          -203 vlineto
          -113 51 -38 82 37 40 18 28 36 vhcurveto
          36 27 rlineto
          -34 26 -24 21 -15 vhcurveto
          34 14 49 13 34 7 -7 30 rcurveline
          -17 -2 -31 0 -15 6 rrcurveto
          -11 5 -5 15 13 vvcurveto
          endchar
        </CharString>
        <CharString name="uhungarumlaut">
          62 -16 61 643 -20 hstem
          93 80 199 81 vstem
          453 85 rmoveto
          231 vlineto
          41 1 31 6 26 vhcurveto
          -15 18 -38 -2 -76 -15 -38 -17 rlinecurve
          6 -18 callgsubr
          41 8 16 -3 vhcurveto
          14 -24 callgsubr
          -246 vlineto
          -25 -33 -41 -22 -35 hhcurveto
          -63 -27 35 75 hvcurveto
          161 -58 callsubr
          -40 -4 -68 -14 -37 -16 rlinecurve
          5 -18 callgsubr
          36 8 14 -3 vhcurveto
          15 -24 callgsubr
          -203 vlineto
          -113 51 -38 82 37 40 18 28 36 vhcurveto
          36 27 rlineto
          -34 26 -24 21 -15 vhcurveto
          34 14 49 13 34 7 -7 30 rcurveline
          -17 -2 -31 0 -15 6 rrcurveto
          -11 5 -5 15 13 vvcurveto
          -155 603 -65 callgsubr
          132 15 -65 callgsubr
          endchar
        </CharString>
        <CharString name="umacron">
          62 -16 61 512 61 hstem
          93 80 199 81 vstem
          453 85 rmoveto
          231 vlineto
          41 1 31 6 26 vhcurveto
          -15 18 -38 -2 -76 -15 -38 -17 rlinecurve
          6 -18 callgsubr
          41 8 16 -3 vhcurveto
          14 -24 callgsubr
          -246 vlineto
          -25 -33 -41 -22 -35 hhcurveto
          -63 -27 35 75 hvcurveto
          161 -58 callsubr
          -40 -4 -68 -14 -37 -16 rlinecurve
          5 -18 callgsubr
          36 8 14 -3 vhcurveto
          15 -24 callgsubr
          -203 vlineto
          -113 51 -38 82 37 40 18 28 36 vhcurveto
          36 27 rlineto
          -34 26 -24 21 -15 vhcurveto
          34 14 49 13 34 7 -7 30 rcurveline
          -17 -2 -31 0 -15 6 rrcurveto
          -11 5 -5 15 13 vvcurveto
          -313 472 -60 callsubr
        </CharString>
        <CharString name="underscore">
          12 -156 49 hstem
          -156 vmoveto
          500 49 -500 hlineto
          endchar
        </CharString>
        <CharString name="uni02F3">
          -244 27 callsubr
          -159 -85 callsubr
          endchar
        </CharString>
        <CharString name="uni030F">
          -488 511 -21 198 -20 hstem
          -268 673 4 callsubr
          -158 -15 4 callsubr
          endchar
        </CharString>
        <CharString name="uni1E00">
          162 -244 33 104 33 95 -21 237 50 387 -20 hstem
          221 38 96 38 vstem
          -88 callgsubr
          -38 callsubr
          -97 callsubr
          -37 callgsubr
          -103 callgsubr
          52 -446 -85 callsubr
          endchar
        </CharString>
        <CharString name="uni1E01">
          -33 -244 33 104 33 58 60 343 45 hstemhm
          44 83 37 38 81 80 -65 38 hintmask 11111110
          -107 callgsubr
          -161 -241 rmoveto
          29 22 23 26 vhcurveto
          hintmask 11111101
          -49 callgsubr
          endchar
        </CharString>
</ttFont>
